<?xml version="1.0" encoding="UTF-8" standalone="no"?><svg xmlns="http://www.w3.org/2000/svg" xmlns:xlink="http://www.w3.org/1999/xlink" contentStyleType="text/css" height="1001px" preserveAspectRatio="none" style="width:1667px;height:1001px;background:#FFFFFF;" version="1.1" viewBox="0 0 1667 1001" width="1667px" zoomAndPan="magnify"><defs/><g><rect fill="#FFFFF9" height="989.9766" style="stroke:#181818;stroke-width:0.5;" width="646.5" x="228" y="6"/><text fill="#000000" font-family="sans-serif" font-size="13" font-weight="bold" lengthAdjust="spacing" textLength="103" x="497.25" y="18.0669">CentralLedger</text><rect fill="#F9FFF9" height="989.9766" style="stroke:#181818;stroke-width:0.5;" width="565.5" x="1093" y="6"/><text fill="#000000" font-family="sans-serif" font-size="13" font-weight="bold" lengthAdjust="spacing" textLength="57" x="1344.75" y="18.0669">Storage</text><rect height="559.0547" style="stroke:#000000;stroke-width:1.5;fill:none;" width="1599.5" x="10" y="340.625"/><line style="stroke:#181818;stroke-width:0.5;fill:none;stroke-dasharray:5.0,5.0;" x1="86" x2="86" y1="87.4297" y2="916.6797"/><line style="stroke:#181818;stroke-width:0.5;fill:none;stroke-dasharray:5.0,5.0;" x1="252" x2="252" y1="87.4297" y2="916.6797"/><line style="stroke:#181818;stroke-width:0.5;fill:none;stroke-dasharray:5.0,5.0;" x1="466" x2="466" y1="87.4297" y2="916.6797"/><line style="stroke:#181818;stroke-width:0.5;fill:none;stroke-dasharray:5.0,5.0;" x1="648" x2="648" y1="87.4297" y2="916.6797"/><line style="stroke:#181818;stroke-width:0.5;fill:none;stroke-dasharray:5.0,5.0;" x1="804.5" x2="804.5" y1="87.4297" y2="916.6797"/><line style="stroke:#181818;stroke-width:0.5;fill:none;stroke-dasharray:5.0,5.0;" x1="1164" x2="1164" y1="87.4297" y2="916.6797"/><line style="stroke:#181818;stroke-width:0.5;fill:none;stroke-dasharray:5.0,5.0;" x1="1387.5" x2="1387.5" y1="87.4297" y2="916.6797"/><line style="stroke:#181818;stroke-width:0.5;fill:none;stroke-dasharray:5.0,5.0;" x1="1545.5" x2="1545.5" y1="87.4297" y2="916.6797"/><line style="stroke:#181818;stroke-width:0.5;fill:none;stroke-dasharray:5.0,5.0;" x1="1631.5" x2="1631.5" y1="87.4297" y2="916.6797"/><text fill="#000000" font-family="sans-serif" font-size="14" lengthAdjust="spacing" textLength="126" x="20" y="84.1279">Mojaloop Adapter</text><ellipse cx="86" cy="19.6328" fill="#E2E2F0" rx="8" ry="8" style="stroke:#181818;stroke-width:0.5;"/><path d="M86,27.6328 L86,54.6328 M73,35.6328 L99,35.6328 M86,54.6328 L73,69.6328 M86,54.6328 L99,69.6328 " fill="none" style="stroke:#181818;stroke-width:0.5;"/><text fill="#000000" font-family="sans-serif" font-size="14" lengthAdjust="spacing" textLength="126" x="20" y="928.6748">Mojaloop Adapter</text><ellipse cx="86" cy="940.4766" fill="#E2E2F0" rx="8" ry="8" style="stroke:#181818;stroke-width:0.5;"/><path d="M86,948.4766 L86,975.4766 M73,956.4766 L99,956.4766 M86,975.4766 L73,990.4766 M86,975.4766 L99,990.4766 " fill="none" style="stroke:#181818;stroke-width:0.5;"/><rect fill="#E2E2F0" height="30.2969" rx="2.5" ry="2.5" style="stroke:#181818;stroke-width:0.5;" width="40" x="232" y="56.1328"/><text fill="#000000" font-family="sans-serif" font-size="14" font-weight="bold" lengthAdjust="spacing" textLength="26" x="239" y="76.1279">API</text><rect fill="#E2E2F0" height="30.2969" rx="2.5" ry="2.5" style="stroke:#181818;stroke-width:0.5;" width="40" x="232" y="915.6797"/><text fill="#000000" font-family="sans-serif" font-size="14" font-weight="bold" lengthAdjust="spacing" textLength="26" x="239" y="935.6748">API</text><rect fill="#E2E2F0" height="30.2969" rx="2.5" ry="2.5" style="stroke:#181818;stroke-width:0.5;" width="106" x="413" y="56.1328"/><text fill="#000000" font-family="sans-serif" font-size="14" lengthAdjust="spacing" text-decoration="underline" textLength="22" x="420" y="76.1279">api</text><text fill="#000000" font-family="sans-serif" font-size="14" lengthAdjust="spacing" textLength="66" x="446" y="76.1279">/ Handler</text><rect fill="#E2E2F0" height="30.2969" rx="2.5" ry="2.5" style="stroke:#181818;stroke-width:0.5;" width="106" x="413" y="915.6797"/><text fill="#000000" font-family="sans-serif" font-size="14" lengthAdjust="spacing" text-decoration="underline" textLength="22" x="420" y="935.6748">api</text><text fill="#000000" font-family="sans-serif" font-size="14" lengthAdjust="spacing" textLength="66" x="446" y="935.6748">/ Handler</text><rect fill="#E2E2F0" height="30.2969" rx="2.5" ry="2.5" style="stroke:#181818;stroke-width:0.5;" width="134" x="581" y="56.1328"/><text fill="#000000" font-family="sans-serif" font-size="14" lengthAdjust="spacing" text-decoration="underline" textLength="54" x="588" y="76.1279">domain</text><text fill="#000000" font-family="sans-serif" font-size="14" lengthAdjust="spacing" textLength="62" x="646" y="76.1279">/ Service</text><rect fill="#E2E2F0" height="30.2969" rx="2.5" ry="2.5" style="stroke:#181818;stroke-width:0.5;" width="134" x="581" y="915.6797"/><text fill="#000000" font-family="sans-serif" font-size="14" lengthAdjust="spacing" text-decoration="underline" textLength="54" x="588" y="935.6748">domain</text><text fill="#000000" font-family="sans-serif" font-size="14" lengthAdjust="spacing" textLength="62" x="646" y="935.6748">/ Service</text><rect fill="#E2E2F0" height="30.2969" rx="2.5" ry="2.5" style="stroke:#181818;stroke-width:0.5;" width="131" x="739.5" y="56.1328"/><text fill="#000000" font-family="sans-serif" font-size="14" lengthAdjust="spacing" text-decoration="underline" textLength="52" x="746.5" y="76.1279">models</text><text fill="#000000" font-family="sans-serif" font-size="14" lengthAdjust="spacing" textLength="61" x="802.5" y="76.1279">/ Facade</text><rect fill="#E2E2F0" height="30.2969" rx="2.5" ry="2.5" style="stroke:#181818;stroke-width:0.5;" width="131" x="739.5" y="915.6797"/><text fill="#000000" font-family="sans-serif" font-size="14" lengthAdjust="spacing" text-decoration="underline" textLength="52" x="746.5" y="935.6748">models</text><text fill="#000000" font-family="sans-serif" font-size="14" lengthAdjust="spacing" textLength="61" x="802.5" y="935.6748">/ Facade</text><text fill="#000000" font-family="sans-serif" font-size="14" lengthAdjust="spacing" textLength="128" x="1097" y="84.1279">TigerBeetle Client</text><ellipse cx="1164" cy="55.1328" fill="#E2E2F0" rx="12" ry="12" style="stroke:#181818;stroke-width:0.5;"/><polygon fill="#181818" points="1160,43.1328,1166,38.1328,1164,43.1328,1166,48.1328,1160,43.1328" style="stroke:#181818;stroke-width:1.0;"/><text fill="#000000" font-family="sans-serif" font-size="14" lengthAdjust="spacing" textLength="128" x="1097" y="928.6748">TigerBeetle Client</text><ellipse cx="1164" cy="947.9766" fill="#E2E2F0" rx="12" ry="12" style="stroke:#181818;stroke-width:0.5;"/><polygon fill="#181818" points="1160,935.9766,1166,930.9766,1164,935.9766,1166,940.9766,1160,935.9766" style="stroke:#181818;stroke-width:1.0;"/><rect fill="#E2E2F0" height="30.2969" style="stroke:#181818;stroke-width:0.5;" width="145" x="1317.5" y="52.1328"/><rect fill="#E2E2F0" height="30.2969" style="stroke:#181818;stroke-width:0.5;" width="145" x="1313.5" y="56.1328"/><text fill="#000000" font-family="sans-serif" font-size="14" lengthAdjust="spacing" textLength="131" x="1320.5" y="76.1279">TigerBeetle Nodes</text><rect fill="#E2E2F0" height="30.2969" style="stroke:#181818;stroke-width:0.5;" width="145" x="1317.5" y="915.6797"/><rect fill="#E2E2F0" height="30.2969" style="stroke:#181818;stroke-width:0.5;" width="145" x="1313.5" y="919.6797"/><text fill="#000000" font-family="sans-serif" font-size="14" lengthAdjust="spacing" textLength="131" x="1320.5" y="939.6748">TigerBeetle Nodes</text><text fill="#000000" font-family="sans-serif" font-size="14" lengthAdjust="spacing" textLength="101" x="1492.5" y="84.1279">central-ledger</text><path d="M1528,35.1328 C1528,25.1328 1546,25.1328 1546,25.1328 C1546,25.1328 1564,25.1328 1564,35.1328 L1564,61.1328 C1564,71.1328 1546,71.1328 1546,71.1328 C1546,71.1328 1528,71.1328 1528,61.1328 L1528,35.1328 " fill="#E2E2F0" style="stroke:#181818;stroke-width:1.5;"/><path d="M1528,35.1328 C1528,45.1328 1546,45.1328 1546,45.1328 C1546,45.1328 1564,45.1328 1564,35.1328 " fill="none" style="stroke:#181818;stroke-width:1.5;"/><text fill="#000000" font-family="sans-serif" font-size="14" lengthAdjust="spacing" textLength="101" x="1492.5" y="928.6748">central-ledger</text><path d="M1528,941.9766 C1528,931.9766 1546,931.9766 1546,931.9766 C1546,931.9766 1564,931.9766 1564,941.9766 L1564,967.9766 C1564,977.9766 1546,977.9766 1546,977.9766 C1546,977.9766 1528,977.9766 1528,967.9766 L1528,941.9766 " fill="#E2E2F0" style="stroke:#181818;stroke-width:1.5;"/><path d="M1528,941.9766 C1528,951.9766 1546,951.9766 1546,951.9766 C1546,951.9766 1564,951.9766 1564,941.9766 " fill="none" style="stroke:#181818;stroke-width:1.5;"/><text fill="#000000" font-family="sans-serif" font-size="14" lengthAdjust="spacing" textLength="39" x="1609.5" y="84.1279">Redis</text><path d="M1614,35.1328 C1614,25.1328 1632,25.1328 1632,25.1328 C1632,25.1328 1650,25.1328 1650,35.1328 L1650,61.1328 C1650,71.1328 1632,71.1328 1632,71.1328 C1632,71.1328 1614,71.1328 1614,61.1328 L1614,35.1328 " fill="#E2E2F0" style="stroke:#181818;stroke-width:1.5;"/><path d="M1614,35.1328 C1614,45.1328 1632,45.1328 1632,45.1328 C1632,45.1328 1650,45.1328 1650,35.1328 " fill="none" style="stroke:#181818;stroke-width:1.5;"/><text fill="#000000" font-family="sans-serif" font-size="14" lengthAdjust="spacing" textLength="39" x="1609.5" y="928.6748">Redis</text><path d="M1614,941.9766 C1614,931.9766 1632,931.9766 1632,931.9766 C1632,931.9766 1650,931.9766 1650,941.9766 L1650,967.9766 C1650,977.9766 1632,977.9766 1632,977.9766 C1632,977.9766 1614,977.9766 1614,967.9766 L1614,941.9766 " fill="#E2E2F0" style="stroke:#181818;stroke-width:1.5;"/><path d="M1614,941.9766 C1614,951.9766 1632,951.9766 1632,951.9766 C1632,951.9766 1650,951.9766 1650,941.9766 " fill="none" style="stroke:#181818;stroke-width:1.5;"/><path d="M9,102.4297 L9,142.4297 L163,142.4297 L163,112.4297 L153,102.4297 L9,102.4297 " fill="#FEFFDD" style="stroke:#181818;stroke-width:0.5;"/><path d="M153,102.4297 L153,112.4297 L163,112.4297 L153,102.4297 " fill="#FEFFDD" style="stroke:#181818;stroke-width:0.5;"/><ellipse cx="20.5" cy="115.0625" fill="#000000" rx="2.5" ry="2.5" style="stroke:#000000;stroke-width:0.0;"/><text fill="#000000" font-family="sans-serif" font-size="13" lengthAdjust="spacing" textLength="120" x="28" y="119.4966">Participant Bank A</text><ellipse cx="20.5" cy="130.1953" fill="#000000" rx="2.5" ry="2.5" style="stroke:#000000;stroke-width:0.0;"/><text fill="#000000" font-family="sans-serif" font-size="13" lengthAdjust="spacing" textLength="120" x="28" y="134.6294">Participant Bank B</text><path d="M147,152.6953 L147,177.6953 L356,177.6953 L356,162.6953 L346,152.6953 L147,152.6953 " fill="#FEFFDD" style="stroke:#181818;stroke-width:0.5;"/><path d="M346,152.6953 L346,162.6953 L356,162.6953 L346,152.6953 " fill="#FEFFDD" style="stroke:#181818;stroke-width:0.5;"/><text fill="#000000" font-family="sans-serif" font-size="13" lengthAdjust="spacing" textLength="188" x="153" y="169.7622">REST API deployed in NodeJS</text><path d="M349,187.8281 L349,227.8281 L583,227.8281 L583,197.8281 L573,187.8281 L349,187.8281 " fill="#FEFFDD" style="stroke:#181818;stroke-width:0.5;"/><path d="M573,187.8281 L573,197.8281 L583,197.8281 L573,187.8281 " fill="#FEFFDD" style="stroke:#181818;stroke-width:0.5;"/><text fill="#000000" font-family="sans-serif" font-size="13" lengthAdjust="spacing" textLength="172" x="355" y="204.895">JSON request decoded and</text><text fill="#000000" font-family="sans-serif" font-size="13" lengthAdjust="spacing" textLength="213" x="355" y="220.0278">sent for processing via a handler</text><path d="M531,238.0938 L531,278.0938 L765,278.0938 L765,248.0938 L755,238.0938 L531,238.0938 " fill="#FEFFDD" style="stroke:#181818;stroke-width:0.5;"/><path d="M755,238.0938 L755,248.0938 L765,248.0938 L755,238.0938 " fill="#FEFFDD" style="stroke:#181818;stroke-width:0.5;"/><text fill="#000000" font-family="sans-serif" font-size="13" lengthAdjust="spacing" textLength="213" x="537" y="255.1606">Domain folder where the service</text><text fill="#000000" font-family="sans-serif" font-size="13" lengthAdjust="spacing" textLength="148" x="537" y="270.2935">functions are exposed.</text><path d="M668,288.3594 L668,328.3594 L941,328.3594 L941,298.3594 L931,288.3594 L668,288.3594 " fill="#FEFFDD" style="stroke:#181818;stroke-width:0.5;"/><path d="M931,288.3594 L931,298.3594 L941,298.3594 L931,288.3594 " fill="#FEFFDD" style="stroke:#181818;stroke-width:0.5;"/><text fill="#000000" font-family="sans-serif" font-size="13" lengthAdjust="spacing" textLength="252" x="674" y="305.4263">Facade for storing/retrieving data from</text><text fill="#000000" font-family="sans-serif" font-size="13" lengthAdjust="spacing" textLength="151" x="674" y="320.5591">MySQL and TigerBeetle</text><path d="M10,340.625 L189,340.625 L189,347.7578 L179,357.7578 L10,357.7578 L10,340.625 " fill="#EEEEEE" style="stroke:#000000;stroke-width:1.5;"/><rect fill="none" height="559.0547" style="stroke:#000000;stroke-width:1.5;" width="1599.5" x="10" y="340.625"/><text fill="#000000" font-family="sans-serif" font-size="13" font-weight="bold" lengthAdjust="spacing" textLength="134" x="25" y="353.6919">Create Participant</text><polygon fill="#181818" points="240,390.0234,250,394.0234,240,398.0234,244,394.0234" style="stroke:#181818;stroke-width:1.0;"/><line style="stroke:#181818;stroke-width:1.0;" x1="86" x2="246" y1="394.0234" y2="394.0234"/><text fill="#000000" font-family="sans-serif" font-size="13" font-weight="bold" lengthAdjust="spacing" textLength="9" x="93" y="381.3911">1</text><text fill="#000000" font-family="sans-serif" font-size="13" font-style="italic" lengthAdjust="spacing" textLength="32" x="106" y="373.8247">JSON</text><text fill="#000000" font-family="sans-serif" font-size="13" lengthAdjust="spacing" textLength="4" x="138" y="373.8247"> </text><text fill="#000000" font-family="sans-serif" font-size="13" font-weight="bold" lengthAdjust="spacing" textLength="129" x="106" y="388.9575">(participant data)</text><polygon fill="#181818" points="454,434.2891,464,438.2891,454,442.2891,458,438.2891" style="stroke:#181818;stroke-width:1.0;"/><line style="stroke:#181818;stroke-width:1.0;" x1="252" x2="460" y1="438.2891" y2="438.2891"/><text fill="#000000" font-family="sans-serif" font-size="13" font-weight="bold" lengthAdjust="spacing" textLength="9" x="259" y="425.6567">2</text><text fill="#000000" font-family="sans-serif" font-size="13" font-style="italic" lengthAdjust="spacing" textLength="173" x="272" y="418.0903">/jmeter/participants/create</text><text fill="#000000" font-family="sans-serif" font-size="13" lengthAdjust="spacing" textLength="4" x="445" y="418.0903"> </text><text fill="#000000" font-family="sans-serif" font-size="13" lengthAdjust="spacing" textLength="111" x="272" y="433.2231">Handler invoked.</text><polygon fill="#181818" points="636,463.4219,646,467.4219,636,471.4219,640,467.4219" style="stroke:#181818;stroke-width:1.0;"/><line style="stroke:#181818;stroke-width:1.0;" x1="466" x2="642" y1="467.4219" y2="467.4219"/><text fill="#000000" font-family="sans-serif" font-size="13" font-weight="bold" lengthAdjust="spacing" textLength="9" x="473" y="462.356">3</text><text fill="#000000" font-family="sans-serif" font-size="13" lengthAdjust="spacing" textLength="145" x="486" y="462.356">Service layer invoked.</text><polygon fill="#181818" points="793,492.5547,803,496.5547,793,500.5547,797,496.5547" style="stroke:#181818;stroke-width:1.0;"/><line style="stroke:#181818;stroke-width:1.0;" x1="648" x2="799" y1="496.5547" y2="496.5547"/><text fill="#000000" font-family="sans-serif" font-size="13" font-weight="bold" lengthAdjust="spacing" textLength="9" x="655" y="491.4888">4</text><text fill="#000000" font-family="sans-serif" font-size="13" lengthAdjust="spacing" textLength="120" x="668" y="491.4888">Domain to facade.</text><polygon fill="#181818" points="1534,582.2188,1544,586.2188,1534,590.2188,1538,586.2188" style="stroke:#181818;stroke-width:1.0;"/><line style="stroke:#181818;stroke-width:1.0;" x1="805" x2="1540" y1="586.2188" y2="586.2188"/><text fill="#000000" font-family="sans-serif" font-size="13" font-weight="bold" lengthAdjust="spacing" textLength="9" x="812" y="550.8872">5</text><text fill="#000000" font-family="sans-serif" font-size="13" font-weight="bold" lengthAdjust="spacing" textLength="61" x="825" y="520.6216">[ASYNC]</text><ellipse cx="830.5" cy="531.3203" fill="#000000" rx="2.5" ry="2.5" style="stroke:#000000;stroke-width:0.0;"/><text fill="#000000" font-family="sans-serif" font-size="13" font-style="italic" lengthAdjust="spacing" textLength="70" x="838" y="535.7544">participant</text><text fill="#000000" font-family="sans-serif" font-size="13" lengthAdjust="spacing" textLength="4" x="908" y="535.7544">,</text><ellipse cx="830.5" cy="546.4531" fill="#000000" rx="2.5" ry="2.5" style="stroke:#000000;stroke-width:0.0;"/><text fill="#000000" font-family="sans-serif" font-size="13" font-style="italic" lengthAdjust="spacing" textLength="128" x="838" y="550.8872">participantCurrency</text><text fill="#000000" font-family="sans-serif" font-size="13" lengthAdjust="spacing" textLength="4" x="966" y="550.8872">,</text><ellipse cx="830.5" cy="561.5859" fill="#000000" rx="2.5" ry="2.5" style="stroke:#000000;stroke-width:0.0;"/><text fill="#000000" font-family="sans-serif" font-size="13" font-style="italic" lengthAdjust="spacing" textLength="122" x="838" y="566.02">participantPosition</text><text fill="#000000" font-family="sans-serif" font-size="13" lengthAdjust="spacing" textLength="128" x="829" y="581.1528">DB records created.</text><polygon fill="#181818" points="1152,611.3516,1162,615.3516,1152,619.3516,1156,615.3516" style="stroke:#181818;stroke-width:1.0;"/><line style="stroke:#181818;stroke-width:1.0;" x1="805" x2="1158" y1="615.3516" y2="615.3516"/><text fill="#000000" font-family="sans-serif" font-size="13" font-weight="bold" lengthAdjust="spacing" textLength="9" x="812" y="610.2856">6</text><text fill="#000000" font-family="sans-serif" font-size="13" font-style="italic" lengthAdjust="spacing" textLength="51" x="825" y="610.2856">account</text><text fill="#000000" font-family="sans-serif" font-size="13" lengthAdjust="spacing" textLength="267" x="880" y="610.2856">create requested via the CL-TB interface.</text><polygon fill="#181818" points="1376,655.6172,1386,659.6172,1376,663.6172,1380,659.6172" style="stroke:#181818;stroke-width:1.0;"/><line style="stroke:#181818;stroke-width:1.0;" x1="1164" x2="1382" y1="659.6172" y2="659.6172"/><text fill="#000000" font-family="sans-serif" font-size="13" font-weight="bold" lengthAdjust="spacing" textLength="9" x="1171" y="646.9849">7</text><text fill="#000000" font-family="sans-serif" font-size="13" font-style="italic" lengthAdjust="spacing" textLength="51" x="1184" y="639.4185">account</text><text fill="#000000" font-family="sans-serif" font-size="13" lengthAdjust="spacing" textLength="132" x="1239" y="639.4185">Distributed to nodes</text><text fill="#000000" font-family="sans-serif" font-size="13" lengthAdjust="spacing" textLength="146" x="1188" y="654.5513">via the state machine.</text><line style="stroke:#181818;stroke-width:1.0;" x1="1388" x2="1430" y1="688.75" y2="688.75"/><line style="stroke:#181818;stroke-width:1.0;" x1="1430" x2="1430" y1="688.75" y2="701.75"/><line style="stroke:#181818;stroke-width:1.0;" x1="1389" x2="1430" y1="701.75" y2="701.75"/><polygon fill="#181818" points="1399,697.75,1389,701.75,1399,705.75,1395,701.75" style="stroke:#181818;stroke-width:1.0;"/><text fill="#000000" font-family="sans-serif" font-size="13" font-weight="bold" lengthAdjust="spacing" textLength="9" x="1395" y="683.6841">8</text><text fill="#000000" font-family="sans-serif" font-size="13" lengthAdjust="spacing" textLength="131" x="1408" y="683.6841">Replication via VSR.</text><polygon fill="#181818" points="816,726.8828,806,730.8828,816,734.8828,812,730.8828" style="stroke:#181818;stroke-width:1.0;"/><line style="stroke:#181818;stroke-width:1.0;stroke-dasharray:2.0,2.0;" x1="810" x2="1163" y1="730.8828" y2="730.8828"/><text fill="#000000" font-family="sans-serif" font-size="13" font-weight="bold" lengthAdjust="spacing" textLength="9" x="822" y="725.8169">9</text><text fill="#000000" font-family="sans-serif" font-size="13" font-style="italic" lengthAdjust="spacing" textLength="51" x="835" y="725.8169">account</text><text fill="#000000" font-family="sans-serif" font-size="13" lengthAdjust="spacing" textLength="76" x="890" y="725.8169">create error</text><text fill="#000000" font-family="sans-serif" font-size="13" font-weight="bold" lengthAdjust="spacing" textLength="48" x="970" y="725.8169">(none)</text><polygon fill="#181818" points="816,771.1484,806,775.1484,816,779.1484,812,775.1484" style="stroke:#181818;stroke-width:1.0;"/><polygon fill="#181818" points="1534,771.1484,1544,775.1484,1534,779.1484,1538,775.1484" style="stroke:#181818;stroke-width:1.0;"/><line style="stroke:#181818;stroke-width:1.0;stroke-dasharray:2.0,2.0;" x1="810" x2="1540" y1="775.1484" y2="775.1484"/><text fill="#000000" font-family="sans-serif" font-size="13" font-weight="bold" lengthAdjust="spacing" textLength="18" x="822" y="762.5161">10</text><text fill="#000000" font-family="sans-serif" font-size="13" font-weight="bold" lengthAdjust="spacing" textLength="61" x="844" y="754.9497">[ASYNC]</text><text fill="#000000" font-family="sans-serif" font-size="13" lengthAdjust="spacing" textLength="218" x="848" y="770.0825">Database transaction committed.</text><polygon fill="#181818" points="659,800.2813,649,804.2813,659,808.2813,655,804.2813" style="stroke:#181818;stroke-width:1.0;"/><line style="stroke:#181818;stroke-width:1.0;stroke-dasharray:2.0,2.0;" x1="653" x2="804" y1="804.2813" y2="804.2813"/><text fill="#000000" font-family="sans-serif" font-size="13" font-weight="bold" lengthAdjust="spacing" textLength="18" x="665" y="799.2153">11</text><text fill="#000000" font-family="sans-serif" font-size="13" lengthAdjust="spacing" textLength="88" x="687" y="799.2153">Return result.</text><polygon fill="#181818" points="477,829.4141,467,833.4141,477,837.4141,473,833.4141" style="stroke:#181818;stroke-width:1.0;"/><line style="stroke:#181818;stroke-width:1.0;stroke-dasharray:2.0,2.0;" x1="471" x2="647" y1="833.4141" y2="833.4141"/><text fill="#000000" font-family="sans-serif" font-size="13" font-weight="bold" lengthAdjust="spacing" textLength="18" x="483" y="828.3481">12</text><text fill="#000000" font-family="sans-serif" font-size="13" lengthAdjust="spacing" textLength="88" x="505" y="828.3481">Return result.</text><polygon fill="#181818" points="263,858.5469,253,862.5469,263,866.5469,259,862.5469" style="stroke:#181818;stroke-width:1.0;"/><line style="stroke:#181818;stroke-width:1.0;stroke-dasharray:2.0,2.0;" x1="257" x2="465" y1="862.5469" y2="862.5469"/><text fill="#000000" font-family="sans-serif" font-size="13" font-weight="bold" lengthAdjust="spacing" textLength="18" x="269" y="857.481">13</text><text fill="#000000" font-family="sans-serif" font-size="13" lengthAdjust="spacing" textLength="88" x="291" y="857.481">Return result.</text><polygon fill="#181818" points="97,887.6797,87,891.6797,97,895.6797,93,891.6797" style="stroke:#181818;stroke-width:1.0;"/><line style="stroke:#181818;stroke-width:1.0;stroke-dasharray:2.0,2.0;" x1="91" x2="251" y1="891.6797" y2="891.6797"/><text fill="#000000" font-family="sans-serif" font-size="13" font-weight="bold" lengthAdjust="spacing" textLength="18" x="103" y="886.6138">14</text><text fill="#000000" font-family="sans-serif" font-size="13" lengthAdjust="spacing" textLength="88" x="125" y="886.6138">Return result.</text><!--MD5=[9b961f5d407151cfc940ba0ea65d9cf5]
@startuml

actor "Mojaloop Adapter" as dfsp
note over dfsp
    * Participant Bank A
    * Participant Bank B
end note

box CentralLedger #FFFFF9
    participant "**API**" as cl_api
    participant "__api__ / Handler" as cl_handler
    participant "__domain__ / Service" as cl_domain
    participant "__models__ / Facade" as cl_facade

    note over cl_api
        REST API deployed in NodeJS
    end note

    note over cl_handler
        JSON request decoded and
        sent for processing via a handler
    end note

    note over cl_domain
        Domain folder where the service
        functions are exposed.
    end note

    note over cl_facade
        Facade for storing/retrieving data from
        MySQL and TigerBeetle
    end note
end box

box Storage #F9FFF9
	control "TigerBeetle Client" as tb_client
	collections "TigerBeetle Nodes" as tb_nodes
	database "central-ledger" as cl_db
	database "Redis" as redis_cache
end box

autonumber
group Create Participant
    dfsp -> cl_api : //JSON// \n**(participant data)**
    cl_api -> cl_handler : ///jmeter/participants/create// \nHandler invoked.
    cl_handler -> cl_domain : Service layer invoked.
    cl_domain -> cl_facade : Domain to facade.
    cl_facade -> cl_db : **[ASYNC]**\n*//participant//, \n*//participantCurrency//, \n*//participantPosition// \n DB records created.
    cl_facade -> tb_client : //account// create requested via the CL-TB interface.
    tb_client -> tb_nodes : //account// Distributed to nodes\n via the state machine.
    tb_nodes -> tb_nodes : Replication via VSR.
    tb_client - -> cl_facade : //account// create error **(none)**
    cl_db <- -> cl_facade : **[ASYNC]**\n Database transaction committed.
    cl_facade - -> cl_domain : Return result.
    cl_domain - -> cl_handler : Return result.
    cl_handler - -> cl_api : Return result.
    cl_api - -> dfsp : Return result.
end

@enduml

PlantUML version 1.2022.4(Sat Apr 09 15:29:17 CEST 2022)
(GPL source distribution)
Java Runtime: OpenJDK Runtime Environment
JVM: OpenJDK 64-Bit Server VM
Default Encoding: UTF-8
Language: en
Country: US
--></g></svg>