<?xml version="1.0" encoding="UTF-8" standalone="no"?><svg xmlns="http://www.w3.org/2000/svg" xmlns:xlink="http://www.w3.org/1999/xlink" contentStyleType="text/css" height="958px" preserveAspectRatio="none" style="width:1513px;height:958px;background:#FFFFFF;" version="1.1" viewBox="0 0 1513 958" width="1513px" zoomAndPan="magnify"><defs/><g><rect fill="#FFFFF9" height="946.7109" style="stroke:#181818;stroke-width:0.5;" width="609" x="192" y="6"/><text fill="#000000" font-family="sans-serif" font-size="13" font-weight="bold" lengthAdjust="spacing" textLength="108" x="440" y="18.0669">Central-Ledger</text><rect fill="#F9FFF9" height="946.7109" style="stroke:#181818;stroke-width:0.5;" width="491.5" x="1009.5" y="6"/><text fill="#000000" font-family="sans-serif" font-size="13" font-weight="bold" lengthAdjust="spacing" textLength="57" x="1224.25" y="18.0669">Storage</text><rect height="515.7891" style="stroke:#000000;stroke-width:1.5;fill:none;" width="1497" x="10" y="340.625"/><line style="stroke:#181818;stroke-width:0.5;fill:none;stroke-dasharray:5.0,5.0;" x1="86" x2="86" y1="87.4297" y2="873.4141"/><line style="stroke:#181818;stroke-width:0.5;fill:none;stroke-dasharray:5.0,5.0;" x1="216" x2="216" y1="87.4297" y2="873.4141"/><line style="stroke:#181818;stroke-width:0.5;fill:none;stroke-dasharray:5.0,5.0;" x1="448" x2="448" y1="87.4297" y2="873.4141"/><line style="stroke:#181818;stroke-width:0.5;fill:none;stroke-dasharray:5.0,5.0;" x1="589" x2="589" y1="87.4297" y2="873.4141"/><line style="stroke:#181818;stroke-width:0.5;fill:none;stroke-dasharray:5.0,5.0;" x1="731" x2="731" y1="87.4297" y2="873.4141"/><line style="stroke:#181818;stroke-width:0.5;fill:none;stroke-dasharray:5.0,5.0;" x1="1080.5" x2="1080.5" y1="87.4297" y2="873.4141"/><line style="stroke:#181818;stroke-width:0.5;fill:none;stroke-dasharray:5.0,5.0;" x1="1247" x2="1247" y1="87.4297" y2="873.4141"/><line style="stroke:#181818;stroke-width:0.5;fill:none;stroke-dasharray:5.0,5.0;" x1="1388" x2="1388" y1="87.4297" y2="873.4141"/><line style="stroke:#181818;stroke-width:0.5;fill:none;stroke-dasharray:5.0,5.0;" x1="1474" x2="1474" y1="87.4297" y2="873.4141"/><text fill="#000000" font-family="sans-serif" font-size="14" lengthAdjust="spacing" textLength="126" x="20" y="84.1279">Mojaloop Adapter</text><ellipse cx="86" cy="19.6328" fill="#E2E2F0" rx="8" ry="8" style="stroke:#181818;stroke-width:0.5;"/><path d="M86,27.6328 L86,54.6328 M73,35.6328 L99,35.6328 M86,54.6328 L73,69.6328 M86,54.6328 L99,69.6328 " fill="none" style="stroke:#181818;stroke-width:0.5;"/><text fill="#000000" font-family="sans-serif" font-size="14" lengthAdjust="spacing" textLength="126" x="20" y="885.4092">Mojaloop Adapter</text><ellipse cx="86" cy="897.2109" fill="#E2E2F0" rx="8" ry="8" style="stroke:#181818;stroke-width:0.5;"/><path d="M86,905.2109 L86,932.2109 M73,913.2109 L99,913.2109 M86,932.2109 L73,947.2109 M86,932.2109 L99,947.2109 " fill="none" style="stroke:#181818;stroke-width:0.5;"/><rect fill="#E2E2F0" height="30.2969" rx="2.5" ry="2.5" style="stroke:#181818;stroke-width:0.5;" width="40" x="196" y="56.1328"/><text fill="#000000" font-family="sans-serif" font-size="14" font-weight="bold" lengthAdjust="spacing" textLength="26" x="203" y="76.1279">API</text><rect fill="#E2E2F0" height="30.2969" rx="2.5" ry="2.5" style="stroke:#181818;stroke-width:0.5;" width="40" x="196" y="872.4141"/><text fill="#000000" font-family="sans-serif" font-size="14" font-weight="bold" lengthAdjust="spacing" textLength="26" x="203" y="892.4092">API</text><rect fill="#E2E2F0" height="30.2969" rx="2.5" ry="2.5" style="stroke:#181818;stroke-width:0.5;" width="106" x="395" y="56.1328"/><text fill="#000000" font-family="sans-serif" font-size="14" lengthAdjust="spacing" text-decoration="underline" textLength="22" x="402" y="76.1279">api</text><text fill="#000000" font-family="sans-serif" font-size="14" lengthAdjust="spacing" textLength="66" x="428" y="76.1279">/ Handler</text><rect fill="#E2E2F0" height="30.2969" rx="2.5" ry="2.5" style="stroke:#181818;stroke-width:0.5;" width="106" x="395" y="872.4141"/><text fill="#000000" font-family="sans-serif" font-size="14" lengthAdjust="spacing" text-decoration="underline" textLength="22" x="402" y="892.4092">api</text><text fill="#000000" font-family="sans-serif" font-size="14" lengthAdjust="spacing" textLength="66" x="428" y="892.4092">/ Handler</text><rect fill="#E2E2F0" height="30.2969" rx="2.5" ry="2.5" style="stroke:#181818;stroke-width:0.5;" width="134" x="522" y="56.1328"/><text fill="#000000" font-family="sans-serif" font-size="14" lengthAdjust="spacing" text-decoration="underline" textLength="54" x="529" y="76.1279">domain</text><text fill="#000000" font-family="sans-serif" font-size="14" lengthAdjust="spacing" textLength="62" x="587" y="76.1279">/ Service</text><rect fill="#E2E2F0" height="30.2969" rx="2.5" ry="2.5" style="stroke:#181818;stroke-width:0.5;" width="134" x="522" y="872.4141"/><text fill="#000000" font-family="sans-serif" font-size="14" lengthAdjust="spacing" text-decoration="underline" textLength="54" x="529" y="892.4092">domain</text><text fill="#000000" font-family="sans-serif" font-size="14" lengthAdjust="spacing" textLength="62" x="587" y="892.4092">/ Service</text><rect fill="#E2E2F0" height="30.2969" rx="2.5" ry="2.5" style="stroke:#181818;stroke-width:0.5;" width="131" x="666" y="56.1328"/><text fill="#000000" font-family="sans-serif" font-size="14" lengthAdjust="spacing" text-decoration="underline" textLength="52" x="673" y="76.1279">models</text><text fill="#000000" font-family="sans-serif" font-size="14" lengthAdjust="spacing" textLength="61" x="729" y="76.1279">/ Facade</text><rect fill="#E2E2F0" height="30.2969" rx="2.5" ry="2.5" style="stroke:#181818;stroke-width:0.5;" width="131" x="666" y="872.4141"/><text fill="#000000" font-family="sans-serif" font-size="14" lengthAdjust="spacing" text-decoration="underline" textLength="52" x="673" y="892.4092">models</text><text fill="#000000" font-family="sans-serif" font-size="14" lengthAdjust="spacing" textLength="61" x="729" y="892.4092">/ Facade</text><text fill="#000000" font-family="sans-serif" font-size="14" lengthAdjust="spacing" textLength="128" x="1013.5" y="84.1279">TigerBeetle Client</text><ellipse cx="1080.5" cy="55.1328" fill="#E2E2F0" rx="12" ry="12" style="stroke:#181818;stroke-width:0.5;"/><polygon fill="#181818" points="1076.5,43.1328,1082.5,38.1328,1080.5,43.1328,1082.5,48.1328,1076.5,43.1328" style="stroke:#181818;stroke-width:1.0;"/><text fill="#000000" font-family="sans-serif" font-size="14" lengthAdjust="spacing" textLength="128" x="1013.5" y="885.4092">TigerBeetle Client</text><ellipse cx="1080.5" cy="904.7109" fill="#E2E2F0" rx="12" ry="12" style="stroke:#181818;stroke-width:0.5;"/><polygon fill="#181818" points="1076.5,892.7109,1082.5,887.7109,1080.5,892.7109,1082.5,897.7109,1076.5,892.7109" style="stroke:#181818;stroke-width:1.0;"/><rect fill="#E2E2F0" height="30.2969" style="stroke:#181818;stroke-width:0.5;" width="151" x="1174" y="52.1328"/><rect fill="#E2E2F0" height="30.2969" style="stroke:#181818;stroke-width:0.5;" width="151" x="1170" y="56.1328"/><text fill="#000000" font-family="sans-serif" font-size="14" lengthAdjust="spacing" textLength="137" x="1177" y="76.1279">TigerBeetle Cluster</text><rect fill="#E2E2F0" height="30.2969" style="stroke:#181818;stroke-width:0.5;" width="151" x="1174" y="872.4141"/><rect fill="#E2E2F0" height="30.2969" style="stroke:#181818;stroke-width:0.5;" width="151" x="1170" y="876.4141"/><text fill="#000000" font-family="sans-serif" font-size="14" lengthAdjust="spacing" textLength="137" x="1177" y="896.4092">TigerBeetle Cluster</text><text fill="#000000" font-family="sans-serif" font-size="14" lengthAdjust="spacing" textLength="101" x="1335" y="84.1279">central-ledger</text><path d="M1370.5,35.1328 C1370.5,25.1328 1388.5,25.1328 1388.5,25.1328 C1388.5,25.1328 1406.5,25.1328 1406.5,35.1328 L1406.5,61.1328 C1406.5,71.1328 1388.5,71.1328 1388.5,71.1328 C1388.5,71.1328 1370.5,71.1328 1370.5,61.1328 L1370.5,35.1328 " fill="#E2E2F0" style="stroke:#181818;stroke-width:1.5;"/><path d="M1370.5,35.1328 C1370.5,45.1328 1388.5,45.1328 1388.5,45.1328 C1388.5,45.1328 1406.5,45.1328 1406.5,35.1328 " fill="none" style="stroke:#181818;stroke-width:1.5;"/><text fill="#000000" font-family="sans-serif" font-size="14" lengthAdjust="spacing" textLength="101" x="1335" y="885.4092">central-ledger</text><path d="M1370.5,898.7109 C1370.5,888.7109 1388.5,888.7109 1388.5,888.7109 C1388.5,888.7109 1406.5,888.7109 1406.5,898.7109 L1406.5,924.7109 C1406.5,934.7109 1388.5,934.7109 1388.5,934.7109 C1388.5,934.7109 1370.5,934.7109 1370.5,924.7109 L1370.5,898.7109 " fill="#E2E2F0" style="stroke:#181818;stroke-width:1.5;"/><path d="M1370.5,898.7109 C1370.5,908.7109 1388.5,908.7109 1388.5,908.7109 C1388.5,908.7109 1406.5,908.7109 1406.5,898.7109 " fill="none" style="stroke:#181818;stroke-width:1.5;"/><text fill="#000000" font-family="sans-serif" font-size="14" lengthAdjust="spacing" textLength="39" x="1452" y="84.1279">Redis</text><path d="M1456.5,35.1328 C1456.5,25.1328 1474.5,25.1328 1474.5,25.1328 C1474.5,25.1328 1492.5,25.1328 1492.5,35.1328 L1492.5,61.1328 C1492.5,71.1328 1474.5,71.1328 1474.5,71.1328 C1474.5,71.1328 1456.5,71.1328 1456.5,61.1328 L1456.5,35.1328 " fill="#E2E2F0" style="stroke:#181818;stroke-width:1.5;"/><path d="M1456.5,35.1328 C1456.5,45.1328 1474.5,45.1328 1474.5,45.1328 C1474.5,45.1328 1492.5,45.1328 1492.5,35.1328 " fill="none" style="stroke:#181818;stroke-width:1.5;"/><text fill="#000000" font-family="sans-serif" font-size="14" lengthAdjust="spacing" textLength="39" x="1452" y="885.4092">Redis</text><path d="M1456.5,898.7109 C1456.5,888.7109 1474.5,888.7109 1474.5,888.7109 C1474.5,888.7109 1492.5,888.7109 1492.5,898.7109 L1492.5,924.7109 C1492.5,934.7109 1474.5,934.7109 1474.5,934.7109 C1474.5,934.7109 1456.5,934.7109 1456.5,924.7109 L1456.5,898.7109 " fill="#E2E2F0" style="stroke:#181818;stroke-width:1.5;"/><path d="M1456.5,898.7109 C1456.5,908.7109 1474.5,908.7109 1474.5,908.7109 C1474.5,908.7109 1492.5,908.7109 1492.5,898.7109 " fill="none" style="stroke:#181818;stroke-width:1.5;"/><path d="M9,102.4297 L9,142.4297 L163,142.4297 L163,112.4297 L153,102.4297 L9,102.4297 " fill="#FEFFDD" style="stroke:#181818;stroke-width:0.5;"/><path d="M153,102.4297 L153,112.4297 L163,112.4297 L153,102.4297 " fill="#FEFFDD" style="stroke:#181818;stroke-width:0.5;"/><ellipse cx="20.5" cy="115.0625" fill="#000000" rx="2.5" ry="2.5" style="stroke:#000000;stroke-width:0.0;"/><text fill="#000000" font-family="sans-serif" font-size="13" lengthAdjust="spacing" textLength="120" x="28" y="119.4966">Participant Bank A</text><ellipse cx="20.5" cy="130.1953" fill="#000000" rx="2.5" ry="2.5" style="stroke:#000000;stroke-width:0.0;"/><text fill="#000000" font-family="sans-serif" font-size="13" lengthAdjust="spacing" textLength="120" x="28" y="134.6294">Participant Bank B</text><path d="M111,152.6953 L111,177.6953 L320,177.6953 L320,162.6953 L310,152.6953 L111,152.6953 " fill="#FEFFDD" style="stroke:#181818;stroke-width:0.5;"/><path d="M310,152.6953 L310,162.6953 L320,162.6953 L310,152.6953 " fill="#FEFFDD" style="stroke:#181818;stroke-width:0.5;"/><text fill="#000000" font-family="sans-serif" font-size="13" lengthAdjust="spacing" textLength="188" x="117" y="169.7622">REST API deployed in NodeJS</text><path d="M331,187.8281 L331,227.8281 L565,227.8281 L565,197.8281 L555,187.8281 L331,187.8281 " fill="#FEFFDD" style="stroke:#181818;stroke-width:0.5;"/><path d="M555,187.8281 L555,197.8281 L565,197.8281 L555,187.8281 " fill="#FEFFDD" style="stroke:#181818;stroke-width:0.5;"/><text fill="#000000" font-family="sans-serif" font-size="13" lengthAdjust="spacing" textLength="172" x="337" y="204.895">JSON request decoded and</text><text fill="#000000" font-family="sans-serif" font-size="13" lengthAdjust="spacing" textLength="213" x="337" y="220.0278">sent for processing via a handler</text><path d="M472,238.0938 L472,278.0938 L706,278.0938 L706,248.0938 L696,238.0938 L472,238.0938 " fill="#FEFFDD" style="stroke:#181818;stroke-width:0.5;"/><path d="M696,238.0938 L696,248.0938 L706,248.0938 L696,238.0938 " fill="#FEFFDD" style="stroke:#181818;stroke-width:0.5;"/><text fill="#000000" font-family="sans-serif" font-size="13" lengthAdjust="spacing" textLength="213" x="478" y="255.1606">Domain folder where the service</text><text fill="#000000" font-family="sans-serif" font-size="13" lengthAdjust="spacing" textLength="148" x="478" y="270.2935">functions are exposed.</text><path d="M595,288.3594 L595,328.3594 L868,328.3594 L868,298.3594 L858,288.3594 L595,288.3594 " fill="#FEFFDD" style="stroke:#181818;stroke-width:0.5;"/><path d="M858,288.3594 L858,298.3594 L868,298.3594 L858,288.3594 " fill="#FEFFDD" style="stroke:#181818;stroke-width:0.5;"/><text fill="#000000" font-family="sans-serif" font-size="13" lengthAdjust="spacing" textLength="252" x="601" y="305.4263">Facade for storing/retrieving data from</text><text fill="#000000" font-family="sans-serif" font-size="13" lengthAdjust="spacing" textLength="151" x="601" y="320.5591">MySQL and TigerBeetle</text><path d="M10,340.625 L263,340.625 L263,347.7578 L253,357.7578 L10,357.7578 L10,340.625 " fill="#EEEEEE" style="stroke:#000000;stroke-width:1.5;"/><rect fill="none" height="515.7891" style="stroke:#000000;stroke-width:1.5;" width="1497" x="10" y="340.625"/><text fill="#000000" font-family="sans-serif" font-size="13" font-weight="bold" lengthAdjust="spacing" textLength="208" x="25" y="353.6919">Lookup Participant by Name</text><polygon fill="#181818" points="204,390.0234,214,394.0234,204,398.0234,208,394.0234" style="stroke:#181818;stroke-width:1.0;"/><line style="stroke:#181818;stroke-width:1.0;" x1="86" x2="210" y1="394.0234" y2="394.0234"/><text fill="#000000" font-family="sans-serif" font-size="13" font-weight="bold" lengthAdjust="spacing" textLength="9" x="93" y="381.3911">1</text><text fill="#000000" font-family="sans-serif" font-size="13" font-style="italic" lengthAdjust="spacing" textLength="32" x="106" y="373.8247">JSON</text><text fill="#000000" font-family="sans-serif" font-size="13" lengthAdjust="spacing" textLength="4" x="138" y="373.8247"> </text><text fill="#000000" font-family="sans-serif" font-size="13" font-weight="bold" lengthAdjust="spacing" textLength="53" x="106" y="388.9575">(name)</text><polygon fill="#181818" points="436,434.2891,446,438.2891,436,442.2891,440,438.2891" style="stroke:#181818;stroke-width:1.0;"/><line style="stroke:#181818;stroke-width:1.0;" x1="216" x2="442" y1="438.2891" y2="438.2891"/><text fill="#000000" font-family="sans-serif" font-size="13" font-weight="bold" lengthAdjust="spacing" textLength="9" x="223" y="425.6567">2</text><text fill="#000000" font-family="sans-serif" font-size="13" font-style="italic" lengthAdjust="spacing" textLength="132" x="236" y="418.0903">/jmeter/participants/</text><text fill="#000000" font-family="sans-serif" font-size="13" font-style="italic" font-weight="bold" lengthAdjust="spacing" textLength="59" x="368" y="418.0903">{name}</text><text fill="#000000" font-family="sans-serif" font-size="13" lengthAdjust="spacing" textLength="4" x="427" y="418.0903"> </text><text fill="#000000" font-family="sans-serif" font-size="13" lengthAdjust="spacing" textLength="107" x="236" y="433.2231">Handler invoked</text><polygon fill="#181818" points="577,463.4219,587,467.4219,577,471.4219,581,467.4219" style="stroke:#181818;stroke-width:1.0;"/><line style="stroke:#181818;stroke-width:1.0;" x1="448" x2="583" y1="467.4219" y2="467.4219"/><text fill="#000000" font-family="sans-serif" font-size="13" font-weight="bold" lengthAdjust="spacing" textLength="9" x="455" y="462.356">3</text><text fill="#000000" font-family="sans-serif" font-size="13" lengthAdjust="spacing" textLength="104" x="468" y="462.356">Service invoked</text><polygon fill="#181818" points="719.5,492.5547,729.5,496.5547,719.5,500.5547,723.5,496.5547" style="stroke:#181818;stroke-width:1.0;"/><line style="stroke:#181818;stroke-width:1.0;" x1="589" x2="725.5" y1="496.5547" y2="496.5547"/><text fill="#000000" font-family="sans-serif" font-size="13" font-weight="bold" lengthAdjust="spacing" textLength="9" x="596" y="491.4888">4</text><text fill="#000000" font-family="sans-serif" font-size="13" lengthAdjust="spacing" textLength="102" x="609" y="491.4888">Facade invoked</text><polygon fill="#181818" points="742.5,521.6875,732.5,525.6875,742.5,529.6875,738.5,525.6875" style="stroke:#181818;stroke-width:1.0;"/><polygon fill="#181818" points="1462.5,521.6875,1472.5,525.6875,1462.5,529.6875,1466.5,525.6875" style="stroke:#181818;stroke-width:1.0;"/><line style="stroke:#181818;stroke-width:1.0;" x1="736.5" x2="1468.5" y1="525.6875" y2="525.6875"/><text fill="#000000" font-family="sans-serif" font-size="13" font-weight="bold" lengthAdjust="spacing" textLength="9" x="748.5" y="520.6216">5</text><text fill="#000000" font-family="sans-serif" font-size="13" lengthAdjust="spacing" textLength="356" x="761.5" y="520.6216">Account id for participant is obtained via Redis lookup.</text><polygon fill="#181818" points="742.5,581.0859,732.5,585.0859,742.5,589.0859,738.5,585.0859" style="stroke:#181818;stroke-width:1.0;"/><polygon fill="#181818" points="1376.5,581.0859,1386.5,585.0859,1376.5,589.0859,1380.5,585.0859" style="stroke:#181818;stroke-width:1.0;"/><line style="stroke:#181818;stroke-width:1.0;stroke-dasharray:2.0,2.0;" x1="736.5" x2="1382.5" y1="585.0859" y2="585.0859"/><text fill="#000000" font-family="sans-serif" font-size="13" lengthAdjust="spacing" textLength="305" x="748.5" y="549.7544">If the participant data is not available in Redis,</text><text fill="#000000" font-family="sans-serif" font-size="13" lengthAdjust="spacing" textLength="435" x="748.5" y="564.8872">a database lookup is performed followed by storing the participant</text><text fill="#000000" font-family="sans-serif" font-size="13" lengthAdjust="spacing" textLength="131" x="748.5" y="580.02">data in Redis cache.</text><polygon fill="#181818" points="1068.5,610.2188,1078.5,614.2188,1068.5,618.2188,1072.5,614.2188" style="stroke:#181818;stroke-width:1.0;"/><line style="stroke:#181818;stroke-width:1.0;" x1="731.5" x2="1074.5" y1="614.2188" y2="614.2188"/><text fill="#000000" font-family="sans-serif" font-size="13" font-weight="bold" lengthAdjust="spacing" textLength="9" x="738.5" y="609.1528">6</text><text fill="#000000" font-family="sans-serif" font-size="13" lengthAdjust="spacing" textLength="312" x="751.5" y="609.1528">Account lookup using id via the CL-TB interface.</text><polygon fill="#181818" points="1091.5,654.4844,1081.5,658.4844,1091.5,662.4844,1087.5,658.4844" style="stroke:#181818;stroke-width:1.0;"/><polygon fill="#181818" points="1235.5,654.4844,1245.5,658.4844,1235.5,662.4844,1239.5,658.4844" style="stroke:#181818;stroke-width:1.0;"/><line style="stroke:#181818;stroke-width:1.0;" x1="1085.5" x2="1241.5" y1="658.4844" y2="658.4844"/><text fill="#000000" font-family="sans-serif" font-size="13" font-weight="bold" lengthAdjust="spacing" textLength="9" x="1097.5" y="645.8521">7</text><text fill="#000000" font-family="sans-serif" font-size="13" lengthAdjust="spacing" textLength="75" x="1110.5" y="638.2856">TigerBeetle</text><text fill="#000000" font-family="sans-serif" font-size="13" font-style="italic" lengthAdjust="spacing" textLength="51" x="1189.5" y="638.2856">account</text><text fill="#000000" font-family="sans-serif" font-size="13" lengthAdjust="spacing" textLength="53" x="1114.5" y="653.4185">fetched.</text><polygon fill="#181818" points="742.5,683.6172,732.5,687.6172,742.5,691.6172,738.5,687.6172" style="stroke:#181818;stroke-width:1.0;"/><line style="stroke:#181818;stroke-width:1.0;stroke-dasharray:2.0,2.0;" x1="736.5" x2="1079.5" y1="687.6172" y2="687.6172"/><text fill="#000000" font-family="sans-serif" font-size="13" font-weight="bold" lengthAdjust="spacing" textLength="9" x="748.5" y="682.5513">8</text><text fill="#000000" font-family="sans-serif" font-size="13" font-style="italic" lengthAdjust="spacing" textLength="51" x="761.5" y="682.5513">account</text><text fill="#000000" font-family="sans-serif" font-size="13" lengthAdjust="spacing" textLength="92" x="816.5" y="682.5513">data returned.</text><polygon fill="#181818" points="742.5,727.8828,732.5,731.8828,742.5,735.8828,738.5,731.8828" style="stroke:#181818;stroke-width:1.0;"/><polygon fill="#181818" points="1376.5,727.8828,1386.5,731.8828,1376.5,735.8828,1380.5,731.8828" style="stroke:#181818;stroke-width:1.0;"/><line style="stroke:#181818;stroke-width:1.0;" x1="736.5" x2="1382.5" y1="731.8828" y2="731.8828"/><text fill="#000000" font-family="sans-serif" font-size="13" font-weight="bold" lengthAdjust="spacing" textLength="9" x="748.5" y="719.2505">9</text><text fill="#000000" font-family="sans-serif" font-size="13" lengthAdjust="spacing" textLength="429" x="761.5" y="711.6841">Additional meta-data is fetched from the CentralLedger database.</text><text fill="#000000" font-family="sans-serif" font-size="13" font-style="italic" font-weight="bold" lengthAdjust="spacing" textLength="75" x="761.5" y="726.8169">OPTIONAL</text><polygon fill="#181818" points="600,757.0156,590,761.0156,600,765.0156,596,761.0156" style="stroke:#181818;stroke-width:1.0;"/><line style="stroke:#181818;stroke-width:1.0;stroke-dasharray:2.0,2.0;" x1="594" x2="730.5" y1="761.0156" y2="761.0156"/><text fill="#000000" font-family="sans-serif" font-size="13" font-weight="bold" lengthAdjust="spacing" textLength="18" x="606" y="755.9497">10</text><text fill="#000000" font-family="sans-serif" font-size="13" lengthAdjust="spacing" textLength="84" x="628" y="755.9497">Return result</text><polygon fill="#181818" points="459,786.1484,449,790.1484,459,794.1484,455,790.1484" style="stroke:#181818;stroke-width:1.0;"/><line style="stroke:#181818;stroke-width:1.0;stroke-dasharray:2.0,2.0;" x1="453" x2="588" y1="790.1484" y2="790.1484"/><text fill="#000000" font-family="sans-serif" font-size="13" font-weight="bold" lengthAdjust="spacing" textLength="18" x="465" y="785.0825">11</text><text fill="#000000" font-family="sans-serif" font-size="13" lengthAdjust="spacing" textLength="84" x="487" y="785.0825">Return result</text><polygon fill="#181818" points="227,815.2813,217,819.2813,227,823.2813,223,819.2813" style="stroke:#181818;stroke-width:1.0;"/><line style="stroke:#181818;stroke-width:1.0;stroke-dasharray:2.0,2.0;" x1="221" x2="447" y1="819.2813" y2="819.2813"/><text fill="#000000" font-family="sans-serif" font-size="13" font-weight="bold" lengthAdjust="spacing" textLength="18" x="233" y="814.2153">12</text><text fill="#000000" font-family="sans-serif" font-size="13" lengthAdjust="spacing" textLength="84" x="255" y="814.2153">Return result</text><polygon fill="#181818" points="97,844.4141,87,848.4141,97,852.4141,93,848.4141" style="stroke:#181818;stroke-width:1.0;"/><line style="stroke:#181818;stroke-width:1.0;stroke-dasharray:2.0,2.0;" x1="91" x2="215" y1="848.4141" y2="848.4141"/><text fill="#000000" font-family="sans-serif" font-size="13" font-weight="bold" lengthAdjust="spacing" textLength="18" x="103" y="843.3481">13</text><text fill="#000000" font-family="sans-serif" font-size="13" lengthAdjust="spacing" textLength="84" x="125" y="843.3481">Return result</text><!--MD5=[ce9807c944e2cf364d1dab32e3ba5be3]
@startuml

actor "Mojaloop Adapter" as dfsp
note over dfsp
    * Participant Bank A
    * Participant Bank B
end note

box Central-Ledger #FFFFF9
    participant "**API**" as cl_api
    participant "__api__ / Handler" as cl_handler
    participant "__domain__ / Service" as cl_domain
    participant "__models__ / Facade" as cl_facade

    note over cl_api
        REST API deployed in NodeJS
    end note

    note over cl_handler
        JSON request decoded and
        sent for processing via a handler
    end note

    note over cl_domain
        Domain folder where the service
        functions are exposed.
    end note

    note over cl_facade
        Facade for storing/retrieving data from
        MySQL and TigerBeetle
    end note
end box

box Storage #F9FFF9
    control "TigerBeetle Client" as tb_client
    collections "TigerBeetle Cluster" as tb_nodes
    database "central-ledger" as cl_db
    database "Redis" as redis_cache
end box

autonumber
group Lookup Participant by Name
    dfsp -> cl_api : //JSON// \n**(name)**
    cl_api -> cl_handler : ///jmeter/participants/**{name}**// \nHandler invoked
    cl_handler -> cl_domain : Service invoked
    cl_domain -> cl_facade : Facade invoked
    cl_facade <-> redis_cache : Account id for participant is obtained via Redis lookup.
    autonumber stop
    cl_facade <- -> cl_db : If the participant data is not available in Redis, \na database lookup is performed followed by storing the participant\ndata in Redis cache.
    autonumber resume
    cl_facade -> tb_client : Account lookup using id via the CL-TB interface.
    tb_client <-> tb_nodes : TigerBeetle //account//\n fetched.
    tb_client - -> cl_facade : //account// data returned.
    cl_facade <-> cl_db : Additional meta-data is fetched from the CentralLedger database.\n**//OPTIONAL//**
    cl_facade - -> cl_domain : Return result
    cl_domain - -> cl_handler : Return result
    cl_handler - -> cl_api : Return result
    cl_api - -> dfsp : Return result
end

@enduml

PlantUML version 1.2022.4(Sat Apr 09 15:29:17 CEST 2022)
(GPL source distribution)
Java Runtime: OpenJDK Runtime Environment
JVM: OpenJDK 64-Bit Server VM
Default Encoding: UTF-8
Language: en
Country: US
--></g></svg>