<?xml version="1.0" encoding="UTF-8" standalone="no"?><svg xmlns="http://www.w3.org/2000/svg" xmlns:xlink="http://www.w3.org/1999/xlink" contentStyleType="text/css" height="807px" preserveAspectRatio="none" style="width:1491px;height:807px;background:#FFFFFF;" version="1.1" viewBox="0 0 1491 807" width="1491px" zoomAndPan="magnify"><defs/><g><rect fill="#FFFFF9" height="788.0078" style="stroke:#181818;stroke-width:0.5;" width="567.5" x="203.5" y="6"/><text fill="#000000" font-family="sans-serif" font-size="13" font-weight="bold" lengthAdjust="spacing" textLength="95" x="437.75" y="19.4951">Central-Ledger</text><rect fill="#F9FFF9" height="788.0078" style="stroke:#181818;stroke-width:0.5;" width="525.5" x="956" y="6"/><text fill="#000000" font-family="sans-serif" font-size="13" font-weight="bold" lengthAdjust="spacing" textLength="50" x="1191.75" y="19.4951">Storage</text><rect height="603.4375" style="stroke:#000000;stroke-width:1.5;fill:none;" width="1425.5" x="10" y="106.9609"/><line style="stroke:#181818;stroke-width:0.5;fill:none;stroke-dasharray:5.0,5.0;" x1="82" x2="82" y1="89.9609" y2="727.3984"/><line style="stroke:#181818;stroke-width:0.5;fill:none;stroke-dasharray:5.0,5.0;" x1="225.5" x2="225.5" y1="89.9609" y2="727.3984"/><line style="stroke:#181818;stroke-width:0.5;fill:none;stroke-dasharray:5.0,5.0;" x1="415.5" x2="415.5" y1="89.9609" y2="727.3984"/><line style="stroke:#181818;stroke-width:0.5;fill:none;stroke-dasharray:5.0,5.0;" x1="571" x2="571" y1="89.9609" y2="727.3984"/><line style="stroke:#181818;stroke-width:0.5;fill:none;stroke-dasharray:5.0,5.0;" x1="707" x2="707" y1="89.9609" y2="727.3984"/><line style="stroke:#181818;stroke-width:0.5;fill:none;stroke-dasharray:5.0,5.0;" x1="1023" x2="1023" y1="89.9609" y2="727.3984"/><line style="stroke:#181818;stroke-width:0.5;fill:none;stroke-dasharray:5.0,5.0;" x1="1222.5" x2="1222.5" y1="89.9609" y2="727.3984"/><line style="stroke:#181818;stroke-width:0.5;fill:none;stroke-dasharray:5.0,5.0;" x1="1363.5" x2="1363.5" y1="89.9609" y2="727.3984"/><line style="stroke:#181818;stroke-width:0.5;fill:none;stroke-dasharray:5.0,5.0;" x1="1456.5" x2="1456.5" y1="89.9609" y2="727.3984"/><rect fill="#B0D5FF" height="31.6094" rx="2.5" ry="2.5" style="stroke:#181818;stroke-width:0.5;" width="125" x="20" y="57.3516"/><text fill="#000000" font-family="sans-serif" font-size="14" lengthAdjust="spacing" textLength="111" x="27" y="78.8848">Mojaloop Adapter</text><rect fill="#B0D5FF" height="31.6094" rx="2.5" ry="2.5" style="stroke:#181818;stroke-width:0.5;" width="125" x="20" y="726.3984"/><text fill="#000000" font-family="sans-serif" font-size="14" lengthAdjust="spacing" textLength="111" x="27" y="747.9316">Mojaloop Adapter</text><rect fill="#E2E2F0" height="31.6094" rx="2.5" ry="2.5" style="stroke:#181818;stroke-width:0.5;" width="36" x="207.5" y="57.3516"/><text fill="#000000" font-family="sans-serif" font-size="14" font-weight="bold" lengthAdjust="spacing" textLength="22" x="214.5" y="78.8848">API</text><rect fill="#E2E2F0" height="31.6094" rx="2.5" ry="2.5" style="stroke:#181818;stroke-width:0.5;" width="36" x="207.5" y="726.3984"/><text fill="#000000" font-family="sans-serif" font-size="14" font-weight="bold" lengthAdjust="spacing" textLength="22" x="214.5" y="747.9316">API</text><rect fill="#E2E2F0" height="31.6094" rx="2.5" ry="2.5" style="stroke:#181818;stroke-width:0.5;" width="94" x="368.5" y="57.3516"/><text fill="#000000" font-family="sans-serif" font-size="14" lengthAdjust="spacing" text-decoration="underline" textLength="19" x="375.5" y="78.8848">api</text><text fill="#000000" font-family="sans-serif" font-size="14" lengthAdjust="spacing" textLength="57" x="398.5" y="78.8848">/ Handler</text><rect fill="#E2E2F0" height="31.6094" rx="2.5" ry="2.5" style="stroke:#181818;stroke-width:0.5;" width="94" x="368.5" y="726.3984"/><text fill="#000000" font-family="sans-serif" font-size="14" lengthAdjust="spacing" text-decoration="underline" textLength="19" x="375.5" y="747.9316">api</text><text fill="#000000" font-family="sans-serif" font-size="14" lengthAdjust="spacing" textLength="57" x="398.5" y="747.9316">/ Handler</text><rect fill="#E2E2F0" height="31.6094" rx="2.5" ry="2.5" style="stroke:#181818;stroke-width:0.5;" width="119" x="512" y="57.3516"/><text fill="#000000" font-family="sans-serif" font-size="14" lengthAdjust="spacing" text-decoration="underline" textLength="46" x="519" y="78.8848">domain</text><text fill="#000000" font-family="sans-serif" font-size="14" lengthAdjust="spacing" textLength="55" x="569" y="78.8848">/ Service</text><rect fill="#E2E2F0" height="31.6094" rx="2.5" ry="2.5" style="stroke:#181818;stroke-width:0.5;" width="119" x="512" y="726.3984"/><text fill="#000000" font-family="sans-serif" font-size="14" lengthAdjust="spacing" text-decoration="underline" textLength="46" x="519" y="747.9316">domain</text><text fill="#000000" font-family="sans-serif" font-size="14" lengthAdjust="spacing" textLength="55" x="569" y="747.9316">/ Service</text><rect fill="#E2E2F0" height="31.6094" rx="2.5" ry="2.5" style="stroke:#181818;stroke-width:0.5;" width="119" x="648" y="57.3516"/><text fill="#000000" font-family="sans-serif" font-size="14" lengthAdjust="spacing" text-decoration="underline" textLength="45" x="655" y="78.8848">models</text><text fill="#000000" font-family="sans-serif" font-size="14" lengthAdjust="spacing" textLength="56" x="704" y="78.8848">/ Facade</text><rect fill="#E2E2F0" height="31.6094" rx="2.5" ry="2.5" style="stroke:#181818;stroke-width:0.5;" width="119" x="648" y="726.3984"/><text fill="#000000" font-family="sans-serif" font-size="14" lengthAdjust="spacing" text-decoration="underline" textLength="45" x="655" y="747.9316">models</text><text fill="#000000" font-family="sans-serif" font-size="14" lengthAdjust="spacing" textLength="56" x="704" y="747.9316">/ Facade</text><rect fill="#D5E8D4" height="31.6094" rx="2.5" ry="2.5" style="stroke:#181818;stroke-width:0.5;" width="127" x="960" y="57.3516"/><text fill="#000000" font-family="sans-serif" font-size="14" lengthAdjust="spacing" textLength="113" x="967" y="78.8848">TigerBeetle Client</text><rect fill="#D5E8D4" height="31.6094" rx="2.5" ry="2.5" style="stroke:#181818;stroke-width:0.5;" width="127" x="960" y="726.3984"/><text fill="#000000" font-family="sans-serif" font-size="14" lengthAdjust="spacing" textLength="113" x="967" y="747.9316">TigerBeetle Client</text><rect fill="#D5E8D4" height="31.6094" style="stroke:#181818;stroke-width:0.5;" width="136" x="1156.5" y="53.3516"/><rect fill="#D5E8D4" height="31.6094" style="stroke:#181818;stroke-width:0.5;" width="136" x="1152.5" y="57.3516"/><text fill="#000000" font-family="sans-serif" font-size="14" lengthAdjust="spacing" textLength="122" x="1159.5" y="78.8848">TigerBeetle Cluster</text><rect fill="#D5E8D4" height="31.6094" style="stroke:#181818;stroke-width:0.5;" width="136" x="1156.5" y="726.3984"/><rect fill="#D5E8D4" height="31.6094" style="stroke:#181818;stroke-width:0.5;" width="136" x="1152.5" y="730.3984"/><text fill="#000000" font-family="sans-serif" font-size="14" lengthAdjust="spacing" textLength="122" x="1159.5" y="751.9316">TigerBeetle Cluster</text><text fill="#000000" font-family="sans-serif" font-size="14" lengthAdjust="spacing" textLength="117" x="1302.5" y="86.8848">SQL / PostgreSQL</text><path d="M1346,36.3516 C1346,26.3516 1364,26.3516 1364,26.3516 C1364,26.3516 1382,26.3516 1382,36.3516 L1382,62.3516 C1382,72.3516 1364,72.3516 1364,72.3516 C1364,72.3516 1346,72.3516 1346,62.3516 L1346,36.3516 " fill="#DAE8FC" style="stroke:#181818;stroke-width:1.5;"/><path d="M1346,36.3516 C1346,46.3516 1364,46.3516 1364,46.3516 C1364,46.3516 1382,46.3516 1382,36.3516 " fill="none" style="stroke:#181818;stroke-width:1.5;"/><text fill="#000000" font-family="sans-serif" font-size="14" lengthAdjust="spacing" textLength="117" x="1302.5" y="740.9316">SQL / PostgreSQL</text><path d="M1346,754.0078 C1346,744.0078 1364,744.0078 1364,744.0078 C1364,744.0078 1382,744.0078 1382,754.0078 L1382,780.0078 C1382,790.0078 1364,790.0078 1364,790.0078 C1364,790.0078 1346,790.0078 1346,780.0078 L1346,754.0078 " fill="#DAE8FC" style="stroke:#181818;stroke-width:1.5;"/><path d="M1346,754.0078 C1346,764.0078 1364,764.0078 1364,764.0078 C1364,764.0078 1382,764.0078 1382,754.0078 " fill="none" style="stroke:#181818;stroke-width:1.5;"/><text fill="#000000" font-family="sans-serif" font-size="14" lengthAdjust="spacing" textLength="36" x="1435.5" y="86.8848">Redis</text><path d="M1438.5,36.3516 C1438.5,26.3516 1456.5,26.3516 1456.5,26.3516 C1456.5,26.3516 1474.5,26.3516 1474.5,36.3516 L1474.5,62.3516 C1474.5,72.3516 1456.5,72.3516 1456.5,72.3516 C1456.5,72.3516 1438.5,72.3516 1438.5,62.3516 L1438.5,36.3516 " fill="#E1D5E7" style="stroke:#181818;stroke-width:1.5;"/><path d="M1438.5,36.3516 C1438.5,46.3516 1456.5,46.3516 1456.5,46.3516 C1456.5,46.3516 1474.5,46.3516 1474.5,36.3516 " fill="none" style="stroke:#181818;stroke-width:1.5;"/><text fill="#000000" font-family="sans-serif" font-size="14" lengthAdjust="spacing" textLength="36" x="1435.5" y="740.9316">Redis</text><path d="M1438.5,754.0078 C1438.5,744.0078 1456.5,744.0078 1456.5,744.0078 C1456.5,744.0078 1474.5,744.0078 1474.5,754.0078 L1474.5,780.0078 C1474.5,790.0078 1456.5,790.0078 1456.5,790.0078 C1456.5,790.0078 1438.5,790.0078 1438.5,780.0078 L1438.5,754.0078 " fill="#E1D5E7" style="stroke:#181818;stroke-width:1.5;"/><path d="M1438.5,754.0078 C1438.5,764.0078 1456.5,764.0078 1456.5,764.0078 C1456.5,764.0078 1474.5,764.0078 1474.5,754.0078 " fill="none" style="stroke:#181818;stroke-width:1.5;"/><path d="M10,106.9609 L170,106.9609 L170,115.3125 L160,125.3125 L10,125.3125 L10,106.9609 " fill="#EEEEEE" style="stroke:#000000;stroke-width:1.5;"/><rect fill="none" height="603.4375" style="stroke:#000000;stroke-width:1.5;" width="1425.5" x="10" y="106.9609"/><text fill="#000000" font-family="sans-serif" font-size="13" font-weight="bold" lengthAdjust="spacing" textLength="115" x="25" y="121.4561">Create Participant</text><polygon fill="#181818" points="213.5,160.0156,223.5,164.0156,213.5,168.0156,217.5,164.0156" style="stroke:#181818;stroke-width:1.0;"/><line style="stroke:#181818;stroke-width:1.0;" x1="82.5" x2="219.5" y1="164.0156" y2="164.0156"/><text fill="#000000" font-family="sans-serif" font-size="13" font-weight="bold" lengthAdjust="spacing" textLength="7" x="89.5" y="150.9834">1</text><text fill="#000000" font-family="sans-serif" font-size="13" font-style="italic" lengthAdjust="spacing" textLength="35" x="100.5" y="142.8076">JSON</text><text fill="#000000" font-family="sans-serif" font-size="13" lengthAdjust="spacing" textLength="4" x="135.5" y="142.8076"> </text><text fill="#000000" font-family="sans-serif" font-size="13" font-weight="bold" lengthAdjust="spacing" textLength="108" x="100.5" y="159.1592">(participant data)</text><polygon fill="#181818" points="403.5,206.7188,413.5,210.7188,403.5,214.7188,407.5,210.7188" style="stroke:#181818;stroke-width:1.0;"/><line style="stroke:#181818;stroke-width:1.0;" x1="225.5" x2="409.5" y1="210.7188" y2="210.7188"/><text fill="#000000" font-family="sans-serif" font-size="13" font-weight="bold" lengthAdjust="spacing" textLength="7" x="232.5" y="197.6865">2</text><text fill="#000000" font-family="sans-serif" font-size="13" font-style="italic" lengthAdjust="spacing" textLength="151" x="243.5" y="189.5107">/jmeter/participants/create</text><text fill="#000000" font-family="sans-serif" font-size="13" lengthAdjust="spacing" textLength="4" x="394.5" y="189.5107"> </text><text fill="#000000" font-family="sans-serif" font-size="13" lengthAdjust="spacing" textLength="91" x="243.5" y="205.8623">Handler invoked</text><polygon fill="#181818" points="559.5,237.0703,569.5,241.0703,559.5,245.0703,563.5,241.0703" style="stroke:#181818;stroke-width:1.0;"/><line style="stroke:#181818;stroke-width:1.0;" x1="415.5" x2="565.5" y1="241.0703" y2="241.0703"/><text fill="#000000" font-family="sans-serif" font-size="13" font-weight="bold" lengthAdjust="spacing" textLength="7" x="422.5" y="236.2139">3</text><text fill="#000000" font-family="sans-serif" font-size="13" lengthAdjust="spacing" textLength="121" x="433.5" y="236.2139">Service layer invoked</text><polygon fill="#181818" points="695.5,267.4219,705.5,271.4219,695.5,275.4219,699.5,271.4219" style="stroke:#181818;stroke-width:1.0;"/><line style="stroke:#181818;stroke-width:1.0;" x1="571.5" x2="701.5" y1="271.4219" y2="271.4219"/><text fill="#000000" font-family="sans-serif" font-size="13" font-weight="bold" lengthAdjust="spacing" textLength="7" x="578.5" y="266.5654">4</text><text fill="#000000" font-family="sans-serif" font-size="13" lengthAdjust="spacing" textLength="101" x="589.5" y="266.5654">Domain to facade</text><polygon fill="#181818" points="1352,363.1797,1362,367.1797,1352,371.1797,1356,367.1797" style="stroke:#181818;stroke-width:1.0;"/><line style="stroke:#181818;stroke-width:1.0;" x1="707.5" x2="1358" y1="367.1797" y2="367.1797"/><text fill="#000000" font-family="sans-serif" font-size="13" font-weight="bold" lengthAdjust="spacing" textLength="7" x="714.5" y="329.6201">5</text><text fill="#000000" font-family="sans-serif" font-size="13" font-weight="bold" lengthAdjust="spacing" textLength="52" x="725.5" y="296.917">[ASYNC]</text><text fill="#000000" font-family="sans-serif" font-size="13" lengthAdjust="spacing" textLength="4" x="777.5" y="296.917"> </text><text fill="#000000" font-family="sans-serif" font-size="13" lengthAdjust="spacing" textLength="107" x="725.5" y="313.2686">Create DB records</text><ellipse cx="731" cy="324.9766" fill="#000000" rx="2.5" ry="2.5" style="stroke:#000000;stroke-width:0.0;"/><text fill="#000000" font-family="sans-serif" font-size="13" font-style="italic" lengthAdjust="spacing" textLength="60" x="738.5" y="329.6201">participant</text><text fill="#000000" font-family="sans-serif" font-size="13" lengthAdjust="spacing" textLength="4" x="798.5" y="329.6201">,</text><ellipse cx="731" cy="341.3281" fill="#000000" rx="2.5" ry="2.5" style="stroke:#000000;stroke-width:0.0;"/><text fill="#000000" font-family="sans-serif" font-size="13" font-style="italic" lengthAdjust="spacing" textLength="111" x="738.5" y="345.9717">participantCurrency</text><text fill="#000000" font-family="sans-serif" font-size="13" lengthAdjust="spacing" textLength="4" x="849.5" y="345.9717">,</text><ellipse cx="731" cy="357.6797" fill="#000000" rx="2.5" ry="2.5" style="stroke:#000000;stroke-width:0.0;"/><text fill="#000000" font-family="sans-serif" font-size="13" font-style="italic" lengthAdjust="spacing" textLength="107" x="738.5" y="362.3232">participantPosition</text><polygon fill="#181818" points="1011.5,393.5313,1021.5,397.5313,1011.5,401.5313,1015.5,397.5313" style="stroke:#181818;stroke-width:1.0;"/><line style="stroke:#181818;stroke-width:1.0;" x1="707.5" x2="1017.5" y1="397.5313" y2="397.5313"/><text fill="#000000" font-family="sans-serif" font-size="13" font-weight="bold" lengthAdjust="spacing" textLength="7" x="714.5" y="392.6748">6</text><text fill="#000000" font-family="sans-serif" font-size="13" font-style="italic" lengthAdjust="spacing" textLength="46" x="725.5" y="392.6748">account</text><text fill="#000000" font-family="sans-serif" font-size="13" lengthAdjust="spacing" textLength="231" x="775.5" y="392.6748">create requested via the CL-TB interface</text><polygon fill="#181818" points="1210.5,440.2344,1220.5,444.2344,1210.5,448.2344,1214.5,444.2344" style="stroke:#181818;stroke-width:1.0;"/><line style="stroke:#181818;stroke-width:1.0;" x1="1023.5" x2="1216.5" y1="444.2344" y2="444.2344"/><text fill="#000000" font-family="sans-serif" font-size="13" font-weight="bold" lengthAdjust="spacing" textLength="7" x="1030.5" y="431.2021">7</text><text fill="#000000" font-family="sans-serif" font-size="13" font-style="italic" lengthAdjust="spacing" textLength="46" x="1041.5" y="423.0264">account</text><text fill="#000000" font-family="sans-serif" font-size="13" lengthAdjust="spacing" textLength="114" x="1091.5" y="423.0264">distributed to nodes</text><text fill="#000000" font-family="sans-serif" font-size="13" lengthAdjust="spacing" textLength="123" x="1045.5" y="439.3779">via the state machine</text><line style="stroke:#181818;stroke-width:1.0;" x1="1222.5" x2="1264.5" y1="490.9375" y2="490.9375"/><line style="stroke:#181818;stroke-width:1.0;" x1="1264.5" x2="1264.5" y1="490.9375" y2="503.9375"/><line style="stroke:#181818;stroke-width:1.0;" x1="1223.5" x2="1264.5" y1="503.9375" y2="503.9375"/><polygon fill="#181818" points="1233.5,499.9375,1223.5,503.9375,1233.5,507.9375,1229.5,503.9375" style="stroke:#181818;stroke-width:1.0;"/><text fill="#000000" font-family="sans-serif" font-size="13" font-weight="bold" lengthAdjust="spacing" textLength="7" x="1229.5" y="477.9053">8</text><text fill="#000000" font-family="sans-serif" font-size="13" lengthAdjust="spacing" textLength="102" x="1240.5" y="469.7295">replication across</text><text fill="#000000" font-family="sans-serif" font-size="13" lengthAdjust="spacing" textLength="89" x="1240.5" y="486.0811">cluster via VSR</text><polygon fill="#181818" points="718.5,530.2891,708.5,534.2891,718.5,538.2891,714.5,534.2891" style="stroke:#181818;stroke-width:1.0;"/><line style="stroke:#181818;stroke-width:1.0;stroke-dasharray:2.0,2.0;" x1="712.5" x2="1022.5" y1="534.2891" y2="534.2891"/><text fill="#000000" font-family="sans-serif" font-size="13" font-weight="bold" lengthAdjust="spacing" textLength="7" x="724.5" y="529.4326">9</text><text fill="#000000" font-family="sans-serif" font-size="13" font-style="italic" lengthAdjust="spacing" textLength="46" x="735.5" y="529.4326">account</text><text fill="#000000" font-family="sans-serif" font-size="13" lengthAdjust="spacing" textLength="66" x="785.5" y="529.4326">create error</text><text fill="#000000" font-family="sans-serif" font-size="13" font-weight="bold" lengthAdjust="spacing" textLength="40" x="855.5" y="529.4326">(none)</text><polygon fill="#181818" points="718.5,576.9922,708.5,580.9922,718.5,584.9922,714.5,580.9922" style="stroke:#181818;stroke-width:1.0;"/><polygon fill="#181818" points="1352,576.9922,1362,580.9922,1352,584.9922,1356,580.9922" style="stroke:#181818;stroke-width:1.0;"/><line style="stroke:#181818;stroke-width:1.0;stroke-dasharray:2.0,2.0;" x1="712.5" x2="1358" y1="580.9922" y2="580.9922"/><text fill="#000000" font-family="sans-serif" font-size="13" font-weight="bold" lengthAdjust="spacing" textLength="14" x="724.5" y="567.96">10</text><text fill="#000000" font-family="sans-serif" font-size="13" font-weight="bold" lengthAdjust="spacing" textLength="52" x="742.5" y="559.7842">[ASYNC]</text><text fill="#000000" font-family="sans-serif" font-size="13" lengthAdjust="spacing" textLength="188" x="746.5" y="576.1357">Database transaction committed</text><polygon fill="#181818" points="582.5,607.3438,572.5,611.3438,582.5,615.3438,578.5,611.3438" style="stroke:#181818;stroke-width:1.0;"/><line style="stroke:#181818;stroke-width:1.0;stroke-dasharray:2.0,2.0;" x1="576.5" x2="706.5" y1="611.3438" y2="611.3438"/><text fill="#000000" font-family="sans-serif" font-size="13" font-weight="bold" lengthAdjust="spacing" textLength="14" x="588.5" y="606.4873">11</text><text fill="#000000" font-family="sans-serif" font-size="13" lengthAdjust="spacing" textLength="74" x="606.5" y="606.4873">Return result</text><polygon fill="#181818" points="426.5,637.6953,416.5,641.6953,426.5,645.6953,422.5,641.6953" style="stroke:#181818;stroke-width:1.0;"/><line style="stroke:#181818;stroke-width:1.0;stroke-dasharray:2.0,2.0;" x1="420.5" x2="570.5" y1="641.6953" y2="641.6953"/><text fill="#000000" font-family="sans-serif" font-size="13" font-weight="bold" lengthAdjust="spacing" textLength="14" x="432.5" y="636.8389">12</text><text fill="#000000" font-family="sans-serif" font-size="13" lengthAdjust="spacing" textLength="74" x="450.5" y="636.8389">Return result</text><polygon fill="#181818" points="236.5,668.0469,226.5,672.0469,236.5,676.0469,232.5,672.0469" style="stroke:#181818;stroke-width:1.0;"/><line style="stroke:#181818;stroke-width:1.0;stroke-dasharray:2.0,2.0;" x1="230.5" x2="414.5" y1="672.0469" y2="672.0469"/><text fill="#000000" font-family="sans-serif" font-size="13" font-weight="bold" lengthAdjust="spacing" textLength="14" x="242.5" y="667.1904">13</text><text fill="#000000" font-family="sans-serif" font-size="13" lengthAdjust="spacing" textLength="74" x="260.5" y="667.1904">Return result</text><polygon fill="#181818" points="93.5,698.3984,83.5,702.3984,93.5,706.3984,89.5,702.3984" style="stroke:#181818;stroke-width:1.0;"/><line style="stroke:#181818;stroke-width:1.0;stroke-dasharray:2.0,2.0;" x1="87.5" x2="224.5" y1="702.3984" y2="702.3984"/><text fill="#000000" font-family="sans-serif" font-size="13" font-weight="bold" lengthAdjust="spacing" textLength="14" x="99.5" y="697.542">14</text><text fill="#000000" font-family="sans-serif" font-size="13" lengthAdjust="spacing" textLength="74" x="117.5" y="697.542">Return result</text><!--MD5=[4d46d81265f34b49b4229c90d84356db]
@startuml

participant "Mojaloop Adapter" as dfsp #B0D5FF

box Central-Ledger #FFFFF9
    participant "**API**" as cl_api
    participant "__api__ / Handler" as cl_handler
    participant "__domain__ / Service" as cl_domain
    participant "__models__ / Facade" as cl_facade
end box

box Storage #F9FFF9
	Participant "TigerBeetle Client" as tb_client #D5E8D4
	collections "TigerBeetle Cluster" as tb_nodes #D5E8D4
	database "SQL / PostgreSQL" as cl_db #DAE8FC
	database "Redis" as redis_cache #E1D5E7
end box

autonumber
group Create Participant
    dfsp -> cl_api : //JSON// \n**(participant data)**
    cl_api -> cl_handler : ///jmeter/participants/create// \nHandler invoked
    cl_handler -> cl_domain : Service layer invoked
    cl_domain -> cl_facade : Domain to facade
    cl_facade -> cl_db : **[ASYNC]** \nCreate DB records \n*//participant//, \n*//participantCurrency//, \n*//participantPosition//
    cl_facade -> tb_client : //account// create requested via the CL-TB interface
    tb_client -> tb_nodes : //account// distributed to nodes\n via the state machine
    tb_nodes -> tb_nodes : replication across \ncluster via VSR
    tb_client - -> cl_facade : //account// create error **(none)**
    cl_db <- -> cl_facade : **[ASYNC]**\n Database transaction committed
    cl_facade - -> cl_domain : Return result
    cl_domain - -> cl_handler : Return result
    cl_handler - -> cl_api : Return result
    cl_api - -> dfsp : Return result
end

@enduml

PlantUML version 1.2022.4(Sat Apr 09 15:29:17 CAT 2022)
(GPL source distribution)
Java Runtime: OpenJDK Runtime Environment
JVM: OpenJDK 64-Bit Server VM
Default Encoding: Cp1252
Language: en
Country: ZA
--></g></svg>