<?xml version="1.0" encoding="UTF-8" standalone="no"?><svg xmlns="http://www.w3.org/2000/svg" xmlns:xlink="http://www.w3.org/1999/xlink" contentStyleType="text/css" height="994px" preserveAspectRatio="none" style="width:1661px;height:994px;background:#FFFFFF;" version="1.1" viewBox="0 0 1661 994" width="1661px" zoomAndPan="magnify"><defs/><g><rect fill="#FFFFF9" height="975.9766" style="stroke:#181818;stroke-width:0.5;" width="639.5" x="236" y="6"/><text fill="#000000" font-family="sans-serif" font-size="13" font-weight="bold" lengthAdjust="spacing" textLength="113" x="496.75" y="18.0669">Central-Ledger</text><rect fill="#F9FFF9" height="975.9766" style="stroke:#181818;stroke-width:0.5;" width="562.5" x="1090" y="6"/><text fill="#000000" font-family="sans-serif" font-size="13" font-weight="bold" lengthAdjust="spacing" textLength="61" x="1338.25" y="18.0669">Storage</text><rect height="559.0547" style="stroke:#000000;stroke-width:1.5;fill:none;" width="1593.5" x="10" y="340.625"/><line style="stroke:#181818;stroke-width:0.5;fill:none;stroke-dasharray:5.0,5.0;" x1="87" x2="87" y1="87.4297" y2="916.6797"/><line style="stroke:#181818;stroke-width:0.5;fill:none;stroke-dasharray:5.0,5.0;" x1="260" x2="260" y1="87.4297" y2="916.6797"/><line style="stroke:#181818;stroke-width:0.5;fill:none;stroke-dasharray:5.0,5.0;" x1="474" x2="474" y1="87.4297" y2="916.6797"/><line style="stroke:#181818;stroke-width:0.5;fill:none;stroke-dasharray:5.0,5.0;" x1="650.5" x2="650.5" y1="87.4297" y2="916.6797"/><line style="stroke:#181818;stroke-width:0.5;fill:none;stroke-dasharray:5.0,5.0;" x1="806.5" x2="806.5" y1="87.4297" y2="916.6797"/><line style="stroke:#181818;stroke-width:0.5;fill:none;stroke-dasharray:5.0,5.0;" x1="1163" x2="1163" y1="87.4297" y2="916.6797"/><line style="stroke:#181818;stroke-width:0.5;fill:none;stroke-dasharray:5.0,5.0;" x1="1385" x2="1385" y1="87.4297" y2="916.6797"/><line style="stroke:#181818;stroke-width:0.5;fill:none;stroke-dasharray:5.0,5.0;" x1="1538.5" x2="1538.5" y1="87.4297" y2="916.6797"/><line style="stroke:#181818;stroke-width:0.5;fill:none;stroke-dasharray:5.0,5.0;" x1="1625.5" x2="1625.5" y1="87.4297" y2="916.6797"/><text fill="#000000" font-family="sans-serif" font-size="14" lengthAdjust="spacing" textLength="128" x="20" y="84.1279">Mojaloop Adapter</text><ellipse cx="87" cy="55.1328" fill="#E2E2F0" rx="12" ry="12" style="stroke:#181818;stroke-width:0.5;"/><line style="stroke:#181818;stroke-width:0.5;" x1="75" x2="99" y1="69.1328" y2="69.1328"/><text fill="#000000" font-family="sans-serif" font-size="14" lengthAdjust="spacing" textLength="128" x="20" y="928.6748">Mojaloop Adapter</text><ellipse cx="87" cy="947.9766" fill="#E2E2F0" rx="12" ry="12" style="stroke:#181818;stroke-width:0.5;"/><line style="stroke:#181818;stroke-width:0.5;" x1="75" x2="99" y1="961.9766" y2="961.9766"/><rect fill="#E2E2F0" height="30.2969" rx="2.5" ry="2.5" style="stroke:#181818;stroke-width:0.5;" width="40" x="240" y="56.1328"/><text fill="#000000" font-family="sans-serif" font-size="14" font-weight="bold" lengthAdjust="spacing" textLength="26" x="247" y="76.1279">API</text><rect fill="#E2E2F0" height="30.2969" rx="2.5" ry="2.5" style="stroke:#181818;stroke-width:0.5;" width="40" x="240" y="915.6797"/><text fill="#000000" font-family="sans-serif" font-size="14" font-weight="bold" lengthAdjust="spacing" textLength="26" x="247" y="935.6748">API</text><rect fill="#E2E2F0" height="30.2969" rx="2.5" ry="2.5" style="stroke:#181818;stroke-width:0.5;" width="104" x="422" y="56.1328"/><text fill="#000000" font-family="sans-serif" font-size="14" lengthAdjust="spacing" text-decoration="underline" textLength="22" x="429" y="76.1279">api</text><text fill="#000000" font-family="sans-serif" font-size="14" lengthAdjust="spacing" textLength="64" x="455" y="76.1279">/ Handler</text><rect fill="#E2E2F0" height="30.2969" rx="2.5" ry="2.5" style="stroke:#181818;stroke-width:0.5;" width="104" x="422" y="915.6797"/><text fill="#000000" font-family="sans-serif" font-size="14" lengthAdjust="spacing" text-decoration="underline" textLength="22" x="429" y="935.6748">api</text><text fill="#000000" font-family="sans-serif" font-size="14" lengthAdjust="spacing" textLength="64" x="455" y="935.6748">/ Handler</text><rect fill="#E2E2F0" height="30.2969" rx="2.5" ry="2.5" style="stroke:#181818;stroke-width:0.5;" width="133" x="584.5" y="56.1328"/><text fill="#000000" font-family="sans-serif" font-size="14" lengthAdjust="spacing" text-decoration="underline" textLength="53" x="591.5" y="76.1279">domain</text><text fill="#000000" font-family="sans-serif" font-size="14" lengthAdjust="spacing" textLength="62" x="648.5" y="76.1279">/ Service</text><rect fill="#E2E2F0" height="30.2969" rx="2.5" ry="2.5" style="stroke:#181818;stroke-width:0.5;" width="133" x="584.5" y="915.6797"/><text fill="#000000" font-family="sans-serif" font-size="14" lengthAdjust="spacing" text-decoration="underline" textLength="53" x="591.5" y="935.6748">domain</text><text fill="#000000" font-family="sans-serif" font-size="14" lengthAdjust="spacing" textLength="62" x="648.5" y="935.6748">/ Service</text><rect fill="#E2E2F0" height="30.2969" rx="2.5" ry="2.5" style="stroke:#181818;stroke-width:0.5;" width="129" x="742.5" y="56.1328"/><text fill="#000000" font-family="sans-serif" font-size="14" lengthAdjust="spacing" text-decoration="underline" textLength="52" x="749.5" y="76.1279">models</text><text fill="#000000" font-family="sans-serif" font-size="14" lengthAdjust="spacing" textLength="59" x="805.5" y="76.1279">/ Facade</text><rect fill="#E2E2F0" height="30.2969" rx="2.5" ry="2.5" style="stroke:#181818;stroke-width:0.5;" width="129" x="742.5" y="915.6797"/><text fill="#000000" font-family="sans-serif" font-size="14" lengthAdjust="spacing" text-decoration="underline" textLength="52" x="749.5" y="935.6748">models</text><text fill="#000000" font-family="sans-serif" font-size="14" lengthAdjust="spacing" textLength="59" x="805.5" y="935.6748">/ Facade</text><text fill="#000000" font-family="sans-serif" font-size="14" lengthAdjust="spacing" textLength="132" x="1094" y="84.1279">TigerBeetle Client</text><ellipse cx="1163" cy="55.1328" fill="#E2E2F0" rx="12" ry="12" style="stroke:#181818;stroke-width:0.5;"/><polygon fill="#181818" points="1159,43.1328,1165,38.1328,1163,43.1328,1165,48.1328,1159,43.1328" style="stroke:#181818;stroke-width:1.0;"/><text fill="#000000" font-family="sans-serif" font-size="14" lengthAdjust="spacing" textLength="132" x="1094" y="928.6748">TigerBeetle Client</text><ellipse cx="1163" cy="947.9766" fill="#E2E2F0" rx="12" ry="12" style="stroke:#181818;stroke-width:0.5;"/><polygon fill="#181818" points="1159,935.9766,1165,930.9766,1163,935.9766,1165,940.9766,1159,935.9766" style="stroke:#181818;stroke-width:1.0;"/><rect fill="#E2E2F0" height="30.2969" style="stroke:#181818;stroke-width:0.5;" width="154" x="1310" y="52.1328"/><rect fill="#E2E2F0" height="30.2969" style="stroke:#181818;stroke-width:0.5;" width="154" x="1306" y="56.1328"/><text fill="#000000" font-family="sans-serif" font-size="14" lengthAdjust="spacing" textLength="140" x="1313" y="76.1279">TigerBeetle Cluster</text><rect fill="#E2E2F0" height="30.2969" style="stroke:#181818;stroke-width:0.5;" width="154" x="1310" y="915.6797"/><rect fill="#E2E2F0" height="30.2969" style="stroke:#181818;stroke-width:0.5;" width="154" x="1306" y="919.6797"/><text fill="#000000" font-family="sans-serif" font-size="14" lengthAdjust="spacing" textLength="140" x="1313" y="939.6748">TigerBeetle Cluster</text><text fill="#000000" font-family="sans-serif" font-size="14" lengthAdjust="spacing" textLength="103" x="1484.5" y="84.1279">central-ledger</text><path d="M1521,35.1328 C1521,25.1328 1539,25.1328 1539,25.1328 C1539,25.1328 1557,25.1328 1557,35.1328 L1557,61.1328 C1557,71.1328 1539,71.1328 1539,71.1328 C1539,71.1328 1521,71.1328 1521,61.1328 L1521,35.1328 " fill="#E2E2F0" style="stroke:#181818;stroke-width:1.5;"/><path d="M1521,35.1328 C1521,45.1328 1539,45.1328 1539,45.1328 C1539,45.1328 1557,45.1328 1557,35.1328 " fill="none" style="stroke:#181818;stroke-width:1.5;"/><text fill="#000000" font-family="sans-serif" font-size="14" lengthAdjust="spacing" textLength="103" x="1484.5" y="928.6748">central-ledger</text><path d="M1521,941.9766 C1521,931.9766 1539,931.9766 1539,931.9766 C1539,931.9766 1557,931.9766 1557,941.9766 L1557,967.9766 C1557,977.9766 1539,977.9766 1539,977.9766 C1539,977.9766 1521,977.9766 1521,967.9766 L1521,941.9766 " fill="#E2E2F0" style="stroke:#181818;stroke-width:1.5;"/><path d="M1521,941.9766 C1521,951.9766 1539,951.9766 1539,951.9766 C1539,951.9766 1557,951.9766 1557,941.9766 " fill="none" style="stroke:#181818;stroke-width:1.5;"/><text fill="#000000" font-family="sans-serif" font-size="14" lengthAdjust="spacing" textLength="39" x="1603.5" y="84.1279">Redis</text><path d="M1608,35.1328 C1608,25.1328 1626,25.1328 1626,25.1328 C1626,25.1328 1644,25.1328 1644,35.1328 L1644,61.1328 C1644,71.1328 1626,71.1328 1626,71.1328 C1626,71.1328 1608,71.1328 1608,61.1328 L1608,35.1328 " fill="#E2E2F0" style="stroke:#181818;stroke-width:1.5;"/><path d="M1608,35.1328 C1608,45.1328 1626,45.1328 1626,45.1328 C1626,45.1328 1644,45.1328 1644,35.1328 " fill="none" style="stroke:#181818;stroke-width:1.5;"/><text fill="#000000" font-family="sans-serif" font-size="14" lengthAdjust="spacing" textLength="39" x="1603.5" y="928.6748">Redis</text><path d="M1608,941.9766 C1608,931.9766 1626,931.9766 1626,931.9766 C1626,931.9766 1644,931.9766 1644,941.9766 L1644,967.9766 C1644,977.9766 1626,977.9766 1626,977.9766 C1626,977.9766 1608,977.9766 1608,967.9766 L1608,941.9766 " fill="#E2E2F0" style="stroke:#181818;stroke-width:1.5;"/><path d="M1608,941.9766 C1608,951.9766 1626,951.9766 1626,951.9766 C1626,951.9766 1644,951.9766 1644,941.9766 " fill="none" style="stroke:#181818;stroke-width:1.5;"/><path d="M12,102.4297 L12,142.4297 L162,142.4297 L162,112.4297 L152,102.4297 L12,102.4297 " fill="#FEFFDD" style="stroke:#181818;stroke-width:0.5;"/><path d="M152,102.4297 L152,112.4297 L162,112.4297 L152,102.4297 " fill="#FEFFDD" style="stroke:#181818;stroke-width:0.5;"/><ellipse cx="23.5" cy="115.0625" fill="#000000" rx="2.5" ry="2.5" style="stroke:#000000;stroke-width:0.0;"/><text fill="#000000" font-family="sans-serif" font-size="13" lengthAdjust="spacing" textLength="116" x="31" y="119.4966">Participant Bank A</text><ellipse cx="23.5" cy="130.1953" fill="#000000" rx="2.5" ry="2.5" style="stroke:#000000;stroke-width:0.0;"/><text fill="#000000" font-family="sans-serif" font-size="13" lengthAdjust="spacing" textLength="115" x="31" y="134.6294">Participant Bank B</text><path d="M157,152.6953 L157,177.6953 L362,177.6953 L362,162.6953 L352,152.6953 L157,152.6953 " fill="#FEFFDD" style="stroke:#181818;stroke-width:0.5;"/><path d="M352,152.6953 L352,162.6953 L362,162.6953 L352,152.6953 " fill="#FEFFDD" style="stroke:#181818;stroke-width:0.5;"/><text fill="#000000" font-family="sans-serif" font-size="13" lengthAdjust="spacing" textLength="184" x="163" y="169.7622">REST API deployed in NodeJS</text><path d="M358,187.8281 L358,227.8281 L589,227.8281 L589,197.8281 L579,187.8281 L358,187.8281 " fill="#FEFFDD" style="stroke:#181818;stroke-width:0.5;"/><path d="M579,187.8281 L579,197.8281 L589,197.8281 L579,187.8281 " fill="#FEFFDD" style="stroke:#181818;stroke-width:0.5;"/><text fill="#000000" font-family="sans-serif" font-size="13" lengthAdjust="spacing" textLength="171" x="364" y="204.895">JSON request decoded and</text><text fill="#000000" font-family="sans-serif" font-size="13" lengthAdjust="spacing" textLength="210" x="364" y="220.0278">sent for processing via a handler</text><path d="M535,238.0938 L535,278.0938 L766,278.0938 L766,248.0938 L756,238.0938 L535,238.0938 " fill="#FEFFDD" style="stroke:#181818;stroke-width:0.5;"/><path d="M756,238.0938 L756,248.0938 L766,248.0938 L756,238.0938 " fill="#FEFFDD" style="stroke:#181818;stroke-width:0.5;"/><text fill="#000000" font-family="sans-serif" font-size="13" lengthAdjust="spacing" textLength="210" x="541" y="255.1606">Domain folder where the service</text><text fill="#000000" font-family="sans-serif" font-size="13" lengthAdjust="spacing" textLength="147" x="541" y="270.2935">functions are exposed.</text><path d="M672,288.3594 L672,328.3594 L942,328.3594 L942,298.3594 L932,288.3594 L672,288.3594 " fill="#FEFFDD" style="stroke:#181818;stroke-width:0.5;"/><path d="M932,288.3594 L932,298.3594 L942,298.3594 L932,288.3594 " fill="#FEFFDD" style="stroke:#181818;stroke-width:0.5;"/><text fill="#000000" font-family="sans-serif" font-size="13" lengthAdjust="spacing" textLength="249" x="678" y="305.4263">Facade for storing/retrieving data from</text><text fill="#000000" font-family="sans-serif" font-size="13" lengthAdjust="spacing" textLength="147" x="678" y="320.5591">MySQL and TigerBeetle</text><path d="M10,340.625 L197,340.625 L197,347.7578 L187,357.7578 L10,357.7578 L10,340.625 " fill="#EEEEEE" style="stroke:#000000;stroke-width:1.5;"/><rect fill="none" height="559.0547" style="stroke:#000000;stroke-width:1.5;" width="1593.5" x="10" y="340.625"/><text fill="#000000" font-family="sans-serif" font-size="13" font-weight="bold" lengthAdjust="spacing" textLength="142" x="25" y="353.6919">Create Participant</text><polygon fill="#181818" points="248,390.0234,258,394.0234,248,398.0234,252,394.0234" style="stroke:#181818;stroke-width:1.0;"/><line style="stroke:#181818;stroke-width:1.0;" x1="87" x2="254" y1="394.0234" y2="394.0234"/><text fill="#000000" font-family="sans-serif" font-size="13" font-weight="bold" lengthAdjust="spacing" textLength="9" x="94" y="381.3911">1</text><text fill="#000000" font-family="sans-serif" font-size="13" font-style="italic" lengthAdjust="spacing" textLength="32" x="107" y="373.8247">JSON</text><text fill="#000000" font-family="sans-serif" font-size="13" lengthAdjust="spacing" textLength="4" x="139" y="373.8247"> </text><text fill="#000000" font-family="sans-serif" font-size="13" font-weight="bold" lengthAdjust="spacing" textLength="136" x="107" y="388.9575">(participant data)</text><polygon fill="#181818" points="462,434.2891,472,438.2891,462,442.2891,466,438.2891" style="stroke:#181818;stroke-width:1.0;"/><line style="stroke:#181818;stroke-width:1.0;" x1="260" x2="468" y1="438.2891" y2="438.2891"/><text fill="#000000" font-family="sans-serif" font-size="13" font-weight="bold" lengthAdjust="spacing" textLength="9" x="267" y="425.6567">2</text><text fill="#000000" font-family="sans-serif" font-size="13" font-style="italic" lengthAdjust="spacing" textLength="173" x="280" y="418.0903">/jmeter/participants/create</text><text fill="#000000" font-family="sans-serif" font-size="13" lengthAdjust="spacing" textLength="4" x="453" y="418.0903"> </text><text fill="#000000" font-family="sans-serif" font-size="13" lengthAdjust="spacing" textLength="107" x="280" y="433.2231">Handler invoked.</text><polygon fill="#181818" points="639,463.4219,649,467.4219,639,471.4219,643,467.4219" style="stroke:#181818;stroke-width:1.0;"/><line style="stroke:#181818;stroke-width:1.0;" x1="474" x2="645" y1="467.4219" y2="467.4219"/><text fill="#000000" font-family="sans-serif" font-size="13" font-weight="bold" lengthAdjust="spacing" textLength="8" x="481" y="462.356">3</text><text fill="#000000" font-family="sans-serif" font-size="13" lengthAdjust="spacing" textLength="141" x="493" y="462.356">Service layer invoked.</text><polygon fill="#181818" points="795,492.5547,805,496.5547,795,500.5547,799,496.5547" style="stroke:#181818;stroke-width:1.0;"/><line style="stroke:#181818;stroke-width:1.0;" x1="651" x2="801" y1="496.5547" y2="496.5547"/><text fill="#000000" font-family="sans-serif" font-size="13" font-weight="bold" lengthAdjust="spacing" textLength="9" x="658" y="491.4888">4</text><text fill="#000000" font-family="sans-serif" font-size="13" lengthAdjust="spacing" textLength="119" x="671" y="491.4888">Domain to facade.</text><polygon fill="#181818" points="1527,582.2188,1537,586.2188,1527,590.2188,1531,586.2188" style="stroke:#181818;stroke-width:1.0;"/><line style="stroke:#181818;stroke-width:1.0;" x1="807" x2="1533" y1="586.2188" y2="586.2188"/><text fill="#000000" font-family="sans-serif" font-size="13" font-weight="bold" lengthAdjust="spacing" textLength="9" x="814" y="550.8872">5</text><text fill="#000000" font-family="sans-serif" font-size="13" font-weight="bold" lengthAdjust="spacing" textLength="61" x="827" y="520.6216">[ASYNC]</text><ellipse cx="832.5" cy="531.3203" fill="#000000" rx="2.5" ry="2.5" style="stroke:#000000;stroke-width:0.0;"/><text fill="#000000" font-family="sans-serif" font-size="13" font-style="italic" lengthAdjust="spacing" textLength="70" x="840" y="535.7544">participant</text><text fill="#000000" font-family="sans-serif" font-size="13" lengthAdjust="spacing" textLength="4" x="910" y="535.7544">,</text><ellipse cx="832.5" cy="546.4531" fill="#000000" rx="2.5" ry="2.5" style="stroke:#000000;stroke-width:0.0;"/><text fill="#000000" font-family="sans-serif" font-size="13" font-style="italic" lengthAdjust="spacing" textLength="128" x="840" y="550.8872">participantCurrency</text><text fill="#000000" font-family="sans-serif" font-size="13" lengthAdjust="spacing" textLength="4" x="968" y="550.8872">,</text><ellipse cx="832.5" cy="561.5859" fill="#000000" rx="2.5" ry="2.5" style="stroke:#000000;stroke-width:0.0;"/><text fill="#000000" font-family="sans-serif" font-size="13" font-style="italic" lengthAdjust="spacing" textLength="122" x="840" y="566.02">participantPosition</text><text fill="#000000" font-family="sans-serif" font-size="13" lengthAdjust="spacing" textLength="127" x="831" y="581.1528">DB records created.</text><polygon fill="#181818" points="1151,611.3516,1161,615.3516,1151,619.3516,1155,615.3516" style="stroke:#181818;stroke-width:1.0;"/><line style="stroke:#181818;stroke-width:1.0;" x1="807" x2="1157" y1="615.3516" y2="615.3516"/><text fill="#000000" font-family="sans-serif" font-size="13" font-weight="bold" lengthAdjust="spacing" textLength="9" x="814" y="610.2856">6</text><text fill="#000000" font-family="sans-serif" font-size="13" font-style="italic" lengthAdjust="spacing" textLength="51" x="827" y="610.2856">account</text><text fill="#000000" font-family="sans-serif" font-size="13" lengthAdjust="spacing" textLength="264" x="882" y="610.2856">create requested via the CL-TB interface.</text><polygon fill="#181818" points="1373,655.6172,1383,659.6172,1373,663.6172,1377,659.6172" style="stroke:#181818;stroke-width:1.0;"/><line style="stroke:#181818;stroke-width:1.0;" x1="1163" x2="1379" y1="659.6172" y2="659.6172"/><text fill="#000000" font-family="sans-serif" font-size="13" font-weight="bold" lengthAdjust="spacing" textLength="9" x="1170" y="646.9849">7</text><text fill="#000000" font-family="sans-serif" font-size="13" font-style="italic" lengthAdjust="spacing" textLength="51" x="1183" y="639.4185">account</text><text fill="#000000" font-family="sans-serif" font-size="13" lengthAdjust="spacing" textLength="130" x="1238" y="639.4185">Distributed to nodes</text><text fill="#000000" font-family="sans-serif" font-size="13" lengthAdjust="spacing" textLength="144" x="1187" y="654.5513">via the state machine.</text><line style="stroke:#181818;stroke-width:1.0;" x1="1385" x2="1427" y1="688.75" y2="688.75"/><line style="stroke:#181818;stroke-width:1.0;" x1="1427" x2="1427" y1="688.75" y2="701.75"/><line style="stroke:#181818;stroke-width:1.0;" x1="1386" x2="1427" y1="701.75" y2="701.75"/><polygon fill="#181818" points="1396,697.75,1386,701.75,1396,705.75,1392,701.75" style="stroke:#181818;stroke-width:1.0;"/><text fill="#000000" font-family="sans-serif" font-size="13" font-weight="bold" lengthAdjust="spacing" textLength="9" x="1392" y="683.6841">8</text><text fill="#000000" font-family="sans-serif" font-size="13" lengthAdjust="spacing" textLength="127" x="1405" y="683.6841">Replication via VSR.</text><polygon fill="#181818" points="818,726.8828,808,730.8828,818,734.8828,814,730.8828" style="stroke:#181818;stroke-width:1.0;"/><line style="stroke:#181818;stroke-width:1.0;stroke-dasharray:2.0,2.0;" x1="812" x2="1162" y1="730.8828" y2="730.8828"/><text fill="#000000" font-family="sans-serif" font-size="13" font-weight="bold" lengthAdjust="spacing" textLength="9" x="824" y="725.8169">9</text><text fill="#000000" font-family="sans-serif" font-size="13" font-style="italic" lengthAdjust="spacing" textLength="51" x="837" y="725.8169">account</text><text fill="#000000" font-family="sans-serif" font-size="13" lengthAdjust="spacing" textLength="76" x="892" y="725.8169">create error</text><text fill="#000000" font-family="sans-serif" font-size="13" font-weight="bold" lengthAdjust="spacing" textLength="49" x="972" y="725.8169">(none)</text><polygon fill="#181818" points="818,771.1484,808,775.1484,818,779.1484,814,775.1484" style="stroke:#181818;stroke-width:1.0;"/><polygon fill="#181818" points="1527,771.1484,1537,775.1484,1527,779.1484,1531,775.1484" style="stroke:#181818;stroke-width:1.0;"/><line style="stroke:#181818;stroke-width:1.0;stroke-dasharray:2.0,2.0;" x1="812" x2="1533" y1="775.1484" y2="775.1484"/><text fill="#000000" font-family="sans-serif" font-size="13" font-weight="bold" lengthAdjust="spacing" textLength="19" x="824" y="762.5161">10</text><text fill="#000000" font-family="sans-serif" font-size="13" font-weight="bold" lengthAdjust="spacing" textLength="61" x="847" y="754.9497">[ASYNC]</text><text fill="#000000" font-family="sans-serif" font-size="13" lengthAdjust="spacing" textLength="216" x="851" y="770.0825">Database transaction committed.</text><polygon fill="#181818" points="662,800.2813,652,804.2813,662,808.2813,658,804.2813" style="stroke:#181818;stroke-width:1.0;"/><line style="stroke:#181818;stroke-width:1.0;stroke-dasharray:2.0,2.0;" x1="656" x2="806" y1="804.2813" y2="804.2813"/><text fill="#000000" font-family="sans-serif" font-size="13" font-weight="bold" lengthAdjust="spacing" textLength="18" x="668" y="799.2153">11</text><text fill="#000000" font-family="sans-serif" font-size="13" lengthAdjust="spacing" textLength="87" x="690" y="799.2153">Return result.</text><polygon fill="#181818" points="485,829.4141,475,833.4141,485,837.4141,481,833.4141" style="stroke:#181818;stroke-width:1.0;"/><line style="stroke:#181818;stroke-width:1.0;stroke-dasharray:2.0,2.0;" x1="479" x2="650" y1="833.4141" y2="833.4141"/><text fill="#000000" font-family="sans-serif" font-size="13" font-weight="bold" lengthAdjust="spacing" textLength="18" x="491" y="828.3481">12</text><text fill="#000000" font-family="sans-serif" font-size="13" lengthAdjust="spacing" textLength="87" x="513" y="828.3481">Return result.</text><polygon fill="#181818" points="271,858.5469,261,862.5469,271,866.5469,267,862.5469" style="stroke:#181818;stroke-width:1.0;"/><line style="stroke:#181818;stroke-width:1.0;stroke-dasharray:2.0,2.0;" x1="265" x2="473" y1="862.5469" y2="862.5469"/><text fill="#000000" font-family="sans-serif" font-size="13" font-weight="bold" lengthAdjust="spacing" textLength="17" x="277" y="857.481">13</text><text fill="#000000" font-family="sans-serif" font-size="13" lengthAdjust="spacing" textLength="87" x="298" y="857.481">Return result.</text><polygon fill="#181818" points="98,887.6797,88,891.6797,98,895.6797,94,891.6797" style="stroke:#181818;stroke-width:1.0;"/><line style="stroke:#181818;stroke-width:1.0;stroke-dasharray:2.0,2.0;" x1="92" x2="259" y1="891.6797" y2="891.6797"/><text fill="#000000" font-family="sans-serif" font-size="13" font-weight="bold" lengthAdjust="spacing" textLength="18" x="104" y="886.6138">14</text><text fill="#000000" font-family="sans-serif" font-size="13" lengthAdjust="spacing" textLength="87" x="126" y="886.6138">Return result.</text><!--MD5=[2068b177f1ed609406fa8113c2aacc0c]
@startuml
entity "Mojaloop Adapter" as dfsp
note over dfsp
    * Participant Bank A
    * Participant Bank B
end note

box Central-Ledger #FFFFF9
    participant "**API**" as cl_api
    participant "__api__ / Handler" as cl_handler
    participant "__domain__ / Service" as cl_domain
    participant "__models__ / Facade" as cl_facade

    note over cl_api
        REST API deployed in NodeJS
    end note

    note over cl_handler
        JSON request decoded and
        sent for processing via a handler
    end note

    note over cl_domain
        Domain folder where the service
        functions are exposed.
    end note

    note over cl_facade
        Facade for storing/retrieving data from
        MySQL and TigerBeetle
    end note
end box

box Storage #F9FFF9
	control "TigerBeetle Client" as tb_client
	collections "TigerBeetle Cluster" as tb_nodes
	database "central-ledger" as cl_db
	database "Redis" as redis_cache
end box

autonumber
group Create Participant
    dfsp -> cl_api : //JSON// \n**(participant data)**
    cl_api -> cl_handler : ///jmeter/participants/create// \nHandler invoked.
    cl_handler -> cl_domain : Service layer invoked.
    cl_domain -> cl_facade : Domain to facade.
    cl_facade -> cl_db : **[ASYNC]**\n*//participant//, \n*//participantCurrency//, \n*//participantPosition// \n DB records created.
    cl_facade -> tb_client : //account// create requested via the CL-TB interface.
    tb_client -> tb_nodes : //account// Distributed to nodes\n via the state machine.
    tb_nodes -> tb_nodes : Replication via VSR.
    tb_client - -> cl_facade : //account// create error **(none)**
    cl_db <- -> cl_facade : **[ASYNC]**\n Database transaction committed.
    cl_facade - -> cl_domain : Return result.
    cl_domain - -> cl_handler : Return result.
    cl_handler - -> cl_api : Return result.
    cl_api - -> dfsp : Return result.
end
@enduml

PlantUML version 1.2022.4beta2(Unknown compile time)
(GPL source distribution)
Java Runtime: Java(TM) SE Runtime Environment
JVM: Java HotSpot(TM) 64-Bit Server VM
Default Encoding: UTF-8
Language: en
Country: US
--></g></svg>