<?xml version="1.0" encoding="UTF-8" standalone="no"?><svg xmlns="http://www.w3.org/2000/svg" xmlns:xlink="http://www.w3.org/1999/xlink" contentStyleType="text/css" height="870px" preserveAspectRatio="none" style="width:1760px;height:870px;background:#FFFFFF;" version="1.1" viewBox="0 0 1760 870" width="1760px" zoomAndPan="magnify"><defs/><g><rect fill="#FFFFF9" height="858.1797" style="stroke:#181818;stroke-width:0.5;" width="784.5" x="290" y="6"/><text fill="#000000" font-family="sans-serif" font-size="13" font-weight="bold" lengthAdjust="spacing" textLength="108" x="625.75" y="18.0669">Central-Ledger</text><rect fill="#F9FFF9" height="858.1797" style="stroke:#181818;stroke-width:0.5;" width="452.5" x="1296" y="6"/><text fill="#000000" font-family="sans-serif" font-size="13" font-weight="bold" lengthAdjust="spacing" textLength="57" x="1491.25" y="18.0669">Storage</text><rect height="427.2578" style="stroke:#000000;stroke-width:1.5;fill:none;" width="1744.5" x="10" y="340.625"/><line style="stroke:#181818;stroke-width:0.5;fill:none;stroke-dasharray:5.0,5.0;" x1="86" x2="86" y1="87.4297" y2="784.8828"/><line style="stroke:#181818;stroke-width:0.5;fill:none;stroke-dasharray:5.0,5.0;" x1="314" x2="314" y1="87.4297" y2="784.8828"/><line style="stroke:#181818;stroke-width:0.5;fill:none;stroke-dasharray:5.0,5.0;" x1="643" x2="643" y1="87.4297" y2="784.8828"/><line style="stroke:#181818;stroke-width:0.5;fill:none;stroke-dasharray:5.0,5.0;" x1="825" x2="825" y1="87.4297" y2="784.8828"/><line style="stroke:#181818;stroke-width:0.5;fill:none;stroke-dasharray:5.0,5.0;" x1="1004.5" x2="1004.5" y1="87.4297" y2="784.8828"/><line style="stroke:#181818;stroke-width:0.5;fill:none;stroke-dasharray:5.0,5.0;" x1="1367" x2="1367" y1="87.4297" y2="784.8828"/><line style="stroke:#181818;stroke-width:0.5;fill:none;stroke-dasharray:5.0,5.0;" x1="1549.5" x2="1549.5" y1="87.4297" y2="784.8828"/><line style="stroke:#181818;stroke-width:0.5;fill:none;stroke-dasharray:5.0,5.0;" x1="1690.5" x2="1690.5" y1="87.4297" y2="784.8828"/><text fill="#000000" font-family="sans-serif" font-size="14" lengthAdjust="spacing" textLength="126" x="20" y="84.1279">Mojaloop Adapter</text><ellipse cx="86" cy="19.6328" fill="#E2E2F0" rx="8" ry="8" style="stroke:#181818;stroke-width:0.5;"/><path d="M86,27.6328 L86,54.6328 M73,35.6328 L99,35.6328 M86,54.6328 L73,69.6328 M86,54.6328 L99,69.6328 " fill="none" style="stroke:#181818;stroke-width:0.5;"/><text fill="#000000" font-family="sans-serif" font-size="14" lengthAdjust="spacing" textLength="126" x="20" y="796.8779">Mojaloop Adapter</text><ellipse cx="86" cy="808.6797" fill="#E2E2F0" rx="8" ry="8" style="stroke:#181818;stroke-width:0.5;"/><path d="M86,816.6797 L86,843.6797 M73,824.6797 L99,824.6797 M86,843.6797 L73,858.6797 M86,843.6797 L99,858.6797 " fill="none" style="stroke:#181818;stroke-width:0.5;"/><rect fill="#E2E2F0" height="30.2969" rx="2.5" ry="2.5" style="stroke:#181818;stroke-width:0.5;" width="40" x="294" y="56.1328"/><text fill="#000000" font-family="sans-serif" font-size="14" font-weight="bold" lengthAdjust="spacing" textLength="26" x="301" y="76.1279">API</text><rect fill="#E2E2F0" height="30.2969" rx="2.5" ry="2.5" style="stroke:#181818;stroke-width:0.5;" width="40" x="294" y="783.8828"/><text fill="#000000" font-family="sans-serif" font-size="14" font-weight="bold" lengthAdjust="spacing" textLength="26" x="301" y="803.8779">API</text><rect fill="#E2E2F0" height="30.2969" rx="2.5" ry="2.5" style="stroke:#181818;stroke-width:0.5;" width="106" x="590" y="56.1328"/><text fill="#000000" font-family="sans-serif" font-size="14" lengthAdjust="spacing" text-decoration="underline" textLength="22" x="597" y="76.1279">api</text><text fill="#000000" font-family="sans-serif" font-size="14" lengthAdjust="spacing" textLength="66" x="623" y="76.1279">/ Handler</text><rect fill="#E2E2F0" height="30.2969" rx="2.5" ry="2.5" style="stroke:#181818;stroke-width:0.5;" width="106" x="590" y="783.8828"/><text fill="#000000" font-family="sans-serif" font-size="14" lengthAdjust="spacing" text-decoration="underline" textLength="22" x="597" y="803.8779">api</text><text fill="#000000" font-family="sans-serif" font-size="14" lengthAdjust="spacing" textLength="66" x="623" y="803.8779">/ Handler</text><rect fill="#E2E2F0" height="30.2969" rx="2.5" ry="2.5" style="stroke:#181818;stroke-width:0.5;" width="134" x="758" y="56.1328"/><text fill="#000000" font-family="sans-serif" font-size="14" lengthAdjust="spacing" text-decoration="underline" textLength="54" x="765" y="76.1279">domain</text><text fill="#000000" font-family="sans-serif" font-size="14" lengthAdjust="spacing" textLength="62" x="823" y="76.1279">/ Service</text><rect fill="#E2E2F0" height="30.2969" rx="2.5" ry="2.5" style="stroke:#181818;stroke-width:0.5;" width="134" x="758" y="783.8828"/><text fill="#000000" font-family="sans-serif" font-size="14" lengthAdjust="spacing" text-decoration="underline" textLength="54" x="765" y="803.8779">domain</text><text fill="#000000" font-family="sans-serif" font-size="14" lengthAdjust="spacing" textLength="62" x="823" y="803.8779">/ Service</text><rect fill="#E2E2F0" height="30.2969" rx="2.5" ry="2.5" style="stroke:#181818;stroke-width:0.5;" width="131" x="939.5" y="56.1328"/><text fill="#000000" font-family="sans-serif" font-size="14" lengthAdjust="spacing" text-decoration="underline" textLength="52" x="946.5" y="76.1279">models</text><text fill="#000000" font-family="sans-serif" font-size="14" lengthAdjust="spacing" textLength="61" x="1002.5" y="76.1279">/ Facade</text><rect fill="#E2E2F0" height="30.2969" rx="2.5" ry="2.5" style="stroke:#181818;stroke-width:0.5;" width="131" x="939.5" y="783.8828"/><text fill="#000000" font-family="sans-serif" font-size="14" lengthAdjust="spacing" text-decoration="underline" textLength="52" x="946.5" y="803.8779">models</text><text fill="#000000" font-family="sans-serif" font-size="14" lengthAdjust="spacing" textLength="61" x="1002.5" y="803.8779">/ Facade</text><text fill="#000000" font-family="sans-serif" font-size="14" lengthAdjust="spacing" textLength="128" x="1300" y="84.1279">TigerBeetle Client</text><ellipse cx="1367" cy="55.1328" fill="#E2E2F0" rx="12" ry="12" style="stroke:#181818;stroke-width:0.5;"/><polygon fill="#181818" points="1363,43.1328,1369,38.1328,1367,43.1328,1369,48.1328,1363,43.1328" style="stroke:#181818;stroke-width:1.0;"/><text fill="#000000" font-family="sans-serif" font-size="14" lengthAdjust="spacing" textLength="128" x="1300" y="796.8779">TigerBeetle Client</text><ellipse cx="1367" cy="816.1797" fill="#E2E2F0" rx="12" ry="12" style="stroke:#181818;stroke-width:0.5;"/><polygon fill="#181818" points="1363,804.1797,1369,799.1797,1367,804.1797,1369,809.1797,1363,804.1797" style="stroke:#181818;stroke-width:1.0;"/><rect fill="#E2E2F0" height="30.2969" style="stroke:#181818;stroke-width:0.5;" width="151" x="1476.5" y="52.1328"/><rect fill="#E2E2F0" height="30.2969" style="stroke:#181818;stroke-width:0.5;" width="151" x="1472.5" y="56.1328"/><text fill="#000000" font-family="sans-serif" font-size="14" lengthAdjust="spacing" textLength="137" x="1479.5" y="76.1279">TigerBeetle Cluster</text><rect fill="#E2E2F0" height="30.2969" style="stroke:#181818;stroke-width:0.5;" width="151" x="1476.5" y="783.8828"/><rect fill="#E2E2F0" height="30.2969" style="stroke:#181818;stroke-width:0.5;" width="151" x="1472.5" y="787.8828"/><text fill="#000000" font-family="sans-serif" font-size="14" lengthAdjust="spacing" textLength="137" x="1479.5" y="807.8779">TigerBeetle Cluster</text><text fill="#000000" font-family="sans-serif" font-size="14" lengthAdjust="spacing" textLength="101" x="1637.5" y="84.1279">central-ledger</text><path d="M1673,35.1328 C1673,25.1328 1691,25.1328 1691,25.1328 C1691,25.1328 1709,25.1328 1709,35.1328 L1709,61.1328 C1709,71.1328 1691,71.1328 1691,71.1328 C1691,71.1328 1673,71.1328 1673,61.1328 L1673,35.1328 " fill="#E2E2F0" style="stroke:#181818;stroke-width:1.5;"/><path d="M1673,35.1328 C1673,45.1328 1691,45.1328 1691,45.1328 C1691,45.1328 1709,45.1328 1709,35.1328 " fill="none" style="stroke:#181818;stroke-width:1.5;"/><text fill="#000000" font-family="sans-serif" font-size="14" lengthAdjust="spacing" textLength="101" x="1637.5" y="796.8779">central-ledger</text><path d="M1673,810.1797 C1673,800.1797 1691,800.1797 1691,800.1797 C1691,800.1797 1709,800.1797 1709,810.1797 L1709,836.1797 C1709,846.1797 1691,846.1797 1691,846.1797 C1691,846.1797 1673,846.1797 1673,836.1797 L1673,810.1797 " fill="#E2E2F0" style="stroke:#181818;stroke-width:1.5;"/><path d="M1673,810.1797 C1673,820.1797 1691,820.1797 1691,820.1797 C1691,820.1797 1709,820.1797 1709,810.1797 " fill="none" style="stroke:#181818;stroke-width:1.5;"/><path d="M9,102.4297 L9,142.4297 L163,142.4297 L163,112.4297 L153,102.4297 L9,102.4297 " fill="#FEFFDD" style="stroke:#181818;stroke-width:0.5;"/><path d="M153,102.4297 L153,112.4297 L163,112.4297 L153,102.4297 " fill="#FEFFDD" style="stroke:#181818;stroke-width:0.5;"/><ellipse cx="20.5" cy="115.0625" fill="#000000" rx="2.5" ry="2.5" style="stroke:#000000;stroke-width:0.0;"/><text fill="#000000" font-family="sans-serif" font-size="13" lengthAdjust="spacing" textLength="120" x="28" y="119.4966">Participant Bank A</text><ellipse cx="20.5" cy="130.1953" fill="#000000" rx="2.5" ry="2.5" style="stroke:#000000;stroke-width:0.0;"/><text fill="#000000" font-family="sans-serif" font-size="13" lengthAdjust="spacing" textLength="120" x="28" y="134.6294">Participant Bank B</text><path d="M209,152.6953 L209,177.6953 L418,177.6953 L418,162.6953 L408,152.6953 L209,152.6953 " fill="#FEFFDD" style="stroke:#181818;stroke-width:0.5;"/><path d="M408,152.6953 L408,162.6953 L418,162.6953 L408,152.6953 " fill="#FEFFDD" style="stroke:#181818;stroke-width:0.5;"/><text fill="#000000" font-family="sans-serif" font-size="13" lengthAdjust="spacing" textLength="188" x="215" y="169.7622">REST API deployed in NodeJS</text><path d="M526,187.8281 L526,227.8281 L760,227.8281 L760,197.8281 L750,187.8281 L526,187.8281 " fill="#FEFFDD" style="stroke:#181818;stroke-width:0.5;"/><path d="M750,187.8281 L750,197.8281 L760,197.8281 L750,187.8281 " fill="#FEFFDD" style="stroke:#181818;stroke-width:0.5;"/><text fill="#000000" font-family="sans-serif" font-size="13" lengthAdjust="spacing" textLength="172" x="532" y="204.895">JSON request decoded and</text><text fill="#000000" font-family="sans-serif" font-size="13" lengthAdjust="spacing" textLength="213" x="532" y="220.0278">sent for processing via a handler</text><path d="M708,238.0938 L708,278.0938 L942,278.0938 L942,248.0938 L932,238.0938 L708,238.0938 " fill="#FEFFDD" style="stroke:#181818;stroke-width:0.5;"/><path d="M932,238.0938 L932,248.0938 L942,248.0938 L932,238.0938 " fill="#FEFFDD" style="stroke:#181818;stroke-width:0.5;"/><text fill="#000000" font-family="sans-serif" font-size="13" lengthAdjust="spacing" textLength="213" x="714" y="255.1606">Domain folder where the service</text><text fill="#000000" font-family="sans-serif" font-size="13" lengthAdjust="spacing" textLength="148" x="714" y="270.2935">functions are exposed.</text><path d="M868,288.3594 L868,328.3594 L1141,328.3594 L1141,298.3594 L1131,288.3594 L868,288.3594 " fill="#FEFFDD" style="stroke:#181818;stroke-width:0.5;"/><path d="M1131,288.3594 L1131,298.3594 L1141,298.3594 L1131,288.3594 " fill="#FEFFDD" style="stroke:#181818;stroke-width:0.5;"/><text fill="#000000" font-family="sans-serif" font-size="13" lengthAdjust="spacing" textLength="252" x="874" y="305.4263">Facade for storing/retrieving data from</text><text fill="#000000" font-family="sans-serif" font-size="13" lengthAdjust="spacing" textLength="151" x="874" y="320.5591">MySQL and TigerBeetle</text><path d="M10,340.625 L218,340.625 L218,347.7578 L208,357.7578 L10,357.7578 L10,340.625 " fill="#EEEEEE" style="stroke:#000000;stroke-width:1.5;"/><rect fill="none" height="427.2578" style="stroke:#000000;stroke-width:1.5;" width="1744.5" x="10" y="340.625"/><text fill="#000000" font-family="sans-serif" font-size="13" font-weight="bold" lengthAdjust="spacing" textLength="163" x="25" y="353.6919">Lookup Transfer by ID</text><polygon fill="#181818" points="302,390.0234,312,394.0234,302,398.0234,306,394.0234" style="stroke:#181818;stroke-width:1.0;"/><line style="stroke:#181818;stroke-width:1.0;" x1="86" x2="308" y1="394.0234" y2="394.0234"/><text fill="#000000" font-family="sans-serif" font-size="13" font-weight="bold" lengthAdjust="spacing" textLength="9" x="93" y="381.3911">1</text><text fill="#000000" font-family="sans-serif" font-size="13" font-style="italic" lengthAdjust="spacing" textLength="32" x="106" y="373.8247">JSON</text><text fill="#000000" font-family="sans-serif" font-size="13" lengthAdjust="spacing" textLength="4" x="138" y="373.8247"> </text><text fill="#000000" font-family="sans-serif" font-size="13" font-weight="bold" lengthAdjust="spacing" textLength="25" x="106" y="388.9575">(id)</text><text fill="#000000" font-family="sans-serif" font-size="13" lengthAdjust="spacing" textLength="24" x="135" y="388.9575">and</text><text fill="#000000" font-family="sans-serif" font-size="13" font-weight="bold" lengthAdjust="spacing" textLength="134" x="163" y="388.9575">(participantName)</text><polygon fill="#181818" points="631,434.2891,641,438.2891,631,442.2891,635,438.2891" style="stroke:#181818;stroke-width:1.0;"/><line style="stroke:#181818;stroke-width:1.0;" x1="314" x2="637" y1="438.2891" y2="438.2891"/><text fill="#000000" font-family="sans-serif" font-size="13" font-weight="bold" lengthAdjust="spacing" textLength="9" x="321" y="425.6567">2</text><text fill="#000000" font-family="sans-serif" font-size="13" font-style="italic" lengthAdjust="spacing" textLength="132" x="334" y="418.0903">/jmeter/participants/</text><text fill="#000000" font-family="sans-serif" font-size="13" font-style="italic" font-weight="bold" lengthAdjust="spacing" textLength="59" x="466" y="418.0903">{name}</text><text fill="#000000" font-family="sans-serif" font-size="13" font-style="italic" lengthAdjust="spacing" textLength="66" x="525" y="418.0903">/transfers/</text><text fill="#000000" font-family="sans-serif" font-size="13" font-style="italic" font-weight="bold" lengthAdjust="spacing" textLength="31" x="591" y="418.0903">{id}</text><text fill="#000000" font-family="sans-serif" font-size="13" lengthAdjust="spacing" textLength="4" x="622" y="418.0903"> </text><text fill="#000000" font-family="sans-serif" font-size="13" lengthAdjust="spacing" textLength="111" x="334" y="433.2231">Handler invoked.</text><polygon fill="#181818" points="813,463.4219,823,467.4219,813,471.4219,817,467.4219" style="stroke:#181818;stroke-width:1.0;"/><line style="stroke:#181818;stroke-width:1.0;" x1="643" x2="819" y1="467.4219" y2="467.4219"/><text fill="#000000" font-family="sans-serif" font-size="13" font-weight="bold" lengthAdjust="spacing" textLength="9" x="650" y="462.356">3</text><text fill="#000000" font-family="sans-serif" font-size="13" lengthAdjust="spacing" textLength="145" x="663" y="462.356">Service layer invoked.</text><polygon fill="#181818" points="993,492.5547,1003,496.5547,993,500.5547,997,496.5547" style="stroke:#181818;stroke-width:1.0;"/><line style="stroke:#181818;stroke-width:1.0;" x1="825" x2="999" y1="496.5547" y2="496.5547"/><text fill="#000000" font-family="sans-serif" font-size="13" font-weight="bold" lengthAdjust="spacing" textLength="9" x="832" y="491.4888">4</text><text fill="#000000" font-family="sans-serif" font-size="13" lengthAdjust="spacing" textLength="143" x="845" y="491.4888">Facade layer invoked.</text><polygon fill="#181818" points="1355,521.6875,1365,525.6875,1355,529.6875,1359,525.6875" style="stroke:#181818;stroke-width:1.0;"/><line style="stroke:#181818;stroke-width:1.0;" x1="1005" x2="1361" y1="525.6875" y2="525.6875"/><text fill="#000000" font-family="sans-serif" font-size="13" font-weight="bold" lengthAdjust="spacing" textLength="9" x="1012" y="520.6216">5</text><text fill="#000000" font-family="sans-serif" font-size="13" font-style="italic" lengthAdjust="spacing" textLength="51" x="1025" y="520.6216">transfer</text><text fill="#000000" font-family="sans-serif" font-size="13" lengthAdjust="spacing" textLength="270" x="1080" y="520.6216">lookup requested via the CL-TB interface.</text><polygon fill="#181818" points="1378,565.9531,1368,569.9531,1378,573.9531,1374,569.9531" style="stroke:#181818;stroke-width:1.0;"/><polygon fill="#181818" points="1538,565.9531,1548,569.9531,1538,573.9531,1542,569.9531" style="stroke:#181818;stroke-width:1.0;"/><line style="stroke:#181818;stroke-width:1.0;" x1="1372" x2="1544" y1="569.9531" y2="569.9531"/><text fill="#000000" font-family="sans-serif" font-size="13" font-weight="bold" lengthAdjust="spacing" textLength="9" x="1384" y="557.3208">6</text><text fill="#000000" font-family="sans-serif" font-size="13" font-style="italic" lengthAdjust="spacing" textLength="51" x="1397" y="549.7544">transfer</text><text fill="#000000" font-family="sans-serif" font-size="13" lengthAdjust="spacing" textLength="49" x="1452" y="549.7544">fetched</text><text fill="#000000" font-family="sans-serif" font-size="13" lengthAdjust="spacing" textLength="146" x="1397" y="564.8872">via the state machine.</text><polygon fill="#181818" points="1016,595.0859,1006,599.0859,1016,603.0859,1012,599.0859" style="stroke:#181818;stroke-width:1.0;"/><line style="stroke:#181818;stroke-width:1.0;stroke-dasharray:2.0,2.0;" x1="1010" x2="1366" y1="599.0859" y2="599.0859"/><text fill="#000000" font-family="sans-serif" font-size="13" font-weight="bold" lengthAdjust="spacing" textLength="9" x="1022" y="594.02">7</text><text fill="#000000" font-family="sans-serif" font-size="13" font-style="italic" lengthAdjust="spacing" textLength="51" x="1035" y="594.02">transfer</text><text fill="#000000" font-family="sans-serif" font-size="13" lengthAdjust="spacing" textLength="33" x="1090" y="594.02">data.</text><polygon fill="#181818" points="1016,639.3516,1006,643.3516,1016,647.3516,1012,643.3516" style="stroke:#181818;stroke-width:1.0;"/><polygon fill="#181818" points="1679,639.3516,1689,643.3516,1679,647.3516,1683,643.3516" style="stroke:#181818;stroke-width:1.0;"/><line style="stroke:#181818;stroke-width:1.0;" x1="1010" x2="1685" y1="643.3516" y2="643.3516"/><text fill="#000000" font-family="sans-serif" font-size="13" font-weight="bold" lengthAdjust="spacing" textLength="9" x="1022" y="630.7192">8</text><text fill="#000000" font-family="sans-serif" font-size="13" lengthAdjust="spacing" textLength="66" x="1035" y="623.1528">Additional</text><text fill="#000000" font-family="sans-serif" font-size="13" font-style="italic" lengthAdjust="spacing" textLength="54" x="1105" y="623.1528">Transfer</text><text fill="#000000" font-family="sans-serif" font-size="13" lengthAdjust="spacing" textLength="364" x="1163" y="623.1528">meta-data is fetched from the Central-Ledger database.</text><text fill="#000000" font-family="sans-serif" font-size="13" font-style="italic" font-weight="bold" lengthAdjust="spacing" textLength="75" x="1035" y="638.2856">OPTIONAL</text><polygon fill="#181818" points="836,668.4844,826,672.4844,836,676.4844,832,672.4844" style="stroke:#181818;stroke-width:1.0;"/><line style="stroke:#181818;stroke-width:1.0;stroke-dasharray:2.0,2.0;" x1="830" x2="1004" y1="672.4844" y2="672.4844"/><text fill="#000000" font-family="sans-serif" font-size="13" font-weight="bold" lengthAdjust="spacing" textLength="9" x="842" y="667.4185">9</text><text fill="#000000" font-family="sans-serif" font-size="13" lengthAdjust="spacing" textLength="88" x="855" y="667.4185">Return result.</text><polygon fill="#181818" points="654,697.6172,644,701.6172,654,705.6172,650,701.6172" style="stroke:#181818;stroke-width:1.0;"/><line style="stroke:#181818;stroke-width:1.0;stroke-dasharray:2.0,2.0;" x1="648" x2="824" y1="701.6172" y2="701.6172"/><text fill="#000000" font-family="sans-serif" font-size="13" font-weight="bold" lengthAdjust="spacing" textLength="18" x="660" y="696.5513">10</text><text fill="#000000" font-family="sans-serif" font-size="13" lengthAdjust="spacing" textLength="88" x="682" y="696.5513">Return result.</text><polygon fill="#181818" points="325,726.75,315,730.75,325,734.75,321,730.75" style="stroke:#181818;stroke-width:1.0;"/><line style="stroke:#181818;stroke-width:1.0;stroke-dasharray:2.0,2.0;" x1="319" x2="642" y1="730.75" y2="730.75"/><text fill="#000000" font-family="sans-serif" font-size="13" font-weight="bold" lengthAdjust="spacing" textLength="18" x="331" y="725.6841">11</text><text fill="#000000" font-family="sans-serif" font-size="13" lengthAdjust="spacing" textLength="88" x="353" y="725.6841">Return result.</text><polygon fill="#181818" points="97,755.8828,87,759.8828,97,763.8828,93,759.8828" style="stroke:#181818;stroke-width:1.0;"/><line style="stroke:#181818;stroke-width:1.0;stroke-dasharray:2.0,2.0;" x1="91" x2="313" y1="759.8828" y2="759.8828"/><text fill="#000000" font-family="sans-serif" font-size="13" font-weight="bold" lengthAdjust="spacing" textLength="18" x="103" y="754.8169">12</text><text fill="#000000" font-family="sans-serif" font-size="13" lengthAdjust="spacing" textLength="88" x="125" y="754.8169">Return result.</text><!--MD5=[aea89ca201be11907da3846fc4c552d5]
@startuml

actor "Mojaloop Adapter" as dfsp
note over dfsp
    * Participant Bank A
    * Participant Bank B
end note

box Central-Ledger #FFFFF9
    participant "**API**" as cl_api
    participant "__api__ / Handler" as cl_handler
    participant "__domain__ / Service" as cl_domain
    participant "__models__ / Facade" as cl_facade

    note over cl_api
        REST API deployed in NodeJS
    end note

    note over cl_handler
        JSON request decoded and
        sent for processing via a handler
    end note

    note over cl_domain
        Domain folder where the service
        functions are exposed.
    end note

    note over cl_facade
        Facade for storing/retrieving data from
        MySQL and TigerBeetle
    end note
end box

box Storage #F9FFF9
	control "TigerBeetle Client" as tb_client
	collections "TigerBeetle Cluster" as tb_nodes
    database "central-ledger" as cl_db
end box

autonumber
group Lookup Transfer by ID
    dfsp -> cl_api : //JSON// \n**(id)** and **(participantName)**
    cl_api -> cl_handler : ///jmeter/participants/**{name}**/transfers/**{id}**// \nHandler invoked.
    cl_handler -> cl_domain : Service layer invoked.
    cl_domain -> cl_facade : Facade layer invoked.
    cl_facade -> tb_client : //transfer// lookup requested via the CL-TB interface.
    tb_client <-> tb_nodes : //transfer// fetched\nvia the state machine.
    tb_client - -> cl_facade : //transfer// data.
    cl_facade <-> cl_db : Additional //Transfer// meta-data is fetched from the Central-Ledger database.\n**//OPTIONAL//**
    cl_facade - -> cl_domain : Return result.
    cl_domain - -> cl_handler : Return result.
    cl_handler - -> cl_api : Return result.
    cl_api - -> dfsp : Return result.
end

@enduml

PlantUML version 1.2022.4(Sat Apr 09 15:29:17 CEST 2022)
(GPL source distribution)
Java Runtime: OpenJDK Runtime Environment
JVM: OpenJDK 64-Bit Server VM
Default Encoding: UTF-8
Language: en
Country: US
--></g></svg>