<?xml version="1.0" encoding="UTF-8" standalone="no"?><svg xmlns="http://www.w3.org/2000/svg" xmlns:xlink="http://www.w3.org/1999/xlink" contentStyleType="text/css" height="863px" preserveAspectRatio="none" style="width:1755px;height:863px;background:#FFFFFF;" version="1.1" viewBox="0 0 1755 863" width="1755px" zoomAndPan="magnify"><defs/><g><rect fill="#FFFFF9" height="844.1797" style="stroke:#181818;stroke-width:0.5;" width="775.5" x="296" y="6"/><text fill="#000000" font-family="sans-serif" font-size="13" font-weight="bold" lengthAdjust="spacing" textLength="113" x="624.75" y="18.0669">Central-Ledger</text><rect fill="#F9FFF9" height="844.1797" style="stroke:#181818;stroke-width:0.5;" width="456" x="1287" y="6"/><text fill="#000000" font-family="sans-serif" font-size="13" font-weight="bold" lengthAdjust="spacing" textLength="61" x="1482" y="18.0669">Storage</text><rect height="427.2578" style="stroke:#000000;stroke-width:1.5;fill:none;" width="1739" x="10" y="340.625"/><line style="stroke:#181818;stroke-width:0.5;fill:none;stroke-dasharray:5.0,5.0;" x1="87" x2="87" y1="87.4297" y2="784.8828"/><line style="stroke:#181818;stroke-width:0.5;fill:none;stroke-dasharray:5.0,5.0;" x1="320" x2="320" y1="87.4297" y2="784.8828"/><line style="stroke:#181818;stroke-width:0.5;fill:none;stroke-dasharray:5.0,5.0;" x1="649" x2="649" y1="87.4297" y2="784.8828"/><line style="stroke:#181818;stroke-width:0.5;fill:none;stroke-dasharray:5.0,5.0;" x1="825.5" x2="825.5" y1="87.4297" y2="784.8828"/><line style="stroke:#181818;stroke-width:0.5;fill:none;stroke-dasharray:5.0,5.0;" x1="1002.5" x2="1002.5" y1="87.4297" y2="784.8828"/><line style="stroke:#181818;stroke-width:0.5;fill:none;stroke-dasharray:5.0,5.0;" x1="1360" x2="1360" y1="87.4297" y2="784.8828"/><line style="stroke:#181818;stroke-width:0.5;fill:none;stroke-dasharray:5.0,5.0;" x1="1541" x2="1541" y1="87.4297" y2="784.8828"/><line style="stroke:#181818;stroke-width:0.5;fill:none;stroke-dasharray:5.0,5.0;" x1="1684" x2="1684" y1="87.4297" y2="784.8828"/><text fill="#000000" font-family="sans-serif" font-size="14" lengthAdjust="spacing" textLength="128" x="20" y="84.1279">Mojaloop Adapter</text><ellipse cx="87" cy="55.1328" fill="#E2E2F0" rx="12" ry="12" style="stroke:#181818;stroke-width:0.5;"/><line style="stroke:#181818;stroke-width:0.5;" x1="75" x2="99" y1="69.1328" y2="69.1328"/><text fill="#000000" font-family="sans-serif" font-size="14" lengthAdjust="spacing" textLength="128" x="20" y="796.8779">Mojaloop Adapter</text><ellipse cx="87" cy="816.1797" fill="#E2E2F0" rx="12" ry="12" style="stroke:#181818;stroke-width:0.5;"/><line style="stroke:#181818;stroke-width:0.5;" x1="75" x2="99" y1="830.1797" y2="830.1797"/><rect fill="#E2E2F0" height="30.2969" rx="2.5" ry="2.5" style="stroke:#181818;stroke-width:0.5;" width="40" x="300" y="56.1328"/><text fill="#000000" font-family="sans-serif" font-size="14" font-weight="bold" lengthAdjust="spacing" textLength="26" x="307" y="76.1279">API</text><rect fill="#E2E2F0" height="30.2969" rx="2.5" ry="2.5" style="stroke:#181818;stroke-width:0.5;" width="40" x="300" y="783.8828"/><text fill="#000000" font-family="sans-serif" font-size="14" font-weight="bold" lengthAdjust="spacing" textLength="26" x="307" y="803.8779">API</text><rect fill="#E2E2F0" height="30.2969" rx="2.5" ry="2.5" style="stroke:#181818;stroke-width:0.5;" width="104" x="597" y="56.1328"/><text fill="#000000" font-family="sans-serif" font-size="14" lengthAdjust="spacing" text-decoration="underline" textLength="22" x="604" y="76.1279">api</text><text fill="#000000" font-family="sans-serif" font-size="14" lengthAdjust="spacing" textLength="64" x="630" y="76.1279">/ Handler</text><rect fill="#E2E2F0" height="30.2969" rx="2.5" ry="2.5" style="stroke:#181818;stroke-width:0.5;" width="104" x="597" y="783.8828"/><text fill="#000000" font-family="sans-serif" font-size="14" lengthAdjust="spacing" text-decoration="underline" textLength="22" x="604" y="803.8779">api</text><text fill="#000000" font-family="sans-serif" font-size="14" lengthAdjust="spacing" textLength="64" x="630" y="803.8779">/ Handler</text><rect fill="#E2E2F0" height="30.2969" rx="2.5" ry="2.5" style="stroke:#181818;stroke-width:0.5;" width="133" x="759.5" y="56.1328"/><text fill="#000000" font-family="sans-serif" font-size="14" lengthAdjust="spacing" text-decoration="underline" textLength="53" x="766.5" y="76.1279">domain</text><text fill="#000000" font-family="sans-serif" font-size="14" lengthAdjust="spacing" textLength="62" x="823.5" y="76.1279">/ Service</text><rect fill="#E2E2F0" height="30.2969" rx="2.5" ry="2.5" style="stroke:#181818;stroke-width:0.5;" width="133" x="759.5" y="783.8828"/><text fill="#000000" font-family="sans-serif" font-size="14" lengthAdjust="spacing" text-decoration="underline" textLength="53" x="766.5" y="803.8779">domain</text><text fill="#000000" font-family="sans-serif" font-size="14" lengthAdjust="spacing" textLength="62" x="823.5" y="803.8779">/ Service</text><rect fill="#E2E2F0" height="30.2969" rx="2.5" ry="2.5" style="stroke:#181818;stroke-width:0.5;" width="129" x="938.5" y="56.1328"/><text fill="#000000" font-family="sans-serif" font-size="14" lengthAdjust="spacing" text-decoration="underline" textLength="52" x="945.5" y="76.1279">models</text><text fill="#000000" font-family="sans-serif" font-size="14" lengthAdjust="spacing" textLength="59" x="1001.5" y="76.1279">/ Facade</text><rect fill="#E2E2F0" height="30.2969" rx="2.5" ry="2.5" style="stroke:#181818;stroke-width:0.5;" width="129" x="938.5" y="783.8828"/><text fill="#000000" font-family="sans-serif" font-size="14" lengthAdjust="spacing" text-decoration="underline" textLength="52" x="945.5" y="803.8779">models</text><text fill="#000000" font-family="sans-serif" font-size="14" lengthAdjust="spacing" textLength="59" x="1001.5" y="803.8779">/ Facade</text><text fill="#000000" font-family="sans-serif" font-size="14" lengthAdjust="spacing" textLength="132" x="1291" y="84.1279">TigerBeetle Client</text><ellipse cx="1360" cy="55.1328" fill="#E2E2F0" rx="12" ry="12" style="stroke:#181818;stroke-width:0.5;"/><polygon fill="#181818" points="1356,43.1328,1362,38.1328,1360,43.1328,1362,48.1328,1356,43.1328" style="stroke:#181818;stroke-width:1.0;"/><text fill="#000000" font-family="sans-serif" font-size="14" lengthAdjust="spacing" textLength="132" x="1291" y="796.8779">TigerBeetle Client</text><ellipse cx="1360" cy="816.1797" fill="#E2E2F0" rx="12" ry="12" style="stroke:#181818;stroke-width:0.5;"/><polygon fill="#181818" points="1356,804.1797,1362,799.1797,1360,804.1797,1362,809.1797,1356,804.1797" style="stroke:#181818;stroke-width:1.0;"/><rect fill="#E2E2F0" height="30.2969" style="stroke:#181818;stroke-width:0.5;" width="154" x="1466" y="52.1328"/><rect fill="#E2E2F0" height="30.2969" style="stroke:#181818;stroke-width:0.5;" width="154" x="1462" y="56.1328"/><text fill="#000000" font-family="sans-serif" font-size="14" lengthAdjust="spacing" textLength="140" x="1469" y="76.1279">TigerBeetle Cluster</text><rect fill="#E2E2F0" height="30.2969" style="stroke:#181818;stroke-width:0.5;" width="154" x="1466" y="783.8828"/><rect fill="#E2E2F0" height="30.2969" style="stroke:#181818;stroke-width:0.5;" width="154" x="1462" y="787.8828"/><text fill="#000000" font-family="sans-serif" font-size="14" lengthAdjust="spacing" textLength="140" x="1469" y="807.8779">TigerBeetle Cluster</text><text fill="#000000" font-family="sans-serif" font-size="14" lengthAdjust="spacing" textLength="103" x="1630" y="84.1279">central-ledger</text><path d="M1666.5,35.1328 C1666.5,25.1328 1684.5,25.1328 1684.5,25.1328 C1684.5,25.1328 1702.5,25.1328 1702.5,35.1328 L1702.5,61.1328 C1702.5,71.1328 1684.5,71.1328 1684.5,71.1328 C1684.5,71.1328 1666.5,71.1328 1666.5,61.1328 L1666.5,35.1328 " fill="#E2E2F0" style="stroke:#181818;stroke-width:1.5;"/><path d="M1666.5,35.1328 C1666.5,45.1328 1684.5,45.1328 1684.5,45.1328 C1684.5,45.1328 1702.5,45.1328 1702.5,35.1328 " fill="none" style="stroke:#181818;stroke-width:1.5;"/><text fill="#000000" font-family="sans-serif" font-size="14" lengthAdjust="spacing" textLength="103" x="1630" y="796.8779">central-ledger</text><path d="M1666.5,810.1797 C1666.5,800.1797 1684.5,800.1797 1684.5,800.1797 C1684.5,800.1797 1702.5,800.1797 1702.5,810.1797 L1702.5,836.1797 C1702.5,846.1797 1684.5,846.1797 1684.5,846.1797 C1684.5,846.1797 1666.5,846.1797 1666.5,836.1797 L1666.5,810.1797 " fill="#E2E2F0" style="stroke:#181818;stroke-width:1.5;"/><path d="M1666.5,810.1797 C1666.5,820.1797 1684.5,820.1797 1684.5,820.1797 C1684.5,820.1797 1702.5,820.1797 1702.5,810.1797 " fill="none" style="stroke:#181818;stroke-width:1.5;"/><path d="M12,102.4297 L12,142.4297 L162,142.4297 L162,112.4297 L152,102.4297 L12,102.4297 " fill="#FEFFDD" style="stroke:#181818;stroke-width:0.5;"/><path d="M152,102.4297 L152,112.4297 L162,112.4297 L152,102.4297 " fill="#FEFFDD" style="stroke:#181818;stroke-width:0.5;"/><ellipse cx="23.5" cy="115.0625" fill="#000000" rx="2.5" ry="2.5" style="stroke:#000000;stroke-width:0.0;"/><text fill="#000000" font-family="sans-serif" font-size="13" lengthAdjust="spacing" textLength="116" x="31" y="119.4966">Participant Bank A</text><ellipse cx="23.5" cy="130.1953" fill="#000000" rx="2.5" ry="2.5" style="stroke:#000000;stroke-width:0.0;"/><text fill="#000000" font-family="sans-serif" font-size="13" lengthAdjust="spacing" textLength="115" x="31" y="134.6294">Participant Bank B</text><path d="M217,152.6953 L217,177.6953 L422,177.6953 L422,162.6953 L412,152.6953 L217,152.6953 " fill="#FEFFDD" style="stroke:#181818;stroke-width:0.5;"/><path d="M412,152.6953 L412,162.6953 L422,162.6953 L412,152.6953 " fill="#FEFFDD" style="stroke:#181818;stroke-width:0.5;"/><text fill="#000000" font-family="sans-serif" font-size="13" lengthAdjust="spacing" textLength="184" x="223" y="169.7622">REST API deployed in NodeJS</text><path d="M533,187.8281 L533,227.8281 L764,227.8281 L764,197.8281 L754,187.8281 L533,187.8281 " fill="#FEFFDD" style="stroke:#181818;stroke-width:0.5;"/><path d="M754,187.8281 L754,197.8281 L764,197.8281 L754,187.8281 " fill="#FEFFDD" style="stroke:#181818;stroke-width:0.5;"/><text fill="#000000" font-family="sans-serif" font-size="13" lengthAdjust="spacing" textLength="171" x="539" y="204.895">JSON request decoded and</text><text fill="#000000" font-family="sans-serif" font-size="13" lengthAdjust="spacing" textLength="210" x="539" y="220.0278">sent for processing via a handler</text><path d="M710,238.0938 L710,278.0938 L941,278.0938 L941,248.0938 L931,238.0938 L710,238.0938 " fill="#FEFFDD" style="stroke:#181818;stroke-width:0.5;"/><path d="M931,238.0938 L931,248.0938 L941,248.0938 L931,238.0938 " fill="#FEFFDD" style="stroke:#181818;stroke-width:0.5;"/><text fill="#000000" font-family="sans-serif" font-size="13" lengthAdjust="spacing" textLength="210" x="716" y="255.1606">Domain folder where the service</text><text fill="#000000" font-family="sans-serif" font-size="13" lengthAdjust="spacing" textLength="147" x="716" y="270.2935">functions are exposed.</text><path d="M868,288.3594 L868,328.3594 L1138,328.3594 L1138,298.3594 L1128,288.3594 L868,288.3594 " fill="#FEFFDD" style="stroke:#181818;stroke-width:0.5;"/><path d="M1128,288.3594 L1128,298.3594 L1138,298.3594 L1128,288.3594 " fill="#FEFFDD" style="stroke:#181818;stroke-width:0.5;"/><text fill="#000000" font-family="sans-serif" font-size="13" lengthAdjust="spacing" textLength="249" x="874" y="305.4263">Facade for storing/retrieving data from</text><text fill="#000000" font-family="sans-serif" font-size="13" lengthAdjust="spacing" textLength="147" x="874" y="320.5591">MySQL and TigerBeetle</text><path d="M10,340.625 L225,340.625 L225,347.7578 L215,357.7578 L10,357.7578 L10,340.625 " fill="#EEEEEE" style="stroke:#000000;stroke-width:1.5;"/><rect fill="none" height="427.2578" style="stroke:#000000;stroke-width:1.5;" width="1739" x="10" y="340.625"/><text fill="#000000" font-family="sans-serif" font-size="13" font-weight="bold" lengthAdjust="spacing" textLength="170" x="25" y="353.6919">Lookup Transfer by ID</text><polygon fill="#181818" points="308,390.0234,318,394.0234,308,398.0234,312,394.0234" style="stroke:#181818;stroke-width:1.0;"/><line style="stroke:#181818;stroke-width:1.0;" x1="87" x2="314" y1="394.0234" y2="394.0234"/><text fill="#000000" font-family="sans-serif" font-size="13" font-weight="bold" lengthAdjust="spacing" textLength="9" x="94" y="381.3911">1</text><text fill="#000000" font-family="sans-serif" font-size="13" font-style="italic" lengthAdjust="spacing" textLength="32" x="107" y="373.8247">JSON</text><text fill="#000000" font-family="sans-serif" font-size="13" lengthAdjust="spacing" textLength="4" x="139" y="373.8247"> </text><text fill="#000000" font-family="sans-serif" font-size="13" font-weight="bold" lengthAdjust="spacing" textLength="25" x="107" y="388.9575">(id)</text><text fill="#000000" font-family="sans-serif" font-size="13" lengthAdjust="spacing" textLength="24" x="136" y="388.9575">and</text><text fill="#000000" font-family="sans-serif" font-size="13" font-weight="bold" lengthAdjust="spacing" textLength="139" x="164" y="388.9575">(participantName)</text><polygon fill="#181818" points="637,434.2891,647,438.2891,637,442.2891,641,438.2891" style="stroke:#181818;stroke-width:1.0;"/><line style="stroke:#181818;stroke-width:1.0;" x1="320" x2="643" y1="438.2891" y2="438.2891"/><text fill="#000000" font-family="sans-serif" font-size="13" font-weight="bold" lengthAdjust="spacing" textLength="9" x="327" y="425.6567">2</text><text fill="#000000" font-family="sans-serif" font-size="13" font-style="italic" lengthAdjust="spacing" textLength="132" x="340" y="418.0903">/jmeter/participants/</text><text fill="#000000" font-family="sans-serif" font-size="13" font-style="italic" font-weight="bold" lengthAdjust="spacing" textLength="59" x="472" y="418.0903">{name}</text><text fill="#000000" font-family="sans-serif" font-size="13" font-style="italic" lengthAdjust="spacing" textLength="66" x="531" y="418.0903">/transfers/</text><text fill="#000000" font-family="sans-serif" font-size="13" font-style="italic" font-weight="bold" lengthAdjust="spacing" textLength="31" x="597" y="418.0903">{id}</text><text fill="#000000" font-family="sans-serif" font-size="13" lengthAdjust="spacing" textLength="4" x="628" y="418.0903"> </text><text fill="#000000" font-family="sans-serif" font-size="13" lengthAdjust="spacing" textLength="107" x="340" y="433.2231">Handler invoked.</text><polygon fill="#181818" points="814,463.4219,824,467.4219,814,471.4219,818,467.4219" style="stroke:#181818;stroke-width:1.0;"/><line style="stroke:#181818;stroke-width:1.0;" x1="649" x2="820" y1="467.4219" y2="467.4219"/><text fill="#000000" font-family="sans-serif" font-size="13" font-weight="bold" lengthAdjust="spacing" textLength="8" x="656" y="462.356">3</text><text fill="#000000" font-family="sans-serif" font-size="13" lengthAdjust="spacing" textLength="141" x="668" y="462.356">Service layer invoked.</text><polygon fill="#181818" points="991,492.5547,1001,496.5547,991,500.5547,995,496.5547" style="stroke:#181818;stroke-width:1.0;"/><line style="stroke:#181818;stroke-width:1.0;" x1="826" x2="997" y1="496.5547" y2="496.5547"/><text fill="#000000" font-family="sans-serif" font-size="13" font-weight="bold" lengthAdjust="spacing" textLength="9" x="833" y="491.4888">4</text><text fill="#000000" font-family="sans-serif" font-size="13" lengthAdjust="spacing" textLength="140" x="846" y="491.4888">Facade layer invoked.</text><polygon fill="#181818" points="1348,521.6875,1358,525.6875,1348,529.6875,1352,525.6875" style="stroke:#181818;stroke-width:1.0;"/><line style="stroke:#181818;stroke-width:1.0;" x1="1003" x2="1354" y1="525.6875" y2="525.6875"/><text fill="#000000" font-family="sans-serif" font-size="13" font-weight="bold" lengthAdjust="spacing" textLength="9" x="1010" y="520.6216">5</text><text fill="#000000" font-family="sans-serif" font-size="13" font-style="italic" lengthAdjust="spacing" textLength="51" x="1023" y="520.6216">transfer</text><text fill="#000000" font-family="sans-serif" font-size="13" lengthAdjust="spacing" textLength="265" x="1078" y="520.6216">lookup requested via the CL-TB interface.</text><polygon fill="#181818" points="1371,565.9531,1361,569.9531,1371,573.9531,1367,569.9531" style="stroke:#181818;stroke-width:1.0;"/><polygon fill="#181818" points="1529,565.9531,1539,569.9531,1529,573.9531,1533,569.9531" style="stroke:#181818;stroke-width:1.0;"/><line style="stroke:#181818;stroke-width:1.0;" x1="1365" x2="1535" y1="569.9531" y2="569.9531"/><text fill="#000000" font-family="sans-serif" font-size="13" font-weight="bold" lengthAdjust="spacing" textLength="9" x="1377" y="557.3208">6</text><text fill="#000000" font-family="sans-serif" font-size="13" font-style="italic" lengthAdjust="spacing" textLength="51" x="1390" y="549.7544">transfer</text><text fill="#000000" font-family="sans-serif" font-size="13" lengthAdjust="spacing" textLength="49" x="1445" y="549.7544">fetched</text><text fill="#000000" font-family="sans-serif" font-size="13" lengthAdjust="spacing" textLength="144" x="1390" y="564.8872">via the state machine.</text><polygon fill="#181818" points="1014,595.0859,1004,599.0859,1014,603.0859,1010,599.0859" style="stroke:#181818;stroke-width:1.0;"/><line style="stroke:#181818;stroke-width:1.0;stroke-dasharray:2.0,2.0;" x1="1008" x2="1359" y1="599.0859" y2="599.0859"/><text fill="#000000" font-family="sans-serif" font-size="13" font-weight="bold" lengthAdjust="spacing" textLength="9" x="1020" y="594.02">7</text><text fill="#000000" font-family="sans-serif" font-size="13" font-style="italic" lengthAdjust="spacing" textLength="51" x="1033" y="594.02">transfer</text><text fill="#000000" font-family="sans-serif" font-size="13" lengthAdjust="spacing" textLength="33" x="1088" y="594.02">data.</text><polygon fill="#181818" points="1014,639.3516,1004,643.3516,1014,647.3516,1010,643.3516" style="stroke:#181818;stroke-width:1.0;"/><polygon fill="#181818" points="1672.5,639.3516,1682.5,643.3516,1672.5,647.3516,1676.5,643.3516" style="stroke:#181818;stroke-width:1.0;"/><line style="stroke:#181818;stroke-width:1.0;" x1="1008" x2="1678.5" y1="643.3516" y2="643.3516"/><text fill="#000000" font-family="sans-serif" font-size="13" font-weight="bold" lengthAdjust="spacing" textLength="9" x="1020" y="630.7192">8</text><text fill="#000000" font-family="sans-serif" font-size="13" lengthAdjust="spacing" textLength="63" x="1033" y="623.1528">Additional</text><text fill="#000000" font-family="sans-serif" font-size="13" font-style="italic" lengthAdjust="spacing" textLength="54" x="1100" y="623.1528">Transfer</text><text fill="#000000" font-family="sans-serif" font-size="13" lengthAdjust="spacing" textLength="362" x="1158" y="623.1528">meta-data is fetched from the Central-Ledger database.</text><text fill="#000000" font-family="sans-serif" font-size="13" font-style="italic" font-weight="bold" lengthAdjust="spacing" textLength="75" x="1033" y="638.2856">OPTIONAL</text><polygon fill="#181818" points="837,668.4844,827,672.4844,837,676.4844,833,672.4844" style="stroke:#181818;stroke-width:1.0;"/><line style="stroke:#181818;stroke-width:1.0;stroke-dasharray:2.0,2.0;" x1="831" x2="1002" y1="672.4844" y2="672.4844"/><text fill="#000000" font-family="sans-serif" font-size="13" font-weight="bold" lengthAdjust="spacing" textLength="9" x="843" y="667.4185">9</text><text fill="#000000" font-family="sans-serif" font-size="13" lengthAdjust="spacing" textLength="87" x="856" y="667.4185">Return result.</text><polygon fill="#181818" points="660,697.6172,650,701.6172,660,705.6172,656,701.6172" style="stroke:#181818;stroke-width:1.0;"/><line style="stroke:#181818;stroke-width:1.0;stroke-dasharray:2.0,2.0;" x1="654" x2="825" y1="701.6172" y2="701.6172"/><text fill="#000000" font-family="sans-serif" font-size="13" font-weight="bold" lengthAdjust="spacing" textLength="19" x="666" y="696.5513">10</text><text fill="#000000" font-family="sans-serif" font-size="13" lengthAdjust="spacing" textLength="87" x="689" y="696.5513">Return result.</text><polygon fill="#181818" points="331,726.75,321,730.75,331,734.75,327,730.75" style="stroke:#181818;stroke-width:1.0;"/><line style="stroke:#181818;stroke-width:1.0;stroke-dasharray:2.0,2.0;" x1="325" x2="648" y1="730.75" y2="730.75"/><text fill="#000000" font-family="sans-serif" font-size="13" font-weight="bold" lengthAdjust="spacing" textLength="18" x="337" y="725.6841">11</text><text fill="#000000" font-family="sans-serif" font-size="13" lengthAdjust="spacing" textLength="87" x="359" y="725.6841">Return result.</text><polygon fill="#181818" points="98,755.8828,88,759.8828,98,763.8828,94,759.8828" style="stroke:#181818;stroke-width:1.0;"/><line style="stroke:#181818;stroke-width:1.0;stroke-dasharray:2.0,2.0;" x1="92" x2="319" y1="759.8828" y2="759.8828"/><text fill="#000000" font-family="sans-serif" font-size="13" font-weight="bold" lengthAdjust="spacing" textLength="18" x="104" y="754.8169">12</text><text fill="#000000" font-family="sans-serif" font-size="13" lengthAdjust="spacing" textLength="87" x="126" y="754.8169">Return result.</text><!--MD5=[97668496a654f95942b558dd3d60c94e]
@startuml
entity "Mojaloop Adapter" as dfsp
note over dfsp
    * Participant Bank A
    * Participant Bank B
end note

box Central-Ledger #FFFFF9
    participant "**API**" as cl_api
    participant "__api__ / Handler" as cl_handler
    participant "__domain__ / Service" as cl_domain
    participant "__models__ / Facade" as cl_facade

    note over cl_api
        REST API deployed in NodeJS
    end note

    note over cl_handler
        JSON request decoded and
        sent for processing via a handler
    end note

    note over cl_domain
        Domain folder where the service
        functions are exposed.
    end note

    note over cl_facade
        Facade for storing/retrieving data from
        MySQL and TigerBeetle
    end note
end box

box Storage #F9FFF9
	control "TigerBeetle Client" as tb_client
	collections "TigerBeetle Cluster" as tb_nodes
    database "central-ledger" as cl_db
end box

autonumber
group Lookup Transfer by ID
    dfsp -> cl_api : //JSON// \n**(id)** and **(participantName)**
    cl_api -> cl_handler : ///jmeter/participants/**{name}**/transfers/**{id}**// \nHandler invoked.
    cl_handler -> cl_domain : Service layer invoked.
    cl_domain -> cl_facade : Facade layer invoked.
    cl_facade -> tb_client : //transfer// lookup requested via the CL-TB interface.
    tb_client <-> tb_nodes : //transfer// fetched\nvia the state machine.
    tb_client - -> cl_facade : //transfer// data.
    cl_facade <-> cl_db : Additional //Transfer// meta-data is fetched from the Central-Ledger database.\n**//OPTIONAL//**
    cl_facade - -> cl_domain : Return result.
    cl_domain - -> cl_handler : Return result.
    cl_handler - -> cl_api : Return result.
    cl_api - -> dfsp : Return result.
end
@enduml

PlantUML version 1.2022.4beta2(Unknown compile time)
(GPL source distribution)
Java Runtime: Java(TM) SE Runtime Environment
JVM: Java HotSpot(TM) 64-Bit Server VM
Default Encoding: UTF-8
Language: en
Country: US
--></g></svg>