<?xml version="1.0" encoding="UTF-8" standalone="no"?><svg xmlns="http://www.w3.org/2000/svg" xmlns:xlink="http://www.w3.org/1999/xlink" contentStyleType="text/css" height="951px" preserveAspectRatio="none" style="width:1500px;height:951px;background:#FFFFFF;" version="1.1" viewBox="0 0 1500 951" width="1500px" zoomAndPan="magnify"><defs/><g><rect fill="#FFFFF9" height="932.7109" style="stroke:#181818;stroke-width:0.5;" width="602.5" x="191" y="6"/><text fill="#000000" font-family="sans-serif" font-size="13" font-weight="bold" lengthAdjust="spacing" textLength="113" x="433.25" y="18.0669">Central-Ledger</text><rect fill="#F9FFF9" height="932.7109" style="stroke:#181818;stroke-width:0.5;" width="494" x="994" y="6"/><text fill="#000000" font-family="sans-serif" font-size="13" font-weight="bold" lengthAdjust="spacing" textLength="61" x="1208" y="18.0669">Storage</text><rect height="515.7891" style="stroke:#000000;stroke-width:1.5;fill:none;" width="1484" x="10" y="340.625"/><line style="stroke:#181818;stroke-width:0.5;fill:none;stroke-dasharray:5.0,5.0;" x1="87" x2="87" y1="87.4297" y2="873.4141"/><line style="stroke:#181818;stroke-width:0.5;fill:none;stroke-dasharray:5.0,5.0;" x1="215" x2="215" y1="87.4297" y2="873.4141"/><line style="stroke:#181818;stroke-width:0.5;fill:none;stroke-dasharray:5.0,5.0;" x1="447" x2="447" y1="87.4297" y2="873.4141"/><line style="stroke:#181818;stroke-width:0.5;fill:none;stroke-dasharray:5.0,5.0;" x1="583.5" x2="583.5" y1="87.4297" y2="873.4141"/><line style="stroke:#181818;stroke-width:0.5;fill:none;stroke-dasharray:5.0,5.0;" x1="724.5" x2="724.5" y1="87.4297" y2="873.4141"/><line style="stroke:#181818;stroke-width:0.5;fill:none;stroke-dasharray:5.0,5.0;" x1="1067" x2="1067" y1="87.4297" y2="873.4141"/><line style="stroke:#181818;stroke-width:0.5;fill:none;stroke-dasharray:5.0,5.0;" x1="1231" x2="1231" y1="87.4297" y2="873.4141"/><line style="stroke:#181818;stroke-width:0.5;fill:none;stroke-dasharray:5.0,5.0;" x1="1374" x2="1374" y1="87.4297" y2="873.4141"/><line style="stroke:#181818;stroke-width:0.5;fill:none;stroke-dasharray:5.0,5.0;" x1="1461" x2="1461" y1="87.4297" y2="873.4141"/><text fill="#000000" font-family="sans-serif" font-size="14" lengthAdjust="spacing" textLength="128" x="20" y="84.1279">Mojaloop Adapter</text><ellipse cx="87" cy="55.1328" fill="#E2E2F0" rx="12" ry="12" style="stroke:#181818;stroke-width:0.5;"/><line style="stroke:#181818;stroke-width:0.5;" x1="75" x2="99" y1="69.1328" y2="69.1328"/><text fill="#000000" font-family="sans-serif" font-size="14" lengthAdjust="spacing" textLength="128" x="20" y="885.4092">Mojaloop Adapter</text><ellipse cx="87" cy="904.7109" fill="#E2E2F0" rx="12" ry="12" style="stroke:#181818;stroke-width:0.5;"/><line style="stroke:#181818;stroke-width:0.5;" x1="75" x2="99" y1="918.7109" y2="918.7109"/><rect fill="#E2E2F0" height="30.2969" rx="2.5" ry="2.5" style="stroke:#181818;stroke-width:0.5;" width="40" x="195" y="56.1328"/><text fill="#000000" font-family="sans-serif" font-size="14" font-weight="bold" lengthAdjust="spacing" textLength="26" x="202" y="76.1279">API</text><rect fill="#E2E2F0" height="30.2969" rx="2.5" ry="2.5" style="stroke:#181818;stroke-width:0.5;" width="40" x="195" y="872.4141"/><text fill="#000000" font-family="sans-serif" font-size="14" font-weight="bold" lengthAdjust="spacing" textLength="26" x="202" y="892.4092">API</text><rect fill="#E2E2F0" height="30.2969" rx="2.5" ry="2.5" style="stroke:#181818;stroke-width:0.5;" width="104" x="395" y="56.1328"/><text fill="#000000" font-family="sans-serif" font-size="14" lengthAdjust="spacing" text-decoration="underline" textLength="22" x="402" y="76.1279">api</text><text fill="#000000" font-family="sans-serif" font-size="14" lengthAdjust="spacing" textLength="64" x="428" y="76.1279">/ Handler</text><rect fill="#E2E2F0" height="30.2969" rx="2.5" ry="2.5" style="stroke:#181818;stroke-width:0.5;" width="104" x="395" y="872.4141"/><text fill="#000000" font-family="sans-serif" font-size="14" lengthAdjust="spacing" text-decoration="underline" textLength="22" x="402" y="892.4092">api</text><text fill="#000000" font-family="sans-serif" font-size="14" lengthAdjust="spacing" textLength="64" x="428" y="892.4092">/ Handler</text><rect fill="#E2E2F0" height="30.2969" rx="2.5" ry="2.5" style="stroke:#181818;stroke-width:0.5;" width="133" x="517.5" y="56.1328"/><text fill="#000000" font-family="sans-serif" font-size="14" lengthAdjust="spacing" text-decoration="underline" textLength="53" x="524.5" y="76.1279">domain</text><text fill="#000000" font-family="sans-serif" font-size="14" lengthAdjust="spacing" textLength="62" x="581.5" y="76.1279">/ Service</text><rect fill="#E2E2F0" height="30.2969" rx="2.5" ry="2.5" style="stroke:#181818;stroke-width:0.5;" width="133" x="517.5" y="872.4141"/><text fill="#000000" font-family="sans-serif" font-size="14" lengthAdjust="spacing" text-decoration="underline" textLength="53" x="524.5" y="892.4092">domain</text><text fill="#000000" font-family="sans-serif" font-size="14" lengthAdjust="spacing" textLength="62" x="581.5" y="892.4092">/ Service</text><rect fill="#E2E2F0" height="30.2969" rx="2.5" ry="2.5" style="stroke:#181818;stroke-width:0.5;" width="129" x="660.5" y="56.1328"/><text fill="#000000" font-family="sans-serif" font-size="14" lengthAdjust="spacing" text-decoration="underline" textLength="52" x="667.5" y="76.1279">models</text><text fill="#000000" font-family="sans-serif" font-size="14" lengthAdjust="spacing" textLength="59" x="723.5" y="76.1279">/ Facade</text><rect fill="#E2E2F0" height="30.2969" rx="2.5" ry="2.5" style="stroke:#181818;stroke-width:0.5;" width="129" x="660.5" y="872.4141"/><text fill="#000000" font-family="sans-serif" font-size="14" lengthAdjust="spacing" text-decoration="underline" textLength="52" x="667.5" y="892.4092">models</text><text fill="#000000" font-family="sans-serif" font-size="14" lengthAdjust="spacing" textLength="59" x="723.5" y="892.4092">/ Facade</text><text fill="#000000" font-family="sans-serif" font-size="14" lengthAdjust="spacing" textLength="132" x="998" y="84.1279">TigerBeetle Client</text><ellipse cx="1067" cy="55.1328" fill="#E2E2F0" rx="12" ry="12" style="stroke:#181818;stroke-width:0.5;"/><polygon fill="#181818" points="1063,43.1328,1069,38.1328,1067,43.1328,1069,48.1328,1063,43.1328" style="stroke:#181818;stroke-width:1.0;"/><text fill="#000000" font-family="sans-serif" font-size="14" lengthAdjust="spacing" textLength="132" x="998" y="885.4092">TigerBeetle Client</text><ellipse cx="1067" cy="904.7109" fill="#E2E2F0" rx="12" ry="12" style="stroke:#181818;stroke-width:0.5;"/><polygon fill="#181818" points="1063,892.7109,1069,887.7109,1067,892.7109,1069,897.7109,1063,892.7109" style="stroke:#181818;stroke-width:1.0;"/><rect fill="#E2E2F0" height="30.2969" style="stroke:#181818;stroke-width:0.5;" width="154" x="1156" y="52.1328"/><rect fill="#E2E2F0" height="30.2969" style="stroke:#181818;stroke-width:0.5;" width="154" x="1152" y="56.1328"/><text fill="#000000" font-family="sans-serif" font-size="14" lengthAdjust="spacing" textLength="140" x="1159" y="76.1279">TigerBeetle Cluster</text><rect fill="#E2E2F0" height="30.2969" style="stroke:#181818;stroke-width:0.5;" width="154" x="1156" y="872.4141"/><rect fill="#E2E2F0" height="30.2969" style="stroke:#181818;stroke-width:0.5;" width="154" x="1152" y="876.4141"/><text fill="#000000" font-family="sans-serif" font-size="14" lengthAdjust="spacing" textLength="140" x="1159" y="896.4092">TigerBeetle Cluster</text><text fill="#000000" font-family="sans-serif" font-size="14" lengthAdjust="spacing" textLength="103" x="1320" y="84.1279">central-ledger</text><path d="M1356.5,35.1328 C1356.5,25.1328 1374.5,25.1328 1374.5,25.1328 C1374.5,25.1328 1392.5,25.1328 1392.5,35.1328 L1392.5,61.1328 C1392.5,71.1328 1374.5,71.1328 1374.5,71.1328 C1374.5,71.1328 1356.5,71.1328 1356.5,61.1328 L1356.5,35.1328 " fill="#E2E2F0" style="stroke:#181818;stroke-width:1.5;"/><path d="M1356.5,35.1328 C1356.5,45.1328 1374.5,45.1328 1374.5,45.1328 C1374.5,45.1328 1392.5,45.1328 1392.5,35.1328 " fill="none" style="stroke:#181818;stroke-width:1.5;"/><text fill="#000000" font-family="sans-serif" font-size="14" lengthAdjust="spacing" textLength="103" x="1320" y="885.4092">central-ledger</text><path d="M1356.5,898.7109 C1356.5,888.7109 1374.5,888.7109 1374.5,888.7109 C1374.5,888.7109 1392.5,888.7109 1392.5,898.7109 L1392.5,924.7109 C1392.5,934.7109 1374.5,934.7109 1374.5,934.7109 C1374.5,934.7109 1356.5,934.7109 1356.5,924.7109 L1356.5,898.7109 " fill="#E2E2F0" style="stroke:#181818;stroke-width:1.5;"/><path d="M1356.5,898.7109 C1356.5,908.7109 1374.5,908.7109 1374.5,908.7109 C1374.5,908.7109 1392.5,908.7109 1392.5,898.7109 " fill="none" style="stroke:#181818;stroke-width:1.5;"/><text fill="#000000" font-family="sans-serif" font-size="14" lengthAdjust="spacing" textLength="39" x="1439" y="84.1279">Redis</text><path d="M1443.5,35.1328 C1443.5,25.1328 1461.5,25.1328 1461.5,25.1328 C1461.5,25.1328 1479.5,25.1328 1479.5,35.1328 L1479.5,61.1328 C1479.5,71.1328 1461.5,71.1328 1461.5,71.1328 C1461.5,71.1328 1443.5,71.1328 1443.5,61.1328 L1443.5,35.1328 " fill="#E2E2F0" style="stroke:#181818;stroke-width:1.5;"/><path d="M1443.5,35.1328 C1443.5,45.1328 1461.5,45.1328 1461.5,45.1328 C1461.5,45.1328 1479.5,45.1328 1479.5,35.1328 " fill="none" style="stroke:#181818;stroke-width:1.5;"/><text fill="#000000" font-family="sans-serif" font-size="14" lengthAdjust="spacing" textLength="39" x="1439" y="885.4092">Redis</text><path d="M1443.5,898.7109 C1443.5,888.7109 1461.5,888.7109 1461.5,888.7109 C1461.5,888.7109 1479.5,888.7109 1479.5,898.7109 L1479.5,924.7109 C1479.5,934.7109 1461.5,934.7109 1461.5,934.7109 C1461.5,934.7109 1443.5,934.7109 1443.5,924.7109 L1443.5,898.7109 " fill="#E2E2F0" style="stroke:#181818;stroke-width:1.5;"/><path d="M1443.5,898.7109 C1443.5,908.7109 1461.5,908.7109 1461.5,908.7109 C1461.5,908.7109 1479.5,908.7109 1479.5,898.7109 " fill="none" style="stroke:#181818;stroke-width:1.5;"/><path d="M12,102.4297 L12,142.4297 L162,142.4297 L162,112.4297 L152,102.4297 L12,102.4297 " fill="#FEFFDD" style="stroke:#181818;stroke-width:0.5;"/><path d="M152,102.4297 L152,112.4297 L162,112.4297 L152,102.4297 " fill="#FEFFDD" style="stroke:#181818;stroke-width:0.5;"/><ellipse cx="23.5" cy="115.0625" fill="#000000" rx="2.5" ry="2.5" style="stroke:#000000;stroke-width:0.0;"/><text fill="#000000" font-family="sans-serif" font-size="13" lengthAdjust="spacing" textLength="116" x="31" y="119.4966">Participant Bank A</text><ellipse cx="23.5" cy="130.1953" fill="#000000" rx="2.5" ry="2.5" style="stroke:#000000;stroke-width:0.0;"/><text fill="#000000" font-family="sans-serif" font-size="13" lengthAdjust="spacing" textLength="115" x="31" y="134.6294">Participant Bank B</text><path d="M112,152.6953 L112,177.6953 L317,177.6953 L317,162.6953 L307,152.6953 L112,152.6953 " fill="#FEFFDD" style="stroke:#181818;stroke-width:0.5;"/><path d="M307,152.6953 L307,162.6953 L317,162.6953 L307,152.6953 " fill="#FEFFDD" style="stroke:#181818;stroke-width:0.5;"/><text fill="#000000" font-family="sans-serif" font-size="13" lengthAdjust="spacing" textLength="184" x="118" y="169.7622">REST API deployed in NodeJS</text><path d="M331,187.8281 L331,227.8281 L562,227.8281 L562,197.8281 L552,187.8281 L331,187.8281 " fill="#FEFFDD" style="stroke:#181818;stroke-width:0.5;"/><path d="M552,187.8281 L552,197.8281 L562,197.8281 L552,187.8281 " fill="#FEFFDD" style="stroke:#181818;stroke-width:0.5;"/><text fill="#000000" font-family="sans-serif" font-size="13" lengthAdjust="spacing" textLength="171" x="337" y="204.895">JSON request decoded and</text><text fill="#000000" font-family="sans-serif" font-size="13" lengthAdjust="spacing" textLength="210" x="337" y="220.0278">sent for processing via a handler</text><path d="M468,238.0938 L468,278.0938 L699,278.0938 L699,248.0938 L689,238.0938 L468,238.0938 " fill="#FEFFDD" style="stroke:#181818;stroke-width:0.5;"/><path d="M689,238.0938 L689,248.0938 L699,248.0938 L689,238.0938 " fill="#FEFFDD" style="stroke:#181818;stroke-width:0.5;"/><text fill="#000000" font-family="sans-serif" font-size="13" lengthAdjust="spacing" textLength="210" x="474" y="255.1606">Domain folder where the service</text><text fill="#000000" font-family="sans-serif" font-size="13" lengthAdjust="spacing" textLength="147" x="474" y="270.2935">functions are exposed.</text><path d="M590,288.3594 L590,328.3594 L860,328.3594 L860,298.3594 L850,288.3594 L590,288.3594 " fill="#FEFFDD" style="stroke:#181818;stroke-width:0.5;"/><path d="M850,288.3594 L850,298.3594 L860,298.3594 L850,288.3594 " fill="#FEFFDD" style="stroke:#181818;stroke-width:0.5;"/><text fill="#000000" font-family="sans-serif" font-size="13" lengthAdjust="spacing" textLength="249" x="596" y="305.4263">Facade for storing/retrieving data from</text><text fill="#000000" font-family="sans-serif" font-size="13" lengthAdjust="spacing" textLength="147" x="596" y="320.5591">MySQL and TigerBeetle</text><path d="M10,340.625 L270,340.625 L270,347.7578 L260,357.7578 L10,357.7578 L10,340.625 " fill="#EEEEEE" style="stroke:#000000;stroke-width:1.5;"/><rect fill="none" height="515.7891" style="stroke:#000000;stroke-width:1.5;" width="1484" x="10" y="340.625"/><text fill="#000000" font-family="sans-serif" font-size="13" font-weight="bold" lengthAdjust="spacing" textLength="215" x="25" y="353.6919">Lookup Participant by Name</text><polygon fill="#181818" points="203,390.0234,213,394.0234,203,398.0234,207,394.0234" style="stroke:#181818;stroke-width:1.0;"/><line style="stroke:#181818;stroke-width:1.0;" x1="87" x2="209" y1="394.0234" y2="394.0234"/><text fill="#000000" font-family="sans-serif" font-size="13" font-weight="bold" lengthAdjust="spacing" textLength="9" x="94" y="381.3911">1</text><text fill="#000000" font-family="sans-serif" font-size="13" font-style="italic" lengthAdjust="spacing" textLength="32" x="107" y="373.8247">JSON</text><text fill="#000000" font-family="sans-serif" font-size="13" lengthAdjust="spacing" textLength="4" x="139" y="373.8247"> </text><text fill="#000000" font-family="sans-serif" font-size="13" font-weight="bold" lengthAdjust="spacing" textLength="53" x="107" y="388.9575">(name)</text><polygon fill="#181818" points="435,434.2891,445,438.2891,435,442.2891,439,438.2891" style="stroke:#181818;stroke-width:1.0;"/><line style="stroke:#181818;stroke-width:1.0;" x1="215" x2="441" y1="438.2891" y2="438.2891"/><text fill="#000000" font-family="sans-serif" font-size="13" font-weight="bold" lengthAdjust="spacing" textLength="9" x="222" y="425.6567">2</text><text fill="#000000" font-family="sans-serif" font-size="13" font-style="italic" lengthAdjust="spacing" textLength="132" x="235" y="418.0903">/jmeter/participants/</text><text fill="#000000" font-family="sans-serif" font-size="13" font-style="italic" font-weight="bold" lengthAdjust="spacing" textLength="59" x="367" y="418.0903">{name}</text><text fill="#000000" font-family="sans-serif" font-size="13" lengthAdjust="spacing" textLength="4" x="426" y="418.0903"> </text><text fill="#000000" font-family="sans-serif" font-size="13" lengthAdjust="spacing" textLength="103" x="235" y="433.2231">Handler invoked</text><polygon fill="#181818" points="572,463.4219,582,467.4219,572,471.4219,576,467.4219" style="stroke:#181818;stroke-width:1.0;"/><line style="stroke:#181818;stroke-width:1.0;" x1="447" x2="578" y1="467.4219" y2="467.4219"/><text fill="#000000" font-family="sans-serif" font-size="13" font-weight="bold" lengthAdjust="spacing" textLength="8" x="454" y="462.356">3</text><text fill="#000000" font-family="sans-serif" font-size="13" lengthAdjust="spacing" textLength="101" x="466" y="462.356">Service invoked</text><polygon fill="#181818" points="713,492.5547,723,496.5547,713,500.5547,717,496.5547" style="stroke:#181818;stroke-width:1.0;"/><line style="stroke:#181818;stroke-width:1.0;" x1="584" x2="719" y1="496.5547" y2="496.5547"/><text fill="#000000" font-family="sans-serif" font-size="13" font-weight="bold" lengthAdjust="spacing" textLength="9" x="591" y="491.4888">4</text><text fill="#000000" font-family="sans-serif" font-size="13" lengthAdjust="spacing" textLength="100" x="604" y="491.4888">Facade invoked</text><polygon fill="#181818" points="736,521.6875,726,525.6875,736,529.6875,732,525.6875" style="stroke:#181818;stroke-width:1.0;"/><polygon fill="#181818" points="1449.5,521.6875,1459.5,525.6875,1449.5,529.6875,1453.5,525.6875" style="stroke:#181818;stroke-width:1.0;"/><line style="stroke:#181818;stroke-width:1.0;" x1="730" x2="1455.5" y1="525.6875" y2="525.6875"/><text fill="#000000" font-family="sans-serif" font-size="13" font-weight="bold" lengthAdjust="spacing" textLength="9" x="742" y="520.6216">5</text><text fill="#000000" font-family="sans-serif" font-size="13" lengthAdjust="spacing" textLength="347" x="755" y="520.6216">Account id for participant is obtained via Redis lookup.</text><polygon fill="#181818" points="736,581.0859,726,585.0859,736,589.0859,732,585.0859" style="stroke:#181818;stroke-width:1.0;"/><polygon fill="#181818" points="1362.5,581.0859,1372.5,585.0859,1362.5,589.0859,1366.5,585.0859" style="stroke:#181818;stroke-width:1.0;"/><line style="stroke:#181818;stroke-width:1.0;stroke-dasharray:2.0,2.0;" x1="730" x2="1368.5" y1="585.0859" y2="585.0859"/><text fill="#000000" font-family="sans-serif" font-size="13" lengthAdjust="spacing" textLength="296" x="742" y="549.7544">If the participant data is not available in Redis,</text><text fill="#000000" font-family="sans-serif" font-size="13" lengthAdjust="spacing" textLength="427" x="742" y="564.8872">a database lookup is performed followed by storing the participant</text><text fill="#000000" font-family="sans-serif" font-size="13" lengthAdjust="spacing" textLength="129" x="742" y="580.02">data in Redis cache.</text><polygon fill="#181818" points="1055,610.2188,1065,614.2188,1055,618.2188,1059,614.2188" style="stroke:#181818;stroke-width:1.0;"/><line style="stroke:#181818;stroke-width:1.0;" x1="725" x2="1061" y1="614.2188" y2="614.2188"/><text fill="#000000" font-family="sans-serif" font-size="13" font-weight="bold" lengthAdjust="spacing" textLength="9" x="732" y="609.1528">6</text><text fill="#000000" font-family="sans-serif" font-size="13" lengthAdjust="spacing" textLength="305" x="745" y="609.1528">Account lookup using id via the CL-TB interface.</text><polygon fill="#181818" points="1078,654.4844,1068,658.4844,1078,662.4844,1074,658.4844" style="stroke:#181818;stroke-width:1.0;"/><polygon fill="#181818" points="1219,654.4844,1229,658.4844,1219,662.4844,1223,658.4844" style="stroke:#181818;stroke-width:1.0;"/><line style="stroke:#181818;stroke-width:1.0;" x1="1072" x2="1225" y1="658.4844" y2="658.4844"/><text fill="#000000" font-family="sans-serif" font-size="13" font-weight="bold" lengthAdjust="spacing" textLength="9" x="1084" y="645.8521">7</text><text fill="#000000" font-family="sans-serif" font-size="13" lengthAdjust="spacing" textLength="72" x="1097" y="638.2856">TigerBeetle</text><text fill="#000000" font-family="sans-serif" font-size="13" font-style="italic" lengthAdjust="spacing" textLength="51" x="1173" y="638.2856">account</text><text fill="#000000" font-family="sans-serif" font-size="13" lengthAdjust="spacing" textLength="53" x="1101" y="653.4185">fetched.</text><polygon fill="#181818" points="736,683.6172,726,687.6172,736,691.6172,732,687.6172" style="stroke:#181818;stroke-width:1.0;"/><line style="stroke:#181818;stroke-width:1.0;stroke-dasharray:2.0,2.0;" x1="730" x2="1066" y1="687.6172" y2="687.6172"/><text fill="#000000" font-family="sans-serif" font-size="13" font-weight="bold" lengthAdjust="spacing" textLength="9" x="742" y="682.5513">8</text><text fill="#000000" font-family="sans-serif" font-size="13" font-style="italic" lengthAdjust="spacing" textLength="51" x="755" y="682.5513">account</text><text fill="#000000" font-family="sans-serif" font-size="13" lengthAdjust="spacing" textLength="92" x="810" y="682.5513">data returned.</text><polygon fill="#181818" points="736,727.8828,726,731.8828,736,735.8828,732,731.8828" style="stroke:#181818;stroke-width:1.0;"/><polygon fill="#181818" points="1362.5,727.8828,1372.5,731.8828,1362.5,735.8828,1366.5,731.8828" style="stroke:#181818;stroke-width:1.0;"/><line style="stroke:#181818;stroke-width:1.0;" x1="730" x2="1368.5" y1="731.8828" y2="731.8828"/><text fill="#000000" font-family="sans-serif" font-size="13" font-weight="bold" lengthAdjust="spacing" textLength="9" x="742" y="719.2505">9</text><text fill="#000000" font-family="sans-serif" font-size="13" lengthAdjust="spacing" textLength="424" x="755" y="711.6841">Additional meta-data is fetched from the CentralLedger database.</text><text fill="#000000" font-family="sans-serif" font-size="13" font-style="italic" font-weight="bold" lengthAdjust="spacing" textLength="75" x="755" y="726.8169">OPTIONAL</text><polygon fill="#181818" points="595,757.0156,585,761.0156,595,765.0156,591,761.0156" style="stroke:#181818;stroke-width:1.0;"/><line style="stroke:#181818;stroke-width:1.0;stroke-dasharray:2.0,2.0;" x1="589" x2="724" y1="761.0156" y2="761.0156"/><text fill="#000000" font-family="sans-serif" font-size="13" font-weight="bold" lengthAdjust="spacing" textLength="19" x="601" y="755.9497">10</text><text fill="#000000" font-family="sans-serif" font-size="13" lengthAdjust="spacing" textLength="83" x="624" y="755.9497">Return result</text><polygon fill="#181818" points="458,786.1484,448,790.1484,458,794.1484,454,790.1484" style="stroke:#181818;stroke-width:1.0;"/><line style="stroke:#181818;stroke-width:1.0;stroke-dasharray:2.0,2.0;" x1="452" x2="583" y1="790.1484" y2="790.1484"/><text fill="#000000" font-family="sans-serif" font-size="13" font-weight="bold" lengthAdjust="spacing" textLength="18" x="464" y="785.0825">11</text><text fill="#000000" font-family="sans-serif" font-size="13" lengthAdjust="spacing" textLength="83" x="486" y="785.0825">Return result</text><polygon fill="#181818" points="226,815.2813,216,819.2813,226,823.2813,222,819.2813" style="stroke:#181818;stroke-width:1.0;"/><line style="stroke:#181818;stroke-width:1.0;stroke-dasharray:2.0,2.0;" x1="220" x2="446" y1="819.2813" y2="819.2813"/><text fill="#000000" font-family="sans-serif" font-size="13" font-weight="bold" lengthAdjust="spacing" textLength="18" x="232" y="814.2153">12</text><text fill="#000000" font-family="sans-serif" font-size="13" lengthAdjust="spacing" textLength="83" x="254" y="814.2153">Return result</text><polygon fill="#181818" points="98,844.4141,88,848.4141,98,852.4141,94,848.4141" style="stroke:#181818;stroke-width:1.0;"/><line style="stroke:#181818;stroke-width:1.0;stroke-dasharray:2.0,2.0;" x1="92" x2="214" y1="848.4141" y2="848.4141"/><text fill="#000000" font-family="sans-serif" font-size="13" font-weight="bold" lengthAdjust="spacing" textLength="17" x="104" y="843.3481">13</text><text fill="#000000" font-family="sans-serif" font-size="13" lengthAdjust="spacing" textLength="83" x="125" y="843.3481">Return result</text><!--MD5=[f2b47d71b06e9c22007297eb1150fa1e]
@startuml
entity "Mojaloop Adapter" as dfsp
note over dfsp
    * Participant Bank A
    * Participant Bank B
end note

box Central-Ledger #FFFFF9
    participant "**API**" as cl_api
    participant "__api__ / Handler" as cl_handler
    participant "__domain__ / Service" as cl_domain
    participant "__models__ / Facade" as cl_facade

    note over cl_api
        REST API deployed in NodeJS
    end note

    note over cl_handler
        JSON request decoded and
        sent for processing via a handler
    end note

    note over cl_domain
        Domain folder where the service
        functions are exposed.
    end note

    note over cl_facade
        Facade for storing/retrieving data from
        MySQL and TigerBeetle
    end note
end box

box Storage #F9FFF9
    control "TigerBeetle Client" as tb_client
    collections "TigerBeetle Cluster" as tb_nodes
    database "central-ledger" as cl_db
    database "Redis" as redis_cache
end box

autonumber
group Lookup Participant by Name
    dfsp -> cl_api : //JSON// \n**(name)**
    cl_api -> cl_handler : ///jmeter/participants/**{name}**// \nHandler invoked
    cl_handler -> cl_domain : Service invoked
    cl_domain -> cl_facade : Facade invoked
    cl_facade <-> redis_cache : Account id for participant is obtained via Redis lookup.
    autonumber stop
    cl_facade <- -> cl_db : If the participant data is not available in Redis, \na database lookup is performed followed by storing the participant\ndata in Redis cache.
    autonumber resume
    cl_facade -> tb_client : Account lookup using id via the CL-TB interface.
    tb_client <-> tb_nodes : TigerBeetle //account//\n fetched.
    tb_client - -> cl_facade : //account// data returned.
    cl_facade <-> cl_db : Additional meta-data is fetched from the CentralLedger database.\n**//OPTIONAL//**
    cl_facade - -> cl_domain : Return result
    cl_domain - -> cl_handler : Return result
    cl_handler - -> cl_api : Return result
    cl_api - -> dfsp : Return result
end
@enduml

PlantUML version 1.2022.4beta2(Unknown compile time)
(GPL source distribution)
Java Runtime: Java(TM) SE Runtime Environment
JVM: Java HotSpot(TM) 64-Bit Server VM
Default Encoding: UTF-8
Language: en
Country: US
--></g></svg>