<?xml version="1.0" encoding="UTF-8" standalone="no"?><svg xmlns="http://www.w3.org/2000/svg" xmlns:xlink="http://www.w3.org/1999/xlink" contentStyleType="text/css" height="1120px" preserveAspectRatio="none" style="width:1478px;height:1120px;background:#FFFFFF;" version="1.1" viewBox="0 0 1478 1120" width="1478px" zoomAndPan="magnify"><defs/><g><rect fill="#FFFFF9" height="1101.8464" style="stroke:#181818;stroke-width:0.5;" width="579.5" x="214" y="6"/><text fill="#000000" font-family="sans-serif" font-size="13" font-weight="bold" lengthAdjust="spacing" textLength="98" x="453.25" y="19.897">Central-Ledger</text><rect fill="#F9FFF9" height="1101.8464" style="stroke:#181818;stroke-width:0.5;" width="492" x="977" y="6"/><text fill="#000000" font-family="sans-serif" font-size="13" font-weight="bold" lengthAdjust="spacing" textLength="51" x="1196" y="19.897">Storage</text><rect height="635.9444" style="stroke:#000000;stroke-width:1.5;fill:none;" width="1412" x="10" y="386.8341"/><line style="stroke:#181818;stroke-width:0.5;fill:none;stroke-dasharray:5.0,5.0;" x1="87" x2="87" y1="92.7739" y2="1039.7785"/><line style="stroke:#181818;stroke-width:0.5;fill:none;stroke-dasharray:5.0,5.0;" x1="237" x2="237" y1="92.7739" y2="1039.7785"/><line style="stroke:#181818;stroke-width:0.5;fill:none;stroke-dasharray:5.0,5.0;" x1="428" x2="428" y1="92.7739" y2="1039.7785"/><line style="stroke:#181818;stroke-width:0.5;fill:none;stroke-dasharray:5.0,5.0;" x1="588" x2="588" y1="92.7739" y2="1039.7785"/><line style="stroke:#181818;stroke-width:0.5;fill:none;stroke-dasharray:5.0,5.0;" x1="727.5" x2="727.5" y1="92.7739" y2="1039.7785"/><line style="stroke:#181818;stroke-width:0.5;fill:none;stroke-dasharray:5.0,5.0;" x1="1048" x2="1048" y1="92.7739" y2="1039.7785"/><line style="stroke:#181818;stroke-width:0.5;fill:none;stroke-dasharray:5.0,5.0;" x1="1253.5" x2="1253.5" y1="92.7739" y2="1039.7785"/><line style="stroke:#181818;stroke-width:0.5;fill:none;stroke-dasharray:5.0,5.0;" x1="1386" x2="1386" y1="92.7739" y2="1039.7785"/><line style="stroke:#181818;stroke-width:0.5;fill:none;stroke-dasharray:5.0,5.0;" x1="1443" x2="1443" y1="92.7739" y2="1039.7785"/><rect fill="#B0D5FF" height="33.0679" rx="2.5" ry="2.5" style="stroke:#181818;stroke-width:0.5;" width="134" x="20" y="58.706"/><text fill="#000000" font-family="sans-serif" font-size="14" lengthAdjust="spacing" textLength="120" x="27" y="80.672">Mojaloop Adapter</text><rect fill="#B0D5FF" height="33.0679" rx="2.5" ry="2.5" style="stroke:#181818;stroke-width:0.5;" width="134" x="20" y="1038.7785"/><text fill="#000000" font-family="sans-serif" font-size="14" lengthAdjust="spacing" textLength="120" x="27" y="1060.7444">Mojaloop Adapter</text><rect fill="#E2E2F0" height="33.0679" rx="2.5" ry="2.5" style="stroke:#181818;stroke-width:0.5;" width="38" x="218" y="58.706"/><text fill="#000000" font-family="sans-serif" font-size="14" font-weight="bold" lengthAdjust="spacing" textLength="24" x="225" y="80.672">API</text><rect fill="#E2E2F0" height="33.0679" rx="2.5" ry="2.5" style="stroke:#181818;stroke-width:0.5;" width="38" x="218" y="1038.7785"/><text fill="#000000" font-family="sans-serif" font-size="14" font-weight="bold" lengthAdjust="spacing" textLength="24" x="225" y="1060.7444">API</text><rect fill="#E2E2F0" height="33.0679" rx="2.5" ry="2.5" style="stroke:#181818;stroke-width:0.5;" width="102" x="377" y="58.706"/><text fill="#000000" font-family="sans-serif" font-size="14" lengthAdjust="spacing" text-decoration="underline" textLength="21" x="384" y="80.672">api</text><text fill="#000000" font-family="sans-serif" font-size="14" lengthAdjust="spacing" textLength="63" x="409" y="80.672">/ Handler</text><rect fill="#E2E2F0" height="33.0679" rx="2.5" ry="2.5" style="stroke:#181818;stroke-width:0.5;" width="102" x="377" y="1038.7785"/><text fill="#000000" font-family="sans-serif" font-size="14" lengthAdjust="spacing" text-decoration="underline" textLength="21" x="384" y="1060.7444">api</text><text fill="#000000" font-family="sans-serif" font-size="14" lengthAdjust="spacing" textLength="63" x="409" y="1060.7444">/ Handler</text><rect fill="#E2E2F0" height="33.0679" rx="2.5" ry="2.5" style="stroke:#181818;stroke-width:0.5;" width="126" x="525" y="58.706"/><text fill="#000000" font-family="sans-serif" font-size="14" lengthAdjust="spacing" text-decoration="underline" textLength="51" x="532" y="80.672">domain</text><text fill="#000000" font-family="sans-serif" font-size="14" lengthAdjust="spacing" textLength="57" x="587" y="80.672">/ Service</text><rect fill="#E2E2F0" height="33.0679" rx="2.5" ry="2.5" style="stroke:#181818;stroke-width:0.5;" width="126" x="525" y="1038.7785"/><text fill="#000000" font-family="sans-serif" font-size="14" lengthAdjust="spacing" text-decoration="underline" textLength="51" x="532" y="1060.7444">domain</text><text fill="#000000" font-family="sans-serif" font-size="14" lengthAdjust="spacing" textLength="57" x="587" y="1060.7444">/ Service</text><rect fill="#E2E2F0" height="33.0679" rx="2.5" ry="2.5" style="stroke:#181818;stroke-width:0.5;" width="123" x="666.5" y="58.706"/><text fill="#000000" font-family="sans-serif" font-size="14" lengthAdjust="spacing" text-decoration="underline" textLength="49" x="673.5" y="80.672">models</text><text fill="#000000" font-family="sans-serif" font-size="14" lengthAdjust="spacing" textLength="56" x="726.5" y="80.672">/ Facade</text><rect fill="#E2E2F0" height="33.0679" rx="2.5" ry="2.5" style="stroke:#181818;stroke-width:0.5;" width="123" x="666.5" y="1038.7785"/><text fill="#000000" font-family="sans-serif" font-size="14" lengthAdjust="spacing" text-decoration="underline" textLength="49" x="673.5" y="1060.7444">models</text><text fill="#000000" font-family="sans-serif" font-size="14" lengthAdjust="spacing" textLength="56" x="726.5" y="1060.7444">/ Facade</text><rect fill="#D5E8D4" height="33.0679" rx="2.5" ry="2.5" style="stroke:#181818;stroke-width:0.5;" width="134" x="981" y="58.706"/><text fill="#000000" font-family="sans-serif" font-size="14" lengthAdjust="spacing" textLength="120" x="988" y="80.672">TigerBeetle Client</text><rect fill="#D5E8D4" height="33.0679" rx="2.5" ry="2.5" style="stroke:#181818;stroke-width:0.5;" width="134" x="981" y="1038.7785"/><text fill="#000000" font-family="sans-serif" font-size="14" lengthAdjust="spacing" textLength="120" x="988" y="1060.7444">TigerBeetle Client</text><rect fill="#D5E8D4" height="33.0679" style="stroke:#181818;stroke-width:0.5;" width="143" x="1184.5" y="54.706"/><rect fill="#D5E8D4" height="33.0679" style="stroke:#181818;stroke-width:0.5;" width="143" x="1180.5" y="58.706"/><text fill="#000000" font-family="sans-serif" font-size="14" lengthAdjust="spacing" textLength="129" x="1187.5" y="80.672">TigerBeetle Cluster</text><rect fill="#D5E8D4" height="33.0679" style="stroke:#181818;stroke-width:0.5;" width="143" x="1184.5" y="1038.7785"/><rect fill="#D5E8D4" height="33.0679" style="stroke:#181818;stroke-width:0.5;" width="143" x="1180.5" y="1042.7785"/><text fill="#000000" font-family="sans-serif" font-size="14" lengthAdjust="spacing" textLength="129" x="1187.5" y="1064.7444">TigerBeetle Cluster</text><text fill="#000000" font-family="sans-serif" font-size="14" lengthAdjust="spacing" textLength="46" x="1360" y="88.672">MySQL</text><path d="M1368,37.706 C1368,27.706 1386,27.706 1386,27.706 C1386,27.706 1404,27.706 1404,37.706 L1404,63.706 C1404,73.706 1386,73.706 1386,73.706 C1386,73.706 1368,73.706 1368,63.706 L1368,37.706 " fill="#DAE8FC" style="stroke:#181818;stroke-width:1.5;"/><path d="M1368,37.706 C1368,47.706 1386,47.706 1386,47.706 C1386,47.706 1404,47.706 1404,37.706 " fill="none" style="stroke:#181818;stroke-width:1.5;"/><text fill="#000000" font-family="sans-serif" font-size="14" lengthAdjust="spacing" textLength="46" x="1360" y="1053.7444">MySQL</text><path d="M1368,1067.8464 C1368,1057.8464 1386,1057.8464 1386,1057.8464 C1386,1057.8464 1404,1057.8464 1404,1067.8464 L1404,1093.8464 C1404,1103.8464 1386,1103.8464 1386,1103.8464 C1386,1103.8464 1368,1103.8464 1368,1093.8464 L1368,1067.8464 " fill="#DAE8FC" style="stroke:#181818;stroke-width:1.5;"/><path d="M1368,1067.8464 C1368,1077.8464 1386,1077.8464 1386,1077.8464 C1386,1077.8464 1404,1077.8464 1404,1067.8464 " fill="none" style="stroke:#181818;stroke-width:1.5;"/><text fill="#000000" font-family="sans-serif" font-size="14" lengthAdjust="spacing" textLength="37" x="1422" y="88.672">Redis</text><path d="M1425.5,37.706 C1425.5,27.706 1443.5,27.706 1443.5,27.706 C1443.5,27.706 1461.5,27.706 1461.5,37.706 L1461.5,63.706 C1461.5,73.706 1443.5,73.706 1443.5,73.706 C1443.5,73.706 1425.5,73.706 1425.5,63.706 L1425.5,37.706 " fill="#E1D5E7" style="stroke:#181818;stroke-width:1.5;"/><path d="M1425.5,37.706 C1425.5,47.706 1443.5,47.706 1443.5,47.706 C1443.5,47.706 1461.5,47.706 1461.5,37.706 " fill="none" style="stroke:#181818;stroke-width:1.5;"/><text fill="#000000" font-family="sans-serif" font-size="14" lengthAdjust="spacing" textLength="37" x="1422" y="1053.7444">Redis</text><path d="M1425.5,1067.8464 C1425.5,1057.8464 1443.5,1057.8464 1443.5,1057.8464 C1443.5,1057.8464 1461.5,1057.8464 1461.5,1067.8464 L1461.5,1093.8464 C1461.5,1103.8464 1443.5,1103.8464 1443.5,1103.8464 C1443.5,1103.8464 1425.5,1103.8464 1425.5,1093.8464 L1425.5,1067.8464 " fill="#E1D5E7" style="stroke:#181818;stroke-width:1.5;"/><path d="M1425.5,1067.8464 C1425.5,1077.8464 1443.5,1077.8464 1443.5,1077.8464 C1443.5,1077.8464 1461.5,1077.8464 1461.5,1067.8464 " fill="none" style="stroke:#181818;stroke-width:1.5;"/><path d="M16,107.7739 L16,152.7739 L158,152.7739 L158,117.7739 L148,107.7739 L16,107.7739 " fill="#FEFFDD" style="stroke:#181818;stroke-width:0.5;"/><path d="M148,107.7739 L148,117.7739 L158,117.7739 L148,107.7739 " fill="#FEFFDD" style="stroke:#181818;stroke-width:0.5;"/><ellipse cx="27.5" cy="122.9799" fill="#000000" rx="2.5" ry="2.5" style="stroke:#000000;stroke-width:0.0;"/><text fill="#000000" font-family="sans-serif" font-size="13" lengthAdjust="spacing" textLength="109" x="34" y="126.6709">Participant Bank A</text><ellipse cx="27.5" cy="140.686" fill="#000000" rx="2.5" ry="2.5" style="stroke:#000000;stroke-width:0.0;"/><text fill="#000000" font-family="sans-serif" font-size="13" lengthAdjust="spacing" textLength="109" x="34" y="144.377">Participant Bank B</text><path d="M176,163.186 L176,208.186 L298,208.186 L298,173.186 L288,163.186 L176,163.186 " fill="#FEFFDD" style="stroke:#181818;stroke-width:0.5;"/><path d="M288,163.186 L288,173.186 L298,173.186 L288,163.186 " fill="#FEFFDD" style="stroke:#181818;stroke-width:0.5;"/><text fill="#000000" font-family="sans-serif" font-size="13" lengthAdjust="spacing" textLength="99" x="182" y="182.083">NodeJS interface</text><text fill="#000000" font-family="sans-serif" font-size="13" lengthAdjust="spacing" textLength="101" x="182" y="199.789">invokes REST API</text><path d="M321,218.598 L321,263.598 L535,263.598 L535,228.598 L525,218.598 L321,218.598 " fill="#FEFFDD" style="stroke:#181818;stroke-width:0.5;"/><path d="M525,218.598 L525,228.598 L535,228.598 L525,218.598 " fill="#FEFFDD" style="stroke:#181818;stroke-width:0.5;"/><text fill="#000000" font-family="sans-serif" font-size="13" lengthAdjust="spacing" textLength="148" x="327" y="237.495">JSON request decoded &amp;</text><text fill="#000000" font-family="sans-serif" font-size="13" lengthAdjust="spacing" textLength="193" x="327" y="255.201">sent for processing via a handler</text><path d="M506,274.01 L506,319.01 L670,319.01 L670,284.01 L660,274.01 L506,274.01 " fill="#FEFFDD" style="stroke:#181818;stroke-width:0.5;"/><path d="M660,274.01 L660,284.01 L670,284.01 L660,274.01 " fill="#FEFFDD" style="stroke:#181818;stroke-width:0.5;"/><text fill="#000000" font-family="sans-serif" font-size="13" lengthAdjust="spacing" textLength="143" x="512" y="292.907">Domain folder exposing</text><text fill="#000000" font-family="sans-serif" font-size="13" lengthAdjust="spacing" textLength="100" x="512" y="310.6131">service functions</text><path d="M641,329.4221 L641,374.4221 L814,374.4221 L814,339.4221 L804,329.4221 L641,329.4221 " fill="#FEFFDD" style="stroke:#181818;stroke-width:0.5;"/><path d="M804,329.4221 L804,339.4221 L814,339.4221 L804,329.4221 " fill="#FEFFDD" style="stroke:#181818;stroke-width:0.5;"/><text fill="#000000" font-family="sans-serif" font-size="13" lengthAdjust="spacing" textLength="150" x="647" y="348.3191">Facade stores &amp; retrieves</text><text fill="#000000" font-family="sans-serif" font-size="13" lengthAdjust="spacing" textLength="152" x="647" y="366.0251">data to &amp; from databases</text><path d="M10,386.8341 L176,386.8341 L176,396.5401 L166,406.5401 L10,406.5401 L10,386.8341 " fill="#EEEEEE" style="stroke:#000000;stroke-width:1.5;"/><rect fill="none" height="635.9444" style="stroke:#000000;stroke-width:1.5;" width="1412" x="10" y="386.8341"/><text fill="#000000" font-family="sans-serif" font-size="13" font-weight="bold" lengthAdjust="spacing" textLength="121" x="25" y="401.7311">Create Participant</text><polygon fill="#181818" points="225,443.9521,235,447.9521,225,451.9521,229,447.9521" style="stroke:#181818;stroke-width:1.0;"/><line style="stroke:#181818;stroke-width:1.0;" x1="87" x2="231" y1="447.9521" y2="447.9521"/><text fill="#000000" font-family="sans-serif" font-size="13" font-weight="bold" lengthAdjust="spacing" textLength="7" x="94" y="433.2901">1</text><text fill="#000000" font-family="sans-serif" font-size="13" font-style="italic" lengthAdjust="spacing" textLength="29" x="105" y="424.4371">JSON</text><text fill="#000000" font-family="sans-serif" font-size="13" lengthAdjust="spacing" textLength="3" x="134" y="424.4371"> </text><text fill="#000000" font-family="sans-serif" font-size="13" font-weight="bold" lengthAdjust="spacing" textLength="115" x="105" y="442.1431">(participant data)</text><polygon fill="#181818" points="416,493.3642,426,497.3642,416,501.3642,420,497.3642" style="stroke:#181818;stroke-width:1.0;"/><line style="stroke:#181818;stroke-width:1.0;" x1="237" x2="422" y1="497.3642" y2="497.3642"/><text fill="#000000" font-family="sans-serif" font-size="13" font-weight="bold" lengthAdjust="spacing" textLength="7" x="244" y="482.7022">2</text><text fill="#000000" font-family="sans-serif" font-size="13" font-style="italic" lengthAdjust="spacing" textLength="153" x="255" y="473.8492">/jmeter/participants/create</text><text fill="#000000" font-family="sans-serif" font-size="13" lengthAdjust="spacing" textLength="3" x="408" y="473.8492"> </text><text fill="#000000" font-family="sans-serif" font-size="13" lengthAdjust="spacing" textLength="99" x="255" y="491.5552">Handler invoked</text><polygon fill="#181818" points="576,525.0702,586,529.0702,576,533.0702,580,529.0702" style="stroke:#181818;stroke-width:1.0;"/><line style="stroke:#181818;stroke-width:1.0;" x1="428" x2="582" y1="529.0702" y2="529.0702"/><text fill="#000000" font-family="sans-serif" font-size="13" font-weight="bold" lengthAdjust="spacing" textLength="7" x="435" y="523.2612">3</text><text fill="#000000" font-family="sans-serif" font-size="13" lengthAdjust="spacing" textLength="125" x="446" y="523.2612">Service layer invoked</text><polygon fill="#181818" points="716,556.7762,726,560.7762,716,564.7762,720,560.7762" style="stroke:#181818;stroke-width:1.0;"/><line style="stroke:#181818;stroke-width:1.0;" x1="588" x2="722" y1="560.7762" y2="560.7762"/><text fill="#000000" font-family="sans-serif" font-size="13" font-weight="bold" lengthAdjust="spacing" textLength="7" x="595" y="554.9672">4</text><text fill="#000000" font-family="sans-serif" font-size="13" lengthAdjust="spacing" textLength="105" x="606" y="554.9672">Domain to facade</text><polygon fill="#181818" points="1374,641.6003,1384,645.6003,1374,649.6003,1378,645.6003" style="stroke:#181818;stroke-width:1.0;"/><line style="stroke:#181818;stroke-width:1.0;" x1="728" x2="1380" y1="645.6003" y2="645.6003"/><text fill="#000000" font-family="sans-serif" font-size="13" font-weight="bold" lengthAdjust="spacing" textLength="7" x="735" y="613.2323">5</text><ellipse cx="751.5" cy="582.9822" fill="#000000" rx="2.5" ry="2.5" style="stroke:#000000;stroke-width:0.0;"/><text fill="#000000" font-family="sans-serif" font-size="13" font-style="italic" lengthAdjust="spacing" textLength="63" x="758" y="586.6732">participant</text><text fill="#000000" font-family="sans-serif" font-size="13" lengthAdjust="spacing" textLength="3" x="821" y="586.6732">,</text><ellipse cx="751.5" cy="600.6882" fill="#000000" rx="2.5" ry="2.5" style="stroke:#000000;stroke-width:0.0;"/><text fill="#000000" font-family="sans-serif" font-size="13" font-style="italic" lengthAdjust="spacing" textLength="115" x="758" y="604.3792">participantCurrency</text><text fill="#000000" font-family="sans-serif" font-size="13" lengthAdjust="spacing" textLength="3" x="873" y="604.3792">,</text><ellipse cx="751.5" cy="618.3943" fill="#000000" rx="2.5" ry="2.5" style="stroke:#000000;stroke-width:0.0;"/><text fill="#000000" font-family="sans-serif" font-size="13" font-style="italic" lengthAdjust="spacing" textLength="108" x="758" y="622.0853">participantPosition</text><text fill="#000000" font-family="sans-serif" font-size="13" lengthAdjust="spacing" textLength="113" x="749" y="639.7913">DB records created</text><polygon fill="#181818" points="1036,673.3063,1046,677.3063,1036,681.3063,1040,677.3063" style="stroke:#181818;stroke-width:1.0;"/><line style="stroke:#181818;stroke-width:1.0;" x1="728" x2="1042" y1="677.3063" y2="677.3063"/><text fill="#000000" font-family="sans-serif" font-size="13" font-weight="bold" lengthAdjust="spacing" textLength="7" x="735" y="671.4973">6</text><text fill="#000000" font-family="sans-serif" font-size="13" font-style="italic" lengthAdjust="spacing" textLength="46" x="746" y="671.4973">account</text><text fill="#000000" font-family="sans-serif" font-size="13" lengthAdjust="spacing" textLength="236" x="795" y="671.4973">create requested via the CL-TB interface</text><polygon fill="#181818" points="1242,722.7183,1252,726.7183,1242,730.7183,1246,726.7183" style="stroke:#181818;stroke-width:1.0;"/><line style="stroke:#181818;stroke-width:1.0;" x1="1048" x2="1248" y1="726.7183" y2="726.7183"/><text fill="#000000" font-family="sans-serif" font-size="13" font-weight="bold" lengthAdjust="spacing" textLength="7" x="1055" y="712.0563">7</text><text fill="#000000" font-family="sans-serif" font-size="13" font-style="italic" lengthAdjust="spacing" textLength="46" x="1066" y="703.2033">account</text><text fill="#000000" font-family="sans-serif" font-size="13" lengthAdjust="spacing" textLength="122" x="1115" y="703.2033">distributed to nodes</text><text fill="#000000" font-family="sans-serif" font-size="13" lengthAdjust="spacing" textLength="127" x="1069" y="720.9093">via the state machine</text><line style="stroke:#181818;stroke-width:1.0;" x1="1254" x2="1296" y1="793.8364" y2="793.8364"/><line style="stroke:#181818;stroke-width:1.0;" x1="1296" x2="1296" y1="793.8364" y2="806.8364"/><line style="stroke:#181818;stroke-width:1.0;" x1="1255" x2="1296" y1="806.8364" y2="806.8364"/><polygon fill="#181818" points="1265,802.8364,1255,806.8364,1265,810.8364,1261,806.8364" style="stroke:#181818;stroke-width:1.0;"/><text fill="#000000" font-family="sans-serif" font-size="13" font-weight="bold" lengthAdjust="spacing" textLength="7" x="1261" y="770.3214">8</text><text fill="#000000" font-family="sans-serif" font-size="13" font-weight="bold" lengthAdjust="spacing" textLength="51" x="1272" y="752.6153">[ASYNC]</text><text fill="#000000" font-family="sans-serif" font-size="13" lengthAdjust="spacing" textLength="104" x="1272" y="770.3214">replication across</text><text fill="#000000" font-family="sans-serif" font-size="13" lengthAdjust="spacing" textLength="86" x="1272" y="788.0274">cluster via VSR</text><polygon fill="#181818" points="739,852.2484,729,856.2484,739,860.2484,735,856.2484" style="stroke:#181818;stroke-width:1.0;"/><line style="stroke:#181818;stroke-width:1.0;stroke-dasharray:2.0,2.0;" x1="733" x2="1047" y1="856.2484" y2="856.2484"/><text fill="#000000" font-family="sans-serif" font-size="13" font-weight="bold" lengthAdjust="spacing" textLength="7" x="745" y="841.5864">9</text><text fill="#000000" font-family="sans-serif" font-size="13" font-style="italic" lengthAdjust="spacing" textLength="46" x="756" y="832.7334">account</text><text fill="#000000" font-family="sans-serif" font-size="13" lengthAdjust="spacing" textLength="70" x="805" y="832.7334">create error</text><text fill="#000000" font-family="sans-serif" font-size="13" font-weight="bold" lengthAdjust="spacing" textLength="42" x="878" y="832.7334">(none)</text><text fill="#000000" font-family="sans-serif" font-size="13" font-style="italic" lengthAdjust="spacing" textLength="128" x="756" y="850.4394">(Replicated to 2 nodes)</text><polygon fill="#181818" points="739,883.9544,729,887.9544,739,891.9544,735,887.9544" style="stroke:#181818;stroke-width:1.0;"/><polygon fill="#181818" points="1374,883.9544,1384,887.9544,1374,891.9544,1378,887.9544" style="stroke:#181818;stroke-width:1.0;"/><line style="stroke:#181818;stroke-width:1.0;stroke-dasharray:2.0,2.0;" x1="733" x2="1380" y1="887.9544" y2="887.9544"/><text fill="#000000" font-family="sans-serif" font-size="13" font-weight="bold" lengthAdjust="spacing" textLength="14" x="745" y="882.1454">10</text><text fill="#000000" font-family="sans-serif" font-size="13" lengthAdjust="spacing" textLength="196" x="763" y="882.1454">Database transaction committed</text><polygon fill="#181818" points="599,915.6604,589,919.6604,599,923.6604,595,919.6604" style="stroke:#181818;stroke-width:1.0;"/><line style="stroke:#181818;stroke-width:1.0;stroke-dasharray:2.0,2.0;" x1="593" x2="727" y1="919.6604" y2="919.6604"/><text fill="#000000" font-family="sans-serif" font-size="13" font-weight="bold" lengthAdjust="spacing" textLength="14" x="605" y="913.8514">11</text><text fill="#000000" font-family="sans-serif" font-size="13" lengthAdjust="spacing" textLength="78" x="623" y="913.8514">Return result</text><polygon fill="#181818" points="439,947.3665,429,951.3665,439,955.3665,435,951.3665" style="stroke:#181818;stroke-width:1.0;"/><line style="stroke:#181818;stroke-width:1.0;stroke-dasharray:2.0,2.0;" x1="433" x2="587" y1="951.3665" y2="951.3665"/><text fill="#000000" font-family="sans-serif" font-size="13" font-weight="bold" lengthAdjust="spacing" textLength="14" x="445" y="945.5575">12</text><text fill="#000000" font-family="sans-serif" font-size="13" lengthAdjust="spacing" textLength="78" x="463" y="945.5575">Return result</text><polygon fill="#181818" points="248,979.0725,238,983.0725,248,987.0725,244,983.0725" style="stroke:#181818;stroke-width:1.0;"/><line style="stroke:#181818;stroke-width:1.0;stroke-dasharray:2.0,2.0;" x1="242" x2="427" y1="983.0725" y2="983.0725"/><text fill="#000000" font-family="sans-serif" font-size="13" font-weight="bold" lengthAdjust="spacing" textLength="14" x="254" y="977.2635">13</text><text fill="#000000" font-family="sans-serif" font-size="13" lengthAdjust="spacing" textLength="78" x="272" y="977.2635">Return result</text><polygon fill="#181818" points="98,1010.7785,88,1014.7785,98,1018.7785,94,1014.7785" style="stroke:#181818;stroke-width:1.0;"/><line style="stroke:#181818;stroke-width:1.0;stroke-dasharray:2.0,2.0;" x1="92" x2="236" y1="1014.7785" y2="1014.7785"/><text fill="#000000" font-family="sans-serif" font-size="13" font-weight="bold" lengthAdjust="spacing" textLength="14" x="104" y="1008.9695">14</text><text fill="#000000" font-family="sans-serif" font-size="13" lengthAdjust="spacing" textLength="78" x="122" y="1008.9695">Return result</text><!--MD5=[e85b550c50cbf01756162404a57e0706]
@startuml

participant "Mojaloop Adapter" as dfsp #B0D5FF
note over dfsp
    * Participant Bank A
    * Participant Bank B
end note

box Central-Ledger #FFFFF9
    participant "**API**" as cl_api
    participant "__api__ / Handler" as cl_handler
    participant "__domain__ / Service" as cl_domain
    participant "__models__ / Facade" as cl_facade

    note over cl_api
        NodeJS interface
        invokes REST API
    end note

    note over cl_handler
        JSON request decoded &
        sent for processing via a handler
    end note

    note over cl_domain
        Domain folder exposing
        service functions
    end note

    note over cl_facade
        Facade stores & retrieves
        data to & from databases
    end note
end box

box Storage #F9FFF9
	Participant "TigerBeetle Client" as tb_client #D5E8D4
	collections "TigerBeetle Cluster" as tb_nodes #D5E8D4
	database "MySQL" as cl_db #DAE8FC
	database "Redis" as redis_cache #E1D5E7
end box

autonumber
group Create Participant
    dfsp -> cl_api : //JSON// \n**(participant data)**
    cl_api -> cl_handler : ///jmeter/participants/create// \nHandler invoked
    cl_handler -> cl_domain : Service layer invoked
    cl_domain -> cl_facade : Domain to facade
    cl_facade -> cl_db : *//participant//, \n*//participantCurrency//, \n*//participantPosition// \n DB records created
    cl_facade -> tb_client : //account// create requested via the CL-TB interface
    tb_client -> tb_nodes : //account// distributed to nodes\n via the state machine
    tb_nodes -> tb_nodes : **[ASYNC]**\nreplication across \ncluster via VSR
    tb_client - -> cl_facade : //account// create error **(none)**\n//(Replicated to 2 nodes)//
    cl_db <- -> cl_facade : Database transaction committed
    cl_facade - -> cl_domain : Return result
    cl_domain - -> cl_handler : Return result
    cl_handler - -> cl_api : Return result
    cl_api - -> dfsp : Return result
end

@enduml

PlantUML version 1.2022.6(Tue Jun 21 19:34:49 CEST 2022)
(GPL source distribution)
Java Runtime: OpenJDK Runtime Environment
JVM: OpenJDK 64-Bit Server VM
Default Encoding: UTF-8
Language: en
Country: US
--></g></svg>